<?xml version="1.0" encoding="utf-8"?>
<!-- Generator: Adobe Illustrator 16.0.0, SVG Export Plug-In . SVG Version: 6.00 Build 0)  -->
<!DOCTYPE svg PUBLIC "-//W3C//DTD SVG 1.1//EN" "http://www.w3.org/Graphics/SVG/1.1/DTD/svg11.dtd">
<svg id="arcade" version="1.1" xmlns="http://www.w3.org/2000/svg" xmlns:xlink="http://www.w3.org/1999/xlink" x="0px" y="0px" width="281px"
	 height="267px" viewBox="0 0 281 267" enable-background="new 0 0 281 267" xml:space="preserve">
<symbol  id="classic_buttons_x2F_button_assets_x2F_haze" viewBox="-25.594 -25.409 51.16 50.843">
	<g id="Layer_3_1_">
		<g>
			<path fill-rule="evenodd" clip-rule="evenodd" fill="#FFFFFF" fill-opacity="0.0902" d="M22.55,22.575
				c-0.403,0.426-0.928,0.727-1.575,0.9c-0.638,0.173-1.221,0.173-1.75,0c-25.87-8.419-39.986-23.319-42.35-44.7
				c-0.048-0.455,0.127-0.896,0.525-1.325c0.404-0.426,0.929-0.726,1.575-0.9c0.634-0.181,1.217-0.189,1.75-0.025
				c0.537,0.173,0.879,0.473,1.025,0.9C-11.761-4.27,1.755,9.997,22.3,20.225c0.472,0.231,0.73,0.573,0.775,1.025
				C23.125,21.707,22.95,22.148,22.55,22.575z M23.575,21.15c-0.061-0.549-0.377-0.965-0.95-1.25
				C2.156,9.708-11.311-4.509-17.775-22.75c-0.174-0.502-0.583-0.853-1.225-1.05c-0.639-0.199-1.339-0.191-2.1,0.025
				c-0.77,0.207-1.395,0.565-1.875,1.075c-0.484,0.51-0.701,1.035-0.65,1.575c2.378,21.499,16.569,36.481,42.575,44.95
				c0.635,0.208,1.334,0.208,2.1,0c0.779-0.215,1.413-0.582,1.9-1.1C23.428,22.218,23.636,21.693,23.575,21.15z"/>
			<path fill-rule="evenodd" clip-rule="evenodd" fill="#FFFFFF" fill-opacity="0.1098" d="M22.175,22.425
				c-0.32,0.343-0.736,0.585-1.25,0.725c-0.518,0.139-0.993,0.139-1.425,0C-6.234,14.773-20.276-0.052-22.625-21.325
				c-0.037-0.369,0.104-0.727,0.425-1.075c0.32-0.342,0.737-0.584,1.25-0.725c0.516-0.138,0.991-0.138,1.425,0
				c0.423,0.14,0.689,0.382,0.8,0.725c6.514,18.361,20.081,32.67,40.7,42.925c0.379,0.195,0.587,0.479,0.625,0.85
				C22.638,21.737,22.497,22.087,22.175,22.425z M22.55,22.575c0.4-0.427,0.575-0.869,0.525-1.325
				c-0.045-0.452-0.304-0.793-0.775-1.025C1.755,9.997-11.761-4.27-18.25-22.575c-0.146-0.427-0.488-0.727-1.025-0.9
				c-0.533-0.164-1.116-0.156-1.75,0.025c-0.646,0.174-1.171,0.475-1.575,0.9c-0.398,0.428-0.573,0.87-0.525,1.325
				c2.364,21.381,16.48,36.281,42.35,44.7c0.529,0.173,1.112,0.173,1.75,0C21.622,23.302,22.146,23.001,22.55,22.575z"/>
			<path fill-rule="evenodd" clip-rule="evenodd" fill="#FFFFFF" fill-opacity="0.1294" d="M21.775,22.25
				c-0.235,0.259-0.543,0.443-0.925,0.55c-0.383,0.104-0.732,0.104-1.05,0C-5.815,14.464-19.798-0.286-22.15-21.45
				c-0.026-0.274,0.083-0.541,0.325-0.8c0.245-0.259,0.561-0.442,0.95-0.55c0.38-0.095,0.73-0.087,1.05,0.025
				c0.317,0.099,0.517,0.274,0.6,0.525c6.524,18.404,20.107,32.754,40.75,43.05c0.375,0.42,0.567,0.646,0.575,0.675
				C22.126,21.742,22.018,22,21.775,22.25z M22.175,22.425c0.322-0.338,0.463-0.688,0.425-1.05c-0.038-0.372-0.246-0.655-0.625-0.85
				C1.355,10.27-12.211-4.039-18.725-22.4c-0.11-0.343-0.377-0.585-0.8-0.725c-0.435-0.138-0.909-0.138-1.425,0
				c-0.513,0.141-0.93,0.383-1.25,0.725c-0.32,0.348-0.462,0.706-0.425,1.075C-20.276-0.052-6.234,14.773,19.5,23.15
				c0.432,0.139,0.907,0.139,1.425,0C21.438,23.01,21.855,22.768,22.175,22.425z"/>
			<path fill-rule="evenodd" clip-rule="evenodd" fill="#FFFFFF" fill-opacity="0.149" d="M21.775,22.25
				c0.243-0.25,0.352-0.508,0.325-0.775c-0.008-0.03-0.2-0.255-0.575-0.675C0.882,10.504-12.701-3.846-19.225-22.25
				c-0.083-0.251-0.283-0.426-0.6-0.525c-0.319-0.112-0.669-0.12-1.05-0.025c-0.389,0.108-0.706,0.291-0.95,0.55
				c-0.242,0.259-0.351,0.526-0.325,0.8C-19.798-0.286-5.815,14.464,19.8,22.8c0.318,0.104,0.667,0.104,1.05,0
				C21.231,22.693,21.54,22.509,21.775,22.25z M21.4,22.1c-0.168,0.176-0.385,0.301-0.65,0.375c-0.255,0.061-0.488,0.053-0.7-0.025
				c-25.462-8.286-39.354-22.953-41.675-44c-0.023-0.18,0.044-0.355,0.2-0.525c0.16-0.167,0.368-0.283,0.625-0.35
				c0.253-0.078,0.487-0.086,0.7-0.025c0.22,0.066,0.361,0.183,0.425,0.35C-13.12-3.601,0.538,10.815,21.3,21.15
				c0.186,0.098,0.285,0.239,0.3,0.425C21.623,21.756,21.557,21.931,21.4,22.1z"/>
			<path fill-rule="evenodd" clip-rule="evenodd" fill="#FFFFFF" fill-opacity="0.1686" d="M21,21.95
				c-0.076,0.083-0.176,0.142-0.3,0.175c-0.128,0.035-0.245,0.035-0.35,0C-4.993,13.88-18.827-0.711-21.15-21.65
				c-0.003-0.094,0.039-0.186,0.125-0.275c0.076-0.083,0.176-0.142,0.3-0.175c0.127-0.034,0.244-0.034,0.35,0
				c0.114,0.033,0.189,0.091,0.225,0.175c6.571,18.563,20.271,33.029,41.1,43.4c0.092,0.053,0.143,0.128,0.15,0.225
				C21.112,21.787,21.078,21.87,21,21.95z M21.4,22.1c0.157-0.169,0.223-0.344,0.2-0.525c-0.015-0.186-0.115-0.328-0.3-0.425
				C0.538,10.815-13.12-3.601-19.675-22.1c-0.064-0.167-0.206-0.284-0.425-0.35c-0.213-0.061-0.446-0.052-0.7,0.025
				c-0.257,0.066-0.465,0.183-0.625,0.35c-0.156,0.17-0.223,0.345-0.2,0.525c2.321,21.047,16.213,35.714,41.675,44
				c0.212,0.078,0.445,0.086,0.7,0.025C21.015,22.401,21.232,22.276,21.4,22.1z"/>
			<path fill-rule="evenodd" clip-rule="evenodd" fill="#FFFFFF" fill-opacity="0.1882" d="M21,21.95
				c0.078-0.081,0.112-0.164,0.1-0.25c-0.007-0.097-0.058-0.172-0.15-0.225c-20.829-10.371-34.529-24.837-41.1-43.4
				c-0.036-0.084-0.111-0.142-0.225-0.175c-0.106-0.034-0.223-0.034-0.35,0c-0.124,0.033-0.224,0.092-0.3,0.175
				c-0.086,0.089-0.128,0.181-0.125,0.275c2.323,20.938,16.157,35.53,41.5,43.775c0.105,0.035,0.222,0.035,0.35,0
				C20.824,22.092,20.924,22.034,21,21.95z"/>
			<path fill-rule="evenodd" clip-rule="evenodd" fill="#FFFFFF" fill-opacity="0.0314" d="M23.65,18.95
				C3.398,8.881-9.927-5.169-16.325-23.2c-0.256-0.77-0.864-1.312-1.825-1.625c-0.976-0.302-2.042-0.293-3.2,0.025
				c-1.15,0.315-2.084,0.857-2.8,1.625c-0.719,0.768-1.036,1.56-0.95,2.375c2.403,21.824,16.803,37.032,43.2,45.625
				c0.96,0.312,2.019,0.312,3.175,0c1.16-0.314,2.102-0.855,2.825-1.625c0.721-0.765,1.038-1.557,0.95-2.375
				C24.967,20.001,24.5,19.376,23.65,18.95z M23.3,19.275c0.767,0.374,1.191,0.924,1.275,1.65c0.076,0.732-0.207,1.44-0.85,2.125
				c-0.639,0.678-1.472,1.153-2.5,1.425c-1.037,0.285-1.987,0.293-2.85,0.025C-7.886,15.94-22.211,0.799-24.6-20.925
				c-0.083-0.721,0.193-1.421,0.825-2.1c0.64-0.676,1.473-1.151,2.5-1.425c1.022-0.284,1.964-0.292,2.825-0.025
				c0.871,0.264,1.43,0.73,1.675,1.4C-10.369-4.963,2.989,9.153,23.3,19.275z"/>
			<path fill-rule="evenodd" clip-rule="evenodd" fill="#FFFFFF" fill-opacity="0.051" d="M22.975,19.575
				c0.657,0.337,1.015,0.829,1.075,1.475c0.073,0.637-0.168,1.254-0.725,1.85c-0.563,0.594-1.297,1.011-2.2,1.25
				c-0.893,0.243-1.709,0.243-2.45,0C-7.458,15.648-21.717,0.598-24.1-21c-0.071-0.643,0.171-1.268,0.725-1.875
				c0.556-0.593,1.281-1.009,2.175-1.25c0.896-0.25,1.721-0.258,2.475-0.025c0.757,0.239,1.241,0.655,1.45,1.25
				C-10.836-4.732,2.581,9.426,22.975,19.575z M23.3,19.275C2.989,9.153-10.369-4.963-16.775-23.075
				c-0.246-0.67-0.804-1.136-1.675-1.4c-0.86-0.268-1.802-0.259-2.825,0.025c-1.027,0.274-1.86,0.749-2.5,1.425
				c-0.632,0.679-0.908,1.379-0.825,2.1C-22.211,0.799-7.886,15.94,18.375,24.5c0.863,0.269,1.813,0.26,2.85-0.025
				c1.028-0.272,1.861-0.748,2.5-1.425c0.643-0.685,0.926-1.393,0.85-2.125C24.491,20.199,24.066,19.648,23.3,19.275z"/>
			<path fill-rule="evenodd" clip-rule="evenodd" fill="#FFFFFF" fill-opacity="0.0118" d="M23.65,18.95
				c0.851,0.426,1.317,1.051,1.4,1.875c0.088,0.818-0.229,1.61-0.95,2.375c-0.723,0.77-1.665,1.311-2.825,1.625
				c-1.156,0.312-2.214,0.312-3.175,0C-8.297,16.232-22.697,1.024-25.1-20.8c-0.085-0.815,0.231-1.607,0.95-2.375
				c0.716-0.768,1.649-1.31,2.8-1.625c1.158-0.319,2.225-0.327,3.2-0.025c0.96,0.313,1.569,0.855,1.825,1.625
				C-9.927-5.169,3.398,8.881,23.65,18.95z M23.975,18.625C3.798,8.591-9.477-5.409-15.85-23.375
				c-0.292-0.846-0.976-1.437-2.05-1.775c-1.074-0.345-2.249-0.345-3.525,0c-1.283,0.357-2.325,0.965-3.125,1.825
				c-0.789,0.85-1.13,1.725-1.025,2.625C-23.174,1.241-8.716,16.533,17.8,25.175c1.083,0.346,2.275,0.346,3.575,0
				c1.285-0.355,2.326-0.963,3.125-1.825c0.8-0.854,1.149-1.737,1.05-2.65C25.452,19.788,24.927,19.096,23.975,18.625z"/>
			<path fill-rule="evenodd" clip-rule="evenodd" fill="#FFFFFF" fill-opacity="0.0706" d="M22.975,19.575
				C2.581,9.426-10.836-4.732-17.275-22.9c-0.209-0.595-0.693-1.011-1.45-1.25c-0.754-0.233-1.579-0.225-2.475,0.025
				c-0.894,0.241-1.619,0.657-2.175,1.25c-0.554,0.607-0.796,1.232-0.725,1.875c2.383,21.598,16.642,36.648,42.775,45.15
				c0.741,0.243,1.557,0.243,2.45,0c0.903-0.239,1.637-0.656,2.2-1.25c0.556-0.596,0.798-1.213,0.725-1.85
				C23.99,20.404,23.632,19.912,22.975,19.575z M23.575,21.15c0.061,0.543-0.147,1.068-0.625,1.575
				c-0.488,0.519-1.121,0.885-1.9,1.1c-0.765,0.208-1.465,0.208-2.1,0c-26.006-8.469-40.197-23.452-42.575-44.95
				c-0.051-0.541,0.166-1.065,0.65-1.575c0.48-0.509,1.105-0.868,1.875-1.075c0.761-0.216,1.461-0.224,2.1-0.025
				c0.643,0.197,1.051,0.547,1.225,1.05c6.464,18.241,19.931,32.458,40.4,42.65C23.198,20.185,23.514,20.601,23.575,21.15z"/>
		</g>
	</g>
</symbol>
<symbol  id="classic_buttons_x2F_button_assets_x2F_hazy_ring_2" viewBox="-103.004 -97.505 205.974 194.977">
	<g id="Layer_3_4_">
		<g>
			<path fill-rule="evenodd" clip-rule="evenodd" fill-opacity="0.498" d="M25.25,89.05h-0.025
				c-25.993,6.627-50.651,3.536-73.975-9.275c-23.312-12.808-38.446-31.574-45.4-56.3c-6.974-24.737-3.732-48.203,9.725-70.4
				C-70.956-69.115-51.23-83.506-25.25-90.1v0.025c25.984-6.636,50.634-3.552,73.95,9.25C72.021-68.009,87.163-49.234,94.125-24.5
				c6.958,24.678,3.724,48.12-9.7,70.325C70.929,67.996,51.205,82.404,25.25,89.05z M52.175-64.275
				c1.709,1.476,3.384,3.034,5.025,4.675c1.546,1.547,3.012,3.122,4.4,4.725c9.174,9.263,15.624,20.505,19.35,33.725
				c5.974,21.222,3.182,41.38-8.375,60.475C60.976,58.395,44.018,70.787,21.7,76.5c-22.356,5.699-43.564,3.041-63.625-7.975
				c-20.05-11.017-33.067-27.159-39.05-48.425c-5.993-21.267-3.201-41.442,8.375-60.525c1.889-3.111,3.922-6.044,6.1-8.8
				c2.618-3.602,5.584-7.06,8.9-10.375c1.608-1.612,3.25-3.146,4.925-4.6c-8.216,6.171-15.157,13.93-20.825,23.275
				c-11.736,19.327-14.577,39.761-8.525,61.3c6.07,21.53,19.262,37.872,39.575,49.025c20.313,11.162,41.788,13.862,64.425,8.1
				l-0.025-0.025c22.609-5.789,39.793-18.338,51.55-37.65C85.201,20.494,88.025,0.085,81.975-21.4
				C76.94-39.259,67.006-53.551,52.175-64.275z M-28.025-90.4c-24.189,6.71-42.839,20.327-55.95,40.85
				c-0.144,0.211-0.285,0.428-0.425,0.65c-0.324,0.486-0.64,0.978-0.95,1.475c-13.608,22.433-16.892,46.15-9.85,71.15
				c7.041,24.999,22.35,43.973,45.925,56.925C-25.699,93.599-0.774,96.724,25.5,90.025c26.238-6.721,46.18-21.288,59.825-43.7
				C98.9,23.883,102.175,0.192,95.15-24.75c-7.041-24.999-22.349-43.974-45.925-56.925c-3.107-1.71-6.241-3.252-9.4-4.625
				C19.052-95.281-2.74-96.864-25.55-91.05C-26.379-90.839-27.204-90.623-28.025-90.4z"/>
			<path fill-rule="evenodd" clip-rule="evenodd" fill-opacity="0.5961" d="M25.25,89.05c25.955-6.646,45.679-21.054,59.175-43.225
				c13.424-22.205,16.658-45.647,9.7-70.325C87.163-49.234,72.021-68.009,48.7-80.825c-23.316-12.802-47.966-15.886-73.95-9.25
				V-90.1c-25.98,6.594-45.706,20.985-59.175,43.175c-13.457,22.197-16.699,45.663-9.725,70.4c6.954,24.726,22.087,43.492,45.4,56.3
				c23.324,12.811,47.982,15.902,73.975,9.275H25.25z M-52.675-64.2c3.563-3.073,7.279-5.781,11.15-8.125
				c-13.653,6.958-24.619,17.258-32.9,30.9c-11.871,19.563-14.738,40.247-8.6,62.05c6.141,21.795,19.491,38.336,40.05,49.625
				c20.565,11.3,42.307,14.034,65.225,8.2c22.876-5.863,40.26-18.572,52.15-38.125C86.251,20.757,89.118,0.099,83-21.65
				C76.851-43.453,63.493-60.003,42.925-71.3c-0.481-0.265-0.964-0.523-1.45-0.775c3.708,2.259,7.275,4.859,10.7,7.8
				C67.006-53.551,76.94-39.259,81.975-21.4c6.05,21.485,3.226,41.894-8.475,61.225c-11.757,19.312-28.94,31.861-51.55,37.65
				l0.025,0.025c-22.637,5.762-44.112,3.062-64.425-8.1c-20.313-11.153-33.504-27.495-39.575-49.025
				c-6.052-21.539-3.211-41.973,8.525-61.3C-67.832-50.271-60.891-58.029-52.675-64.2z M83.5,45.325
				c-13.354,21.929-32.871,36.179-58.55,42.75c-25.712,6.564-50.104,3.514-73.175-9.15C-71.291,66.245-86.266,47.67-93.15,23.2
				c-6.897-24.465-3.688-47.673,9.625-69.625c13.32-21.948,32.829-36.181,58.525-42.7c25.712-6.556,50.104-3.498,73.175,9.175
				C71.241-67.278,86.216-48.712,93.1-24.25C99.981,0.165,96.781,23.357,83.5,45.325z"/>
			<path fill-rule="evenodd" clip-rule="evenodd" fill-opacity="0.0902" d="M80.6,5.775c-0.106,1.035-0.223,2.06-0.35,3.075h-1.025
				c-1.269,9.753-4.694,19.245-10.275,28.475l-0.025,0.025C57.9,55.452,41.792,67.218,20.6,72.65
				c-21.232,5.414-41.374,2.889-60.425-7.575c-19.047-10.466-31.414-25.799-37.1-46c-0.968-3.439-1.693-6.847-2.175-10.225h-1.05
				c0.49,3.46,1.231,6.952,2.225,10.475c5.756,20.465,18.281,35.999,37.575,46.6C-21.047,76.527-0.638,79.085,20.875,73.6
				l-0.025,0.025c21.492-5.505,37.825-17.438,49-35.8C76.12,27.469,79.704,16.786,80.6,5.775z M-87.175-50.4
				c-0.595,0.326-1.195,0.651-1.8,0.975c-14.19,23.395-17.616,48.128-10.275,74.2c7.338,26.063,23.296,45.847,47.875,59.35
				C-26.79,97.626-0.798,100.884,26.6,93.9c27.348-7.004,48.131-22.187,62.35-45.55l0.025-0.025
				c14.156-23.406,17.572-48.114,10.25-74.125c-7.347-26.064-23.313-45.847-47.9-59.35c-3.019-1.66-6.369-2.936-10.05-3.825
				c3.195,1.395,6.37,2.961,9.525,4.7C75.132-70.916,90.932-51.341,98.2-25.55c7.254,25.748,3.879,50.207-10.125,73.375L88.05,47.85
				C73.972,70.962,53.397,85.979,26.325,92.9v0.025c-27.117,6.913-52.842,3.688-77.175-9.675
				c-24.332-13.368-40.132-32.951-47.4-58.75c-7.264-25.799-3.872-50.274,10.175-73.425C-87.774-49.418-87.474-49.91-87.175-50.4z
				 M-86.75-51.05c13.557-21.227,32.849-35.302,57.875-42.225l2.25-1.65c-27.376,6.947-48.159,22.114-62.35,45.5L-86.75-51.05z"/>
			<path fill-rule="evenodd" clip-rule="evenodd" fill-opacity="0.1961" d="M-80.15,8.85h-0.5c-0.453-3.598-0.678-7.29-0.675-11.075
				c-0.004-5.176,0.413-10.176,1.25-15c-2.829,11.878-2.462,24.153,1.1,36.825c5.843,20.729,18.543,36.462,38.1,47.2
				c19.556,10.748,40.231,13.348,62.025,7.8l-0.025-0.025c21.776-5.572,38.326-17.655,49.65-36.25
				C81.836,20.046,84.653,0.771,79.225-19.5c1.135,5.519,1.702,11.278,1.7,17.275c0,1.236-0.024,2.461-0.075,3.675L80.6,5.775
				c-0.896,11.011-4.48,21.694-10.75,32.05c-11.175,18.361-27.508,30.295-49,35.8l0.025-0.025
				c-21.513,5.485-41.922,2.927-61.225-7.675c-19.294-10.601-31.819-26.134-37.575-46.6C-78.918,15.802-79.66,12.311-80.15,8.85z
				 M-86.75-51.05c-0.139,0.218-0.281,0.435-0.425,0.65c-0.299,0.49-0.599,0.982-0.9,1.475
				C-102.122-25.774-105.514-1.299-98.25,24.5c7.268,25.799,23.068,45.382,47.4,58.75c24.333,13.363,50.058,16.588,77.175,9.675
				V92.9c27.072-6.92,47.647-21.938,61.725-45.05l0.025-0.025C102.08,24.657,105.455,0.198,98.2-25.55
				c-7.269-25.791-23.068-45.366-47.4-58.725c-3.155-1.739-6.33-3.306-9.525-4.7c-21.492-9.345-44.033-11.011-67.625-5l0.025,0.025
				c-0.858,0.214-1.708,0.439-2.55,0.675C-53.901-86.352-73.193-72.277-86.75-51.05z M87.15,47.325
				C73.214,70.212,52.847,85.087,26.05,91.95c-26.836,6.841-52.294,3.65-76.375-9.575C-74.394,69.152-90.019,49.777-97.2,24.25
				c-7.195-25.536-3.845-49.761,10.05-72.675C-73.249-71.334-52.891-86.192-26.075-93v0.025c26.828-6.85,52.278-3.667,76.35,9.55
				c24.077,13.231,39.71,32.614,46.9,58.15C104.353,0.202,101.012,24.402,87.15,47.325z"/>
			<path fill-rule="evenodd" clip-rule="evenodd" fill-opacity="0.2941" d="M-80.075-17.225c0.881-5.042,2.223-9.892,4.025-14.55
				c-7.68,16.414-8.989,33.622-3.925,51.625c5.913,20.993,18.771,36.926,38.575,47.8c19.809,10.886,40.75,13.52,62.825,7.9
				c22.042-5.646,38.792-17.888,50.25-36.725c11.415-18.85,14.173-38.75,8.275-59.7c-1.869-6.627-4.427-12.752-7.675-18.375
				c3.214,6.208,5.531,12.791,6.95,19.75c5.428,20.271,2.611,39.546-8.45,57.825c-11.324,18.595-27.874,30.678-49.65,36.25
				L21.15,74.6c-21.794,5.548-42.469,2.948-62.025-7.8c-19.557-10.737-32.257-26.471-38.1-47.2
				C-82.538,6.928-82.904-5.347-80.075-17.225z M87.15,47.325c13.862-22.923,17.203-47.124,10.025-72.6
				c-7.189-25.536-22.823-44.919-46.9-58.15c-24.072-13.217-49.522-16.4-76.35-9.55V-93c-26.816,6.808-47.174,21.666-61.075,44.575
				C-101.045-25.511-104.396-1.286-97.2,24.25c7.182,25.527,22.807,44.902,46.875,58.125C-26.245,95.6-0.786,98.792,26.05,91.95
				C52.847,85.087,73.214,70.212,87.15,47.325z M-84.4-48.9c0.14-0.222,0.281-0.438,0.425-0.65l-2.275,1.625
				c13.759-22.667,33.909-37.367,60.45-44.1l-2.225,1.625c0.821-0.223,1.646-0.439,2.475-0.65c22.81-5.814,44.602-4.231,65.375,4.75
				c3.646,0.869,6.955,2.119,9.925,3.75c23.831,13.087,39.306,32.262,46.425,57.525c7.103,25.213,3.794,49.164-9.925,71.85
				c-13.795,22.646-33.954,37.362-60.475,44.15c-26.555,6.778-51.747,3.628-75.575-9.45c-23.823-13.096-39.289-32.279-46.4-57.55
				c-7.119-25.264-3.802-49.23,9.95-71.9C-85.635-48.254-85.019-48.579-84.4-48.9z"/>
			<path fill-rule="evenodd" clip-rule="evenodd" fill-opacity="0.6941" d="M-26.95-86.55c0.828-0.222,1.662-0.439,2.5-0.65
				l-2.3,1.675c0.851-0.245,1.709-0.478,2.575-0.7l-10.05,7.325c-1.245,0.483-2.47,0.991-3.675,1.525l-4.35,3.15
				c-2.403,1.213-4.728,2.53-6.975,3.95L-58.1-63.8c-2.021,1.698-3.963,3.499-5.825,5.4l-4.2,3.1
				c-0.856,0.969-1.689,1.961-2.5,2.975L-70.95-52.1c1.639-0.84,3.264-1.665,4.875-2.475c-3.382,3.843-6.466,8.06-9.25,12.65
				c-12.014,19.8-14.914,40.733-8.7,62.8c6.21,22.067,19.719,38.817,40.525,50.25c20.809,11.43,42.809,14.188,66,8.275
				c23.168-5.93,40.776-18.788,52.825-38.575C87.312,21.012,90.203,0.095,84-21.925C77.781-43.984,64.264-60.726,43.45-72.15
				c-10.571-5.814-21.446-9.39-32.625-10.725c3.747-0.586,7.305-0.953,10.675-1.1c2.577-0.139,5.043-0.147,7.4-0.025
				c7.313,0.427,13.563,2.068,18.75,4.925c22.819,12.536,37.636,30.903,44.45,55.1c6.805,24.144,3.638,47.077-9.5,68.8
				c-13.213,21.695-32.521,35.795-57.925,42.3C-0.755,93.609-24.88,90.584-47.7,78.05c-22.819-12.536-37.636-30.903-44.45-55.1
				c-6.812-24.201-3.628-47.159,9.55-68.875c13.171-21.705,32.463-35.78,57.875-42.225L-26.95-86.55z M-41.525-72.325
				c6.386-3.864,13.195-6.722,20.425-8.575c6.608-1.671,13.566-2.496,20.875-2.475c15.459-0.003,29.359,3.764,41.7,11.3
				c0.485,0.252,0.969,0.511,1.45,0.775C63.493-60.003,76.851-43.453,83-21.65c6.118,21.749,3.251,42.407-8.6,61.975
				C62.51,59.878,45.126,72.587,22.25,78.45c-22.918,5.833-44.66,3.1-65.225-8.2c-20.559-11.289-33.909-27.83-40.05-49.625
				c-6.138-21.803-3.271-42.486,8.6-62.05C-66.144-55.067-55.178-65.367-41.525-72.325z M83.5,45.325
				c13.281-21.968,16.481-45.16,9.6-69.575c-6.884-24.462-21.859-43.028-44.925-55.7C25.104-92.623,0.712-95.681-25-89.125
				c-25.696,6.519-45.205,20.752-58.525,42.7C-96.838-24.473-100.047-1.265-93.15,23.2c6.884,24.47,21.859,43.045,44.925,55.725
				c23.071,12.665,47.463,15.714,73.175,9.15C50.629,81.504,70.146,67.254,83.5,45.325z M-80.35-47.55l-2.25,1.625
				c0.606-0.329,1.215-0.654,1.825-0.975C-80.635-47.122-80.493-47.339-80.35-47.55z"/>
			<path fill-rule="evenodd" clip-rule="evenodd" fill-opacity="0.898" d="M-37.9-77.375C-49.768-72.246-59.843-64.888-68.125-55.3
				l4.2-3.1c1.862-1.901,3.804-3.702,5.825-5.4l8.875-6.475c2.247-1.42,4.572-2.737,6.975-3.95L-37.9-77.375z M-80.775-46.9
				c-0.315,0.486-0.624,0.978-0.925,1.475l2.275-1.625c12.368-19.299,29.926-32.124,52.675-38.475l2.3-1.675
				c-0.838,0.211-1.672,0.428-2.5,0.65c-23.069,6.43-40.869,19.43-53.4,39C-80.493-47.339-80.635-47.122-80.775-46.9z
				 M-75.675-48.625l-5.125,3.7c0.613-0.324,1.221-0.649,1.825-0.975c1.286-0.687,2.561-1.371,3.825-2.05
				c0.679-0.348,1.354-0.697,2.025-1.05c-1.405,1.946-2.747,3.971-4.025,6.075C-89.46-22.644-92.435-1.203-86.075,21.4
				c6.368,22.596,20.209,39.746,41.525,51.45c21.313,11.715,43.847,14.548,67.6,8.5c23.719-6.08,41.744-19.255,54.075-39.525
				C89.414,21.53,92.389,0.105,86.05-22.45C79.674-45.046,65.824-62.196,44.5-73.9c-6.615-3.636-13.348-6.411-20.2-8.325
				c1.288-0.004,2.546,0.03,3.775,0.1c3.16,0.159,6.118,0.551,8.875,1.175c3.554,0.818,6.771,2.019,9.65,3.6
				c22.31,12.256,36.793,30.214,43.45,53.875c6.661,23.617,3.569,46.05-9.275,67.3C67.854,65.037,48.97,78.82,24.125,85.175
				c-24.869,6.35-48.46,3.4-70.775-8.85c-22.31-12.265-36.793-30.231-43.45-53.9c-6.675-23.665-3.575-46.115,9.3-67.35
				c0.31-0.498,0.627-0.99,0.95-1.475c-0.618,0.321-1.234,0.646-1.85,0.975C-94.735-23.945-97.885-1.237-91.15,22.7
				c6.744,23.933,21.402,42.1,43.975,54.5c22.575,12.396,46.442,15.388,71.6,8.975c25.121-6.438,44.212-20.388,57.275-41.85
				c12.995-21.487,16.128-44.17,9.4-68.05c-6.744-23.933-21.402-42.1-43.975-54.5c-4.156-2.284-9.006-3.776-14.55-4.475
				c-2.488-0.322-5.121-0.48-7.9-0.475c-2.289,0.007-4.672,0.124-7.15,0.35c9.015,1.798,17.832,5.065,26.45,9.8
				C65.036-61.456,78.711-44.506,85-22.175c6.279,22.283,3.354,43.45-8.775,63.5c-12.19,20.029-30.007,33.045-53.45,39.05
				C-0.697,86.36-22.963,83.568-44.025,72C-65.086,60.431-78.761,43.481-85.05,21.15c-6.292-22.338-3.358-43.53,8.8-63.575
				c1.993-3.28,4.135-6.372,6.425-9.275c-1.396,0.725-2.804,1.458-4.225,2.2C-74.59-49.206-75.131-48.914-75.675-48.625z"/>
			<path fill-rule="evenodd" clip-rule="evenodd" d="M-75.675-48.625l4.725-3.475l0.325-0.225c0.811-1.014,1.644-2.005,2.5-2.975
				c8.282-9.588,18.357-16.946,30.225-22.075c1.205-0.534,2.43-1.042,3.675-1.525l10.05-7.325c-0.866,0.222-1.725,0.456-2.575,0.7
				c-22.749,6.352-40.307,19.176-52.675,38.475c-0.144,0.211-0.286,0.428-0.425,0.65c-0.323,0.485-0.64,0.977-0.95,1.475
				C-93.675-23.69-96.775-1.24-90.1,22.425c6.657,23.669,21.14,41.636,43.45,53.9c22.314,12.25,45.906,15.2,70.775,8.85
				c24.845-6.354,43.729-20.138,56.65-41.35c12.844-21.25,15.936-43.684,9.275-67.3C83.393-47.136,68.91-65.094,46.6-77.35
				c-2.879-1.582-6.096-2.782-9.65-3.6c-2.757-0.624-5.715-1.016-8.875-1.175c-1.229-0.07-2.488-0.104-3.775-0.1
				c6.852,1.915,13.585,4.689,20.2,8.325c21.324,11.704,35.174,28.854,41.55,51.45c6.339,22.556,3.364,43.98-8.925,64.275
				C64.794,62.095,46.769,75.271,23.05,81.35c-23.753,6.048-46.287,3.215-67.6-8.5C-65.866,61.146-79.708,43.996-86.075,21.4
				c-6.359-22.603-3.385-44.044,8.925-64.325c1.278-2.104,2.62-4.129,4.025-6.075c-0.671,0.353-1.346,0.702-2.025,1.05
				c-1.265,0.68-2.54,1.363-3.825,2.05c-0.604,0.326-1.212,0.651-1.825,0.975L-75.675-48.625z"/>
			<path fill-rule="evenodd" clip-rule="evenodd" fill-opacity="0.7961" d="M-80.775-46.9c-0.61,0.321-1.219,0.646-1.825,0.975
				l2.25-1.625c12.531-19.57,30.331-32.57,53.4-39l2.225-1.6C-50.137-81.705-69.429-67.63-82.6-45.925
				C-95.778-24.209-98.961-1.251-92.15,22.95c6.813,24.197,21.63,42.563,44.45,55.1c22.82,12.535,46.945,15.56,72.375,9.075
				c25.404-6.504,44.712-20.604,57.925-42.3c13.138-21.723,16.305-44.657,9.5-68.8c-6.814-24.197-21.631-42.564-44.45-55.1
				C42.463-81.932,36.213-83.573,28.9-84c-2.356-0.122-4.823-0.114-7.4,0.025c-3.37,0.147-6.928,0.514-10.675,1.1
				C22.004-81.54,32.879-77.964,43.45-72.15C64.264-60.726,77.781-43.984,84-21.925c6.203,22.02,3.312,42.937-8.675,62.75
				C63.276,60.612,45.668,73.47,22.5,79.4c-23.191,5.914-45.191,3.155-66-8.275c-20.806-11.433-34.314-28.183-40.525-50.25
				c-6.214-22.066-3.314-43,8.7-62.8c2.784-4.591,5.868-8.808,9.25-12.65c-1.611,0.81-3.236,1.635-4.875,2.475l-4.725,3.475
				c0.543-0.289,1.085-0.581,1.625-0.875c1.42-0.742,2.829-1.475,4.225-2.2c-2.29,2.904-4.432,5.996-6.425,9.275
				C-88.408-22.38-91.341-1.188-85.05,21.15C-78.761,43.481-65.086,60.431-44.025,72c21.062,11.568,43.328,14.36,66.8,8.375
				c23.443-6.004,41.26-19.021,53.45-39.05C88.354,21.275,91.279,0.108,85-22.175c-6.289-22.332-19.964-39.281-41.025-50.85
				c-8.619-4.735-17.436-8.002-26.45-9.8c2.478-0.226,4.861-0.342,7.15-0.35c2.779-0.005,5.413,0.153,7.9,0.475
				c5.544,0.699,10.394,2.191,14.55,4.475c22.573,12.4,37.231,30.567,43.975,54.5c6.729,23.88,3.595,46.563-9.4,68.05
				c-13.063,21.462-32.155,35.412-57.275,41.85c-25.158,6.413-49.024,3.421-71.6-8.975C-69.748,64.8-84.406,46.633-91.15,22.7
				c-6.735-23.938-3.585-46.646,9.45-68.125c0.616-0.33,1.232-0.654,1.85-0.975c0.14-0.222,0.281-0.438,0.425-0.65l-2.275,1.625
				C-81.398-45.922-81.09-46.414-80.775-46.9z"/>
			<path fill-rule="evenodd" clip-rule="evenodd" fill-opacity="0.3961" d="M-76.05-31.775c2.38-6.153,5.564-11.969,9.55-17.45
				c-2.178,2.756-4.211,5.689-6.1,8.8C-84.176-21.342-86.968-1.167-80.975,20.1c5.983,21.266,19,37.408,39.05,48.425
				C-21.864,79.541-0.656,82.199,21.7,76.5c22.318-5.713,39.276-18.105,50.875-37.175C84.132,20.23,86.924,0.072,80.95-21.15
				C77.224-34.37,70.774-45.612,61.6-54.875c4.262,4.917,7.82,10.126,10.675,15.625c3.248,5.623,5.807,11.748,7.675,18.375
				c5.898,20.951,3.139,40.851-8.275,59.7C60.217,57.662,43.467,69.903,21.425,75.55c-22.075,5.62-43.016,2.986-62.825-7.9
				c-19.804-10.874-32.662-26.807-38.575-47.8C-85.039,1.847-83.73-15.361-76.05-31.775z M39.825-86.3
				c3.159,1.373,6.292,2.915,9.4,4.625C72.801-68.724,88.109-49.749,95.15-24.75c7.025,24.942,3.75,48.633-9.825,71.075
				C71.68,68.737,51.738,83.304,25.5,90.025c-26.274,6.699-51.199,3.574-74.775-9.375C-72.851,67.698-88.159,48.724-95.2,23.725
				c-7.042-25-3.758-48.717,9.85-71.15c0.31-0.498,0.626-0.989,0.95-1.475c-0.619,0.321-1.235,0.646-1.85,0.975
				c-13.752,22.669-17.069,46.636-9.95,71.9c7.111,25.271,22.578,44.454,46.4,57.55c23.828,13.079,49.02,16.229,75.575,9.45
				c26.521-6.788,46.68-21.504,60.475-44.15c13.719-22.687,17.027-46.637,9.925-71.85C89.056-50.288,73.581-69.463,49.75-82.55
				C46.78-84.181,43.472-85.431,39.825-86.3z M-83.975-49.55c13.111-20.523,31.761-34.14,55.95-40.85l2.225-1.625
				c-26.541,6.733-46.691,21.434-60.45,44.1L-83.975-49.55z"/>
		</g>
	</g>
</symbol>
<symbol  id="classic_buttons_x2F_button_assets_x2F_hazy_ring_3" viewBox="-103 -97.472 205.976 194.944">
	<g id="Layer_3_2_">
		<path fill-rule="evenodd" clip-rule="evenodd" fill-opacity="0.1961" d="M62.25,48.4c-10.556,12.451-24.356,20.859-41.4,25.225
			l0.025-0.025c-21.513,5.485-41.922,2.927-61.225-7.675c-8.731-4.797-16.073-10.605-22.025-17.425
			c-0.018-0.016-0.035-0.032-0.05-0.05c-0.242-0.211-0.484-0.419-0.725-0.625l-0.9-0.85c-1.733-2.29-3.333-4.64-4.8-7.05L-70.3,37.5
			l-7.5-17.75c-0.044-0.142-0.085-0.284-0.125-0.425c-0.07-0.247-0.137-0.497-0.2-0.75l-2.125-10.2
			c-0.734-4.766-1.101-9.691-1.1-14.775c0-0.6,0.008-1.2,0.025-1.8c-0.367,2.747-0.575,5.472-0.625,8.175v0.05
			c0.119,6.417,1.11,12.941,2.975,19.575c5.843,20.729,18.543,36.462,38.1,47.2c19.556,10.748,40.231,13.348,62.025,7.8
			l-0.025-0.025c18.904-4.837,33.871-14.579,44.9-29.225c-0.659,0.534-1.301,1.051-1.925,1.55l-0.025,0.025
			C63.449,47.429,62.84,47.92,62.25,48.4z M26.325,92.925V92.9c27.072-6.92,47.647-21.938,61.725-45.05l0.025-0.025
			c9.288-15.366,13.905-31.299,13.85-47.8v-0.05c0.055-16.501-4.562-32.434-13.85-47.8L88.05-47.85
			C73.972-70.962,53.397-85.979,26.325-92.9v-0.025c-27.117-6.913-52.842-3.688-77.175,9.675
			c-24.332,13.368-40.132,32.951-47.4,58.75c-2.335,8.295-3.569,16.454-3.7,24.475v0.05c0.131,8.021,1.365,16.18,3.7,24.475
			c7.268,25.799,23.068,45.382,47.4,58.75C-26.517,96.613-0.792,99.838,26.325,92.925z M81.325-9.2
			c0.017,0.931,0.025,1.865,0.025,2.8c0.001,4.231-0.249,8.356-0.75,12.375c-0.687,8.045-2.812,15.92-6.375,23.625
			c-2.592,5.997-5.9,11.68-9.925,17.05l1.8-1.4c1.646-2.201,3.204-4.509,4.675-6.925c7.451-12.313,11.159-25.08,11.125-38.3v-0.05
			C81.908-3.105,81.716-6.164,81.325-9.2z M87.15,47.325C73.214,70.212,52.847,85.087,26.05,91.95
			c-26.836,6.841-52.294,3.65-76.375-9.575C-74.394,69.152-90.019,49.777-97.2,24.25c-2.313-8.21-3.539-16.286-3.675-24.225v-0.05
			c0.136-7.939,1.361-16.015,3.675-24.225c7.182-25.527,22.807-44.902,46.875-58.125C-26.245-95.6-0.786-98.792,26.05-91.95
			c26.797,6.863,47.164,21.738,61.1,44.625c9.194,15.205,13.761,30.972,13.7,47.3v0.05C100.911,16.354,96.344,32.12,87.15,47.325z"
			/>
		<path fill-rule="evenodd" clip-rule="evenodd" fill-opacity="0.0902" d="M-62.375,48.5c5.952,6.819,13.293,12.627,22.025,17.425
			C-21.047,76.527-0.638,79.085,20.875,73.6l-0.025,0.025c17.043-4.366,30.844-12.774,41.4-25.225
			c-1.713,1.375-3.255,2.616-4.625,3.725L56.65,52.9c-9.681,9.488-21.698,16.072-36.05,19.75
			c-21.232,5.414-41.374,2.889-60.425-7.575c-5.705-3.135-10.813-6.71-15.325-10.725C-57.62,52.542-60.028,50.593-62.375,48.5z
			 M26.325,92.925c-27.117,6.913-52.842,3.688-77.175-9.675c-24.332-13.368-40.132-32.951-47.4-58.75
			c-2.335-8.295-3.569-16.454-3.7-24.475v-0.05c0.131-8.021,1.365-16.18,3.7-24.475c7.268-25.799,23.068-45.382,47.4-58.75
			c24.333-13.363,50.058-16.588,77.175-9.675v0.025c27.072,6.92,47.647,21.938,61.725,45.05l0.025,0.025
			c9.288,15.366,13.905,31.299,13.85,47.8v0.05c0.055,16.501-4.562,32.434-13.85,47.8L88.05,47.85
			C73.972,70.962,53.397,85.979,26.325,92.9V92.925z M-77.8,19.75c-0.109-0.393-0.217-0.784-0.325-1.175
			c0.063,0.253,0.13,0.503,0.2,0.75C-77.885,19.466-77.844,19.608-77.8,19.75z M80.6,5.975c-1.039,8.349-3.164,16.224-6.375,23.625
			C77.788,21.896,79.913,14.021,80.6,5.975z M88.975,48.325c9.391-15.527,14.057-31.627,14-48.3v-0.05
			c0.057-16.674-4.61-32.774-14-48.3L88.95-48.35C74.731-71.713,53.948-86.896,26.6-93.9c-27.398-6.984-53.39-3.726-77.975,9.775
			c-24.579,13.503-40.537,33.287-47.875,59.35c-2.362,8.388-3.612,16.638-3.75,24.75v0.05c0.138,8.112,1.388,16.362,3.75,24.75
			c7.338,26.063,23.296,45.847,47.875,59.35C-26.79,97.626-0.798,100.884,26.6,93.9c27.348-7.004,48.131-22.187,62.35-45.55
			L88.975,48.325z"/>
		<path fill-rule="evenodd" clip-rule="evenodd" fill-opacity="0.5961" d="M22.15-89.8c3.739,1.085,7.364,2.46,10.875,4.125
			c21.733,7.331,38.558,20.781,50.475,40.35c8.804,14.562,13.179,29.663,13.125,45.3v0.05c0.054,15.638-4.321,30.738-13.125,45.3
			c-13.354,21.929-32.871,36.179-58.55,42.75c-25.712,6.564-50.104,3.514-73.175-9.15C-71.291,66.245-86.266,47.67-93.15,23.2
			c-2.214-7.854-3.389-15.58-3.525-23.175v-0.05c0.136-7.596,1.311-15.321,3.525-23.175c6.884-24.47,21.859-43.045,44.925-55.725
			c5.349-2.937,10.766-5.353,16.25-7.25c4.675-2.116,9.542-3.725,14.6-4.825c-10.714,1.879-21.172,5.621-31.375,11.225
			c-23.312,12.808-38.446,31.574-45.4,56.3c-2.241,7.948-3.424,15.765-3.55,23.45v0.05c0.126,7.686,1.31,15.502,3.55,23.45
			c6.954,24.726,22.087,43.492,45.4,56.3c23.324,12.811,47.982,15.902,73.975,9.275h0.025c25.955-6.646,45.679-21.054,59.175-43.225
			c8.901-14.723,13.318-29.99,13.25-45.8v-0.05c0.068-15.811-4.349-31.077-13.25-45.8C70.929-67.996,51.205-82.404,25.25-89.05
			h-0.025C24.198-89.312,23.173-89.562,22.15-89.8z M-78.125-31.325c0.616-2.271,1.324-4.504,2.125-6.7
			c-2.927,5.367-5.269,11.167-7.025,17.4c-1.965,6.981-3.007,13.848-3.125,20.6v0.05c0.118,6.752,1.16,13.619,3.125,20.6
			c6.141,21.795,19.491,38.336,40.05,49.625c20.565,11.3,42.307,14.034,65.225,8.2c22.876-5.863,40.26-18.572,52.15-38.125
			c7.847-12.956,11.755-26.389,11.725-40.3v-0.05c0.027-12.66-3.206-24.927-9.7-36.8c0.684,1.963,1.292,3.955,1.825,5.975
			c4.571,9.998,6.846,20.273,6.825,30.825v0.05c0.027,13.739-3.831,27.005-11.575,39.8c-11.757,19.312-28.94,31.861-51.55,37.65
			l0.025,0.025c-22.637,5.762-44.112,3.062-64.425-8.1c-20.313-11.153-33.504-27.495-39.575-49.025
			c-1.938-6.896-2.963-13.68-3.075-20.35v-0.05c0.112-6.67,1.137-13.454,3.075-20.35C-80.951-24.185-79.651-27.834-78.125-31.325z"
			/>
		<path fill-rule="evenodd" clip-rule="evenodd" fill-opacity="0.498" d="M-17.375-91C-11.82-92.218-6.028-92.826,0-92.825
			c7.334-0.001,14.318,0.898,20.95,2.7c0.401,0.108,0.801,0.216,1.2,0.325c1.023,0.238,2.048,0.488,3.075,0.75h0.025
			c25.955,6.646,45.679,21.054,59.175,43.225c8.901,14.723,13.318,29.99,13.25,45.8v0.05c0.068,15.811-4.349,31.077-13.25,45.8
			C70.929,67.996,51.205,82.404,25.25,89.05h-0.025c-25.993,6.627-50.651,3.536-73.975-9.275
			c-23.312-12.808-38.446-31.574-45.4-56.3c-2.241-7.948-3.424-15.765-3.55-23.45v-0.05c0.126-7.686,1.31-15.502,3.55-23.45
			c6.954-24.726,22.087-43.492,45.4-56.3C-38.547-85.379-28.089-89.121-17.375-91z M-79.825-23.85c0.46-2.536,1.027-5.027,1.7-7.475
			c-1.526,3.491-2.826,7.141-3.9,10.95c-1.938,6.896-2.963,13.68-3.075,20.35v0.05c0.112,6.67,1.137,13.454,3.075,20.35
			c6.07,21.53,19.262,37.872,39.575,49.025c20.313,11.162,41.788,13.862,64.425,8.1l-0.025-0.025
			c22.609-5.789,39.793-18.338,51.55-37.65c7.744-12.795,11.603-26.062,11.575-39.8v-0.05c0.021-10.552-2.254-20.827-6.825-30.825
			c0.562,2.078,1.045,4.187,1.45,6.325c2.885,7.995,4.318,16.161,4.3,24.5v0.05c0.031,13.566-3.778,26.666-11.425,39.3
			C60.976,58.395,44.018,70.787,21.7,76.5c-22.356,5.699-43.564,3.041-63.625-7.975c-20.05-11.017-33.067-27.159-39.05-48.425
			c-1.917-6.804-2.934-13.495-3.05-20.075v-0.05c0.116-6.58,1.133-13.272,3.05-20.075C-80.617-21.372-80.234-22.622-79.825-23.85z
			 M85.325,46.325c9.003-14.884,13.478-30.317,13.425-46.3v-0.05c0.053-15.983-4.421-31.417-13.425-46.3
			C71.68-68.737,51.738-83.304,25.5-90.025c-26.274-6.699-51.199-3.574-74.775,9.375C-72.851-67.698-88.159-48.724-95.2-23.725
			c-2.262,8.033-3.462,15.933-3.6,23.7v0.05c0.137,7.768,1.337,15.667,3.6,23.7c7.041,24.999,22.35,43.973,45.925,56.925
			C-25.699,93.599-0.774,96.724,25.5,90.025C51.738,83.304,71.68,68.737,85.325,46.325z"/>
		<path fill-rule="evenodd" clip-rule="evenodd" fill-opacity="0.2941" d="M-81.325-8.2c0.039-2.788,0.189-5.53,0.45-8.225
			c-1.309,5.542-2.008,11.009-2.1,16.4v0.05c0.11,6.498,1.11,13.106,3,19.825c5.913,20.993,18.771,36.926,38.575,47.8
			c19.809,10.886,40.75,13.52,62.825,7.9c22.042-5.646,38.792-17.888,50.25-36.725c7.554-12.474,11.32-25.407,11.3-38.8v-0.05
			c0.009-5.997-0.741-11.905-2.25-17.725c0.316,2.803,0.517,5.653,0.6,8.55c0.391,3.037,0.583,6.095,0.575,9.175v0.05
			c0.034,13.221-3.674,25.987-11.125,38.3c-1.471,2.416-3.029,4.724-4.675,6.925l1.55-1.225c-0.553,0.453-1.095,0.895-1.625,1.325
			c-11.029,14.646-25.996,24.388-44.9,29.225L21.15,74.6c-21.794,5.548-42.469,2.948-62.025-7.8
			c-19.557-10.737-32.257-26.471-38.1-47.2c-1.865-6.634-2.856-13.159-2.975-19.575v-0.05C-81.9-2.728-81.692-5.453-81.325-8.2z
			 M87.15,47.325c9.194-15.205,13.761-30.972,13.7-47.3v-0.05c0.061-16.329-4.506-32.095-13.7-47.3
			C73.214-70.212,52.847-85.087,26.05-91.95c-26.836-6.841-52.294-3.65-76.375,9.575C-74.394-69.152-90.019-49.777-97.2-24.25
			c-2.313,8.21-3.539,16.286-3.675,24.225v0.05c0.136,7.939,1.361,16.015,3.675,24.225c7.182,25.527,22.807,44.902,46.875,58.125
			C-26.245,95.6-0.786,98.792,26.05,91.95C52.847,85.087,73.214,70.212,87.15,47.325z M86.25,46.825
			c-13.795,22.646-33.954,37.362-60.475,44.15c-26.555,6.778-51.747,3.628-75.575-9.45c-23.823-13.096-39.289-32.279-46.4-57.55
			c-2.287-8.117-3.496-16.101-3.625-23.95v-0.05c0.129-7.85,1.338-15.833,3.625-23.95c7.111-25.271,22.578-44.454,46.4-57.55
			c23.828-13.079,49.02-16.229,75.575-9.45c26.521,6.788,46.68,21.504,60.475,44.15c9.097,15.044,13.614,30.644,13.55,46.8v0.05
			C99.864,16.181,95.347,31.781,86.25,46.825z"/>
		<path fill-rule="evenodd" clip-rule="evenodd" d="M50.25-74.475c2.501,2.123,4.926,4.431,7.275,6.925
			c3.772,4.01,7.098,8.218,9.975,12.625c3.522,3.974,6.73,8.341,9.625,13.1c8.137,13.438,12.187,27.371,12.15,41.8v0.05
			c0.037,14.429-4.013,28.363-12.15,41.8C64.794,62.095,46.769,75.271,23.05,81.35c-23.753,6.048-46.287,3.215-67.6-8.5
			C-65.866,61.146-79.708,43.996-86.075,21.4c-2.038-7.244-3.122-14.369-3.25-21.375v-0.05c0.128-7.006,1.212-14.131,3.25-21.375
			C-82.317-34.736-75.958-46.178-67-55.725c2.759-4.114,5.909-8.056,9.45-11.825c2.057-2.181,4.165-4.223,6.325-6.125
			C-70.951-61.522-83.909-44.439-90.1-22.425c-2.141,7.591-3.274,15.058-3.4,22.4v0.05c0.125,7.342,1.259,14.809,3.4,22.4
			c6.657,23.669,21.14,41.636,43.45,53.9c22.314,12.25,45.906,15.2,70.775,8.85c24.845-6.354,43.729-20.138,56.65-41.35
			c8.511-14.081,12.736-28.68,12.675-43.8v-0.05c0.061-15.12-4.165-29.72-12.675-43.8C72.848-56.838,62.673-67.055,50.25-74.475z"/>
		<path fill-rule="evenodd" clip-rule="evenodd" fill-opacity="0.898" d="M45.2-78.45c1.715,1.242,3.398,2.567,5.05,3.975
			c12.423,7.42,22.598,17.637,30.525,30.65c8.511,14.081,12.736,28.68,12.675,43.8v0.05c0.061,15.12-4.165,29.72-12.675,43.8
			C67.854,65.037,48.97,78.82,24.125,85.175c-24.869,6.35-48.46,3.4-70.775-8.85c-22.31-12.265-36.793-30.231-43.45-53.9
			c-2.141-7.591-3.274-15.058-3.4-22.4v-0.05c0.125-7.342,1.259-14.809,3.4-22.4c6.191-22.014,19.149-39.098,38.875-51.25
			c1.619-1.417,3.269-2.75,4.95-4c-0.301,0.152-0.602,0.311-0.9,0.475C-69.748-64.8-84.406-46.633-91.15-22.7
			c-2.162,7.685-3.304,15.243-3.425,22.675v0.05c0.121,7.432,1.263,14.99,3.425,22.675c6.744,23.933,21.402,42.1,43.975,54.5
			c22.575,12.396,46.442,15.388,71.6,8.975c25.121-6.438,44.212-20.388,57.275-41.85c8.613-14.241,12.896-29.008,12.85-44.3v-0.05
			c0.046-15.292-4.237-30.06-12.85-44.3C72.514-59.417,60.348-70.792,45.2-78.45z M67.5-54.925c1.279,1.958,2.471,3.958,3.575,6
			c1.815,2.407,3.531,4.941,5.15,7.6c8.032,13.277,12.032,27.043,12,41.3v0.05c0.032,14.257-3.968,28.023-12,41.3
			c-12.19,20.029-30.007,33.045-53.45,39.05C-0.697,86.36-22.963,83.568-44.025,72C-65.086,60.431-78.761,43.481-85.05,21.15
			c-2.017-7.159-3.083-14.201-3.2-21.125v-0.05c0.117-6.924,1.184-13.966,3.2-21.125c3.103-11.019,8.003-20.728,14.7-29.125
			c1.045-1.85,2.162-3.667,3.35-5.45c-8.958,9.547-15.317,20.989-19.075,34.325c-2.038,7.244-3.122,14.369-3.25,21.375v0.05
			c0.128,7.006,1.212,14.131,3.25,21.375c6.368,22.596,20.209,39.746,41.525,51.45c21.313,11.715,43.847,14.548,67.6,8.5
			c23.719-6.08,41.744-19.255,54.075-39.525c8.137-13.438,12.187-27.371,12.15-41.8v-0.05c0.037-14.429-4.013-28.363-12.15-41.8
			C74.23-46.584,71.022-50.951,67.5-54.925z"/>
		<path fill-rule="evenodd" clip-rule="evenodd" fill-opacity="0.7961" d="M71.075-48.925c1.069,1.975,2.052,3.984,2.95,6.025
			c0.443,0.687,0.876,1.379,1.3,2.075c7.935,13.116,11.885,26.716,11.85,40.8v0.05c0.035,14.084-3.915,27.684-11.85,40.8
			C63.276,60.612,45.668,73.47,22.5,79.4c-23.191,5.914-45.191,3.155-66-8.275c-20.806-11.433-34.314-28.183-40.525-50.25
			c-1.99-7.066-3.048-14.016-3.175-20.85v-0.05c0.127-6.834,1.185-13.784,3.175-20.85c2.426-8.623,5.968-16.431,10.625-23.425
			c0.934-2.03,1.951-4.022,3.05-5.975c-6.697,8.397-11.597,18.106-14.7,29.125c-2.017,7.159-3.083,14.201-3.2,21.125v0.05
			c0.117,6.924,1.184,13.966,3.2,21.125C-78.761,43.481-65.086,60.431-44.025,72c21.062,11.568,43.328,14.36,66.8,8.375
			c23.443-6.004,41.26-19.021,53.45-39.05c8.032-13.277,12.032-27.043,12-41.3v-0.05c0.032-14.257-3.968-28.023-12-41.3
			C74.606-43.984,72.89-46.518,71.075-48.925z M-46.275-77.675c1.949-1.47,3.941-2.828,5.975-4.075c-2.481,1.12-4.948,2.353-7.4,3.7
			c-22.819,12.536-37.636,30.903-44.45,55.1c-2.187,7.77-3.345,15.412-3.475,22.925v0.05c0.13,7.514,1.288,15.155,3.475,22.925
			c6.813,24.197,21.63,42.563,44.45,55.1c22.82,12.535,46.945,15.56,72.375,9.075c25.404-6.504,44.712-20.604,57.925-42.3
			c8.71-14.401,13.035-29.335,12.975-44.8v-0.05c0.06-15.465-4.265-30.399-12.975-44.8c-10.464-17.182-24.748-29.599-42.85-37.25
			c1.848,1.118,3.665,2.327,5.45,3.625c15.147,7.659,27.314,19.034,36.5,34.125c8.613,14.241,12.896,29.008,12.85,44.3v0.05
			c0.046,15.292-4.237,30.06-12.85,44.3c-13.063,21.462-32.155,35.412-57.275,41.85c-25.158,6.413-49.024,3.421-71.6-8.975
			C-69.748,64.8-84.406,46.633-91.15,22.7c-2.162-7.685-3.304-15.243-3.425-22.675v-0.05c0.121-7.432,1.263-14.99,3.425-22.675
			c6.744-23.933,21.402-42.1,43.975-54.5C-46.876-77.364-46.576-77.522-46.275-77.675z"/>
		<path fill-rule="evenodd" clip-rule="evenodd" fill-opacity="0.6941" d="M33.025-85.675c2.287,1.075,4.528,2.275,6.725,3.6
			c18.103,7.651,32.386,20.068,42.85,37.25c8.71,14.401,13.035,29.335,12.975,44.8v0.05c0.06,15.465-4.265,30.399-12.975,44.8
			c-13.213,21.695-32.521,35.795-57.925,42.3C-0.755,93.609-24.88,90.584-47.7,78.05c-22.819-12.536-37.636-30.903-44.45-55.1
			c-2.187-7.77-3.345-15.412-3.475-22.925v-0.05c0.13-7.514,1.288-15.155,3.475-22.925c6.813-24.197,21.63-42.563,44.45-55.1
			c2.452-1.347,4.919-2.581,7.4-3.7c2.706-1.667,5.48-3.141,8.325-4.425c-5.484,1.897-10.901,4.313-16.25,7.25
			C-71.291-66.245-86.266-47.67-93.15-23.2c-2.214,7.854-3.389,15.58-3.525,23.175v0.05c0.136,7.596,1.311,15.321,3.525,23.175
			c6.884,24.47,21.859,43.045,44.925,55.725c23.071,12.665,47.463,15.714,73.175,9.15c25.679-6.571,45.195-20.821,58.55-42.75
			c8.804-14.562,13.179-29.663,13.125-45.3v-0.05c0.054-15.638-4.321-30.738-13.125-45.3C71.583-64.894,54.758-78.344,33.025-85.675
			z M74.025-42.9c0.878,1.993,1.678,4.019,2.4,6.075c6.494,11.874,9.728,24.141,9.7,36.8v0.05c0.03,13.912-3.878,27.345-11.725,40.3
			C62.51,59.878,45.126,72.587,22.25,78.45c-22.918,5.833-44.66,3.1-65.225-8.2c-20.559-11.289-33.909-27.83-40.05-49.625
			c-1.965-6.981-3.007-13.848-3.125-20.6v-0.05c0.118-6.752,1.16-13.619,3.125-20.6c1.756-6.233,4.098-12.033,7.025-17.4
			c0.782-2.131,1.648-4.223,2.6-6.275c-4.657,6.994-8.199,14.802-10.625,23.425c-1.99,7.066-3.048,14.016-3.175,20.85v0.05
			c0.127,6.834,1.185,13.784,3.175,20.85c6.21,22.067,19.719,38.817,40.525,50.25c20.809,11.43,42.809,14.188,66,8.275
			c23.168-5.93,40.776-18.788,52.825-38.575c7.935-13.117,11.885-26.716,11.85-40.8v-0.05c0.035-14.084-3.915-27.684-11.85-40.8
			C74.901-41.521,74.468-42.213,74.025-42.9z"/>
		<path fill-rule="evenodd" clip-rule="evenodd" fill-opacity="0.3961" d="M79.7-24.525c0.422,2.228,0.764,4.486,1.025,6.775
			c1.509,5.82,2.259,11.729,2.25,17.725v0.05c0.02,13.394-3.747,26.327-11.3,38.8C60.217,57.662,43.467,69.903,21.425,75.55
			c-22.075,5.62-43.016,2.986-62.825-7.9c-19.804-10.874-32.662-26.807-38.575-47.8c-1.89-6.719-2.89-13.327-3-19.825v-0.05
			c0.092-5.391,0.792-10.857,2.1-16.4c0.257-2.518,0.607-4.993,1.05-7.425c-0.409,1.228-0.792,2.478-1.15,3.75
			c-1.917,6.803-2.934,13.495-3.05,20.075v0.05c0.116,6.58,1.133,13.271,3.05,20.075c5.983,21.266,19,37.408,39.05,48.425
			C-21.864,79.541-0.656,82.199,21.7,76.5c22.318-5.713,39.276-18.105,50.875-37.175C80.222,26.691,84.031,13.591,84,0.025v-0.05
			C84.019-8.364,82.585-16.53,79.7-24.525z M86.25,46.825c9.097-15.044,13.614-30.644,13.55-46.8v-0.05
			c0.064-16.156-4.453-31.756-13.55-46.8c-13.795-22.646-33.954-37.362-60.475-44.15c-26.555-6.778-51.747-3.628-75.575,9.45
			c-23.823,13.096-39.289,32.279-46.4,57.55c-2.287,8.117-3.496,16.101-3.625,23.95v0.05c0.129,7.85,1.338,15.833,3.625,23.95
			c7.111,25.271,22.578,44.454,46.4,57.55c23.828,13.079,49.02,16.229,75.575,9.45C52.296,84.188,72.455,69.471,86.25,46.825z
			 M85.325,46.325C71.68,68.737,51.738,83.304,25.5,90.025c-26.274,6.699-51.199,3.574-74.775-9.375
			C-72.851,67.698-88.159,48.724-95.2,23.725c-2.262-8.033-3.462-15.933-3.6-23.7v-0.05c0.137-7.768,1.337-15.667,3.6-23.7
			c7.041-24.999,22.35-43.973,45.925-56.925C-25.699-93.599-0.774-96.724,25.5-90.025c26.238,6.721,46.18,21.288,59.825,43.7
			c9.003,14.884,13.478,30.317,13.425,46.3v0.05C98.803,16.008,94.329,31.441,85.325,46.325z"/>
	</g>
</symbol>
<symbol  id="classic_buttons_x2F_button_assets_x2F_shadow" viewBox="-123.15 -116.725 246.3 233.55">
	<g id="Layer_3_3_">
		<path fill-rule="evenodd" clip-rule="evenodd" fill-opacity="0.8471" d="M76.75,72.45c21.249-19.996,31.865-44.129,31.85-72.4
			c0.016-28.277-10.601-52.402-31.85-72.375c-21.194-19.901-46.769-29.852-76.725-29.85c-29.973-0.002-55.548,9.948-76.725,29.85
			h0.025c-21.283,19.973-31.917,44.098-31.9,72.375c-0.024,28.271,10.601,52.404,31.875,72.4
			c21.177,19.886,46.752,29.836,76.725,29.85c29.947-0.014,55.514-9.963,76.7-29.85H76.75z M76.125,71.775V71.8
			c-21.021,19.715-46.388,29.573-76.1,29.575c-29.721-0.01-55.08-9.876-76.075-29.6c-21.092-19.809-31.634-43.718-31.625-71.725
			c-0.01-28.022,10.532-51.931,31.625-71.725v0.05c20.996-19.756,46.354-29.639,76.075-29.65c29.713,0.012,55.08,9.895,76.1,29.65
			C97.184-51.848,107.709-27.956,107.7,0.05C107.708,28.057,97.184,51.965,76.125,71.775z"/>
		<path fill-rule="evenodd" clip-rule="evenodd" fill-opacity="0.898" d="M76.125,71.775C97.184,51.965,107.708,28.057,107.7,0.05
			c0.009-28.006-10.516-51.897-31.575-71.675c-21.021-19.755-46.387-29.638-76.1-29.65c-29.721,0.011-55.079,9.894-76.075,29.65
			v-0.05c-21.093,19.794-31.635,43.702-31.625,71.725c-0.009,28.007,10.533,51.916,31.625,71.725
			c20.995,19.724,46.354,29.59,76.075,29.6c29.712-0.002,55.079-9.86,76.1-29.575V71.775z M75.5,71.1
			c-20.848,19.569-46.006,29.36-75.475,29.375c-29.478-0.015-54.627-9.806-75.45-29.375c-20.902-19.623-31.352-43.307-31.35-71.05
			c-0.002-27.742,10.448-51.409,31.35-71c20.823-19.601,45.973-29.409,75.45-29.425C29.494-100.359,54.653-90.55,75.5-70.95
			c20.869,19.591,31.302,43.258,31.3,71C106.802,27.793,96.368,51.477,75.5,71.1z"/>
		<path fill-rule="evenodd" clip-rule="evenodd" fill-opacity="0.7961" d="M76.75,72.45h-0.025
			c-21.187,19.886-46.753,29.836-76.7,29.85c-29.973-0.014-55.548-9.963-76.725-29.85c-21.274-19.997-31.899-44.13-31.875-72.4
			c-0.016-28.277,10.617-52.402,31.9-72.375H-76.7c21.177-19.902,46.752-29.852,76.725-29.85
			c29.956-0.002,55.531,9.948,76.725,29.85C97.999-52.353,108.616-28.228,108.6,0.05C108.615,28.321,97.999,52.454,76.75,72.45z
			 M77.4,73.15c21.439-20.191,32.147-44.558,32.125-73.1c0.022-28.524-10.686-52.858-32.125-73
			C56.024-93.04,30.233-103.098,0.025-103.125c-30.216,0.026-56,10.085-77.35,30.175c-21.481,20.142-32.214,44.476-32.2,73
			c-0.015,28.542,10.719,52.909,32.2,73.1c21.35,20.032,47.133,30.049,77.35,30.05C30.232,103.199,56.024,93.182,77.4,73.15z"/>
		<path fill-rule="evenodd" clip-rule="evenodd" fill-opacity="0.5412" d="M80.5,76.4c22.405-21.083,33.589-46.533,33.55-76.35
			c0.04-29.834-11.144-55.284-33.55-76.35c-22.233-20.88-49.058-31.33-80.475-31.35c-31.427,0.028-58.243,10.486-80.45,31.375V-76.3
			c-22.451,21.065-33.659,46.515-33.625,76.35c-0.033,29.826,11.175,55.285,33.625,76.375c22.207,20.855,49.023,31.297,80.45,31.325
			c31.417-0.029,58.241-10.47,80.475-31.325V76.4z M79.875,75.775H79.85c-22.052,20.691-48.66,31.05-79.825,31.075
			c-31.183-0.024-57.791-10.383-79.825-31.075c-22.26-20.913-33.376-46.154-33.35-75.725c-0.028-29.559,11.081-54.776,33.325-75.65
			l0.025-0.025c22.037-20.71,48.645-31.077,79.825-31.1c31.174,0.025,57.791,10.4,79.85,31.125H79.85
			c22.225,20.872,33.325,46.088,33.3,75.65C113.182,29.621,102.09,54.862,79.875,75.775z"/>
		<path fill-rule="evenodd" clip-rule="evenodd" fill-opacity="0.5961" d="M79.875,75.775C102.09,54.862,113.182,29.621,113.15,0.05
			c0.025-29.562-11.075-54.778-33.3-75.65h0.025c-22.06-20.725-48.676-31.1-79.85-31.125c-31.18,0.023-57.788,10.39-79.825,31.1
			l-0.025,0.025c-22.244,20.874-33.353,46.091-33.325,75.65c-0.026,29.571,11.09,54.812,33.35,75.725
			c22.034,20.692,48.642,31.051,79.825,31.075c31.165-0.025,57.773-10.384,79.825-31.075H79.875z M79.225,75.1
			c-21.878,20.521-48.279,30.787-79.2,30.8c-30.931-0.012-57.323-10.279-79.175-30.8c-22.069-20.726-33.094-45.743-33.075-75.05
			c-0.02-29.307,11.005-54.307,33.075-75c21.852-20.562,48.244-30.854,79.175-30.875c30.921,0.021,57.322,10.313,79.2,30.875
			c22.034,20.693,33.043,45.693,33.025,75C112.267,29.357,101.259,54.374,79.225,75.1z"/>
		<path fill-rule="evenodd" clip-rule="evenodd" fill-opacity="0.498" d="M80.5,76.4v0.025
			C58.266,97.28,31.441,107.721,0.025,107.75c-31.426-0.028-58.243-10.47-80.45-31.325c-22.45-21.09-33.658-46.549-33.625-76.375
			c-0.034-29.834,11.174-55.284,33.625-76.35v0.025c22.207-20.889,49.023-31.347,80.45-31.375C31.442-107.63,58.267-97.18,80.5-76.3
			c22.406,21.065,33.589,46.516,33.55,76.35C114.089,29.867,102.905,55.317,80.5,76.4z M81.125,77.1
			c22.604-21.278,33.887-46.961,33.85-77.05c0.03-30.081-11.262-55.739-33.875-76.975C58.702-97.976,31.677-108.518,0.025-108.55
			c-31.67,0.04-58.695,10.59-81.075,31.65v-0.025c-22.641,21.235-33.941,46.894-33.9,76.975c-0.04,30.089,11.26,55.773,33.9,77.05
			c22.38,21.001,49.405,31.509,81.075,31.525C31.676,108.609,58.702,98.101,81.1,77.1H81.125z"/>
		<path fill-rule="evenodd" clip-rule="evenodd" fill-opacity="0.4471" d="M81.725,77.75c22.802-21.456,34.185-47.356,34.15-77.7
			c0.037-30.353-11.347-56.244-34.15-77.675c-22.571-21.198-49.805-31.806-81.7-31.825c-31.906,0.019-59.131,10.627-81.675,31.825
			h0.025c-22.848,21.43-34.256,47.322-34.225,77.675c-0.039,30.344,11.361,56.244,34.2,77.7c22.544,21.173,49.77,31.772,81.675,31.8
			c31.887-0.028,59.112-10.628,81.675-31.8H81.725z M81.125,77.1H81.1c-22.398,21-49.424,31.509-81.075,31.525
			C-31.645,108.609-58.67,98.101-81.05,77.1c-22.64-21.277-33.94-46.961-33.9-77.05c-0.041-30.081,11.26-55.739,33.9-76.975v0.025
			c22.379-21.06,49.404-31.61,81.075-31.65c31.652,0.032,58.677,10.574,81.075,31.625c22.613,21.236,33.905,46.894,33.875,76.975
			C115.012,30.139,103.729,55.822,81.125,77.1z"/>
		<path fill-rule="evenodd" clip-rule="evenodd" fill-opacity="0.2941" d="M83.6,79.725c23.389-22,35.064-48.558,35.025-79.675
			c0.041-31.118-11.634-57.66-35.025-79.625C60.51-101.278,32.651-112.153,0.025-112.2c-32.633,0.045-60.483,10.912-83.55,32.6
			l-0.025,0.025c-23.412,21.967-35.095,48.509-35.05,79.625c-0.051,31.118,11.633,57.676,35.05,79.675
			c23.072,21.661,50.93,32.511,83.575,32.55c32.617-0.032,60.467-10.874,83.55-32.525L83.6,79.725z M83,79.075h-0.05
			c-22.91,21.497-50.551,32.264-82.925,32.3c-32.393-0.035-60.034-10.802-82.925-32.3c-23.228-21.82-34.819-48.162-34.775-79.025
			c-0.046-30.863,11.546-57.188,34.775-78.975h-0.025c22.898-21.533,50.549-32.316,82.95-32.35
			c32.375,0.035,60.016,10.818,82.925,32.35c23.192,21.787,34.767,48.112,34.725,78.975C117.732,30.913,106.174,57.254,83,79.075z"
			/>
		<path fill-rule="evenodd" clip-rule="evenodd" fill-opacity="0.3412" d="M83,79.075c23.174-21.821,34.732-48.163,34.675-79.025
			c0.042-30.863-11.533-57.188-34.725-78.975c-22.909-21.532-50.551-32.315-82.925-32.35c-32.401,0.034-60.051,10.817-82.95,32.35
			h0.025c-23.229,21.786-34.821,48.111-34.775,78.975c-0.044,30.863,11.547,57.205,34.775,79.025
			c22.891,21.498,50.532,32.265,82.925,32.3c32.374-0.036,60.016-10.803,82.925-32.3H83z M116.775,0.05
			c0.034,30.599-11.45,56.716-34.45,78.35c-22.736,21.343-50.17,32.035-82.3,32.075C-32.132,110.435-59.574,99.744-82.3,78.4
			c-23.037-21.634-34.537-47.75-34.5-78.35c-0.038-30.6,11.462-56.7,34.5-78.3c22.725-21.378,50.167-32.086,82.325-32.125
			c32.131,0.04,59.564,10.748,82.3,32.125C105.327-56.65,116.81-30.55,116.775,0.05z"/>
		<path fill-rule="evenodd" clip-rule="evenodd" fill-opacity="0.3961" d="M81.725,77.75H81.7
			c-22.563,21.172-49.789,31.772-81.675,31.8c-31.905-0.027-59.13-10.627-81.675-31.8c-22.839-21.456-34.239-47.356-34.2-77.7
			c-0.031-30.353,11.377-56.245,34.225-77.675h-0.025c22.544-21.198,49.769-31.807,81.675-31.825
			c31.896,0.02,59.129,10.627,81.7,31.825c22.803,21.431,34.187,47.322,34.15,77.675C115.91,30.394,104.527,56.294,81.725,77.75z
			 M116.775,0.05c0.035-30.6-11.448-56.7-34.45-78.3c-22.736-21.377-50.169-32.085-82.3-32.125
			c-32.158,0.039-59.6,10.747-82.325,32.125c-23.038,21.6-34.538,47.7-34.5,78.3c-0.037,30.6,11.463,56.716,34.5,78.35
			c22.726,21.344,50.167,32.035,82.325,32.075c32.13-0.041,59.564-10.732,82.3-32.075C105.325,56.766,116.809,30.649,116.775,0.05z"
			/>
		<path fill-rule="evenodd" clip-rule="evenodd" fill-opacity="0.1412" d="M85.45,81.7c23.967-22.543,35.925-49.76,35.875-81.65
			c0.052-31.9-11.906-59.109-35.875-81.625c-23.602-22.184-52.077-33.301-85.425-33.35c-33.368,0.048-61.842,11.165-85.425,33.35
			c-24.007,22.516-35.982,49.724-35.925,81.625c-0.055,31.9,11.92,59.125,35.925,81.675C-61.817,103.867-33.342,114.958,0.025,115
			c33.348-0.043,61.823-11.135,85.425-33.275V81.7z M84.825,81.05L84.8,81.075c-23.421,21.985-51.679,33.002-84.775,33.05
			c-33.115-0.046-61.374-11.063-84.775-33.05c-23.807-22.372-35.682-49.38-35.625-81.025c-0.051-31.626,11.824-58.602,35.625-80.925
			l0.025-0.05c23.396-21.999,51.646-33.015,84.75-33.05c33.105,0.03,61.372,11.046,84.8,33.05
			c23.771,22.338,35.629,49.33,35.575,80.975C120.452,31.686,108.594,58.686,84.825,81.05z"/>
		<path fill-rule="evenodd" clip-rule="evenodd" fill-opacity="0.1961" d="M84.225,80.375l-0.025,0.05
			c-23.256,21.806-51.314,32.723-84.175,32.75c-32.88-0.042-60.938-10.976-84.175-32.8c-23.617-22.177-35.4-48.952-35.35-80.325
			c-0.043-31.379,11.74-58.146,35.35-80.3v-0.025c23.24-21.835,51.298-32.769,84.175-32.8C32.886-113.041,60.945-102.1,84.2-80.25
			c23.589,22.152,35.364,48.918,35.325,80.3C119.57,31.422,107.804,58.197,84.225,80.375z M84.825,81.05
			c23.769-22.364,35.627-49.364,35.575-81c0.054-31.645-11.804-58.637-35.575-80.975c-23.429-22.004-51.695-33.021-84.8-33.05
			c-33.104,0.035-61.354,11.052-84.75,33.05l-0.025,0.05c-23.801,22.323-35.676,49.298-35.625,80.925
			c-0.057,31.645,11.818,58.653,35.625,81.025c23.401,21.987,51.66,33.003,84.775,33.05c33.096-0.048,61.354-11.064,84.775-33.05
			L84.825,81.05z"/>
		<path fill-rule="evenodd" clip-rule="evenodd" fill-opacity="0.2471" d="M84.225,80.375c23.579-22.178,35.345-48.953,35.3-80.325
			c0.039-31.381-11.736-58.148-35.325-80.3c-23.255-21.85-51.314-32.791-84.175-32.825c-32.877,0.032-60.935,10.965-84.175,32.8
			v0.025c-23.61,22.154-35.394,48.92-35.35,80.3c-0.05,31.373,11.733,58.148,35.35,80.325c23.237,21.824,51.295,32.757,84.175,32.8
			c32.861-0.027,60.919-10.944,84.175-32.75L84.225,80.375z M83.6,79.725l-0.025,0.025c-23.083,21.651-50.933,32.493-83.55,32.525
			c-32.645-0.039-60.503-10.889-83.575-32.55c-23.417-21.999-35.101-48.557-35.05-79.675c-0.045-31.116,11.639-57.658,35.05-79.625
			l0.025-0.025c23.067-21.688,50.917-32.555,83.55-32.6c32.626,0.047,60.485,10.922,83.575,32.625
			c23.391,21.965,35.065,48.507,35.025,79.625C118.664,31.167,106.989,57.726,83.6,79.725z"/>
		<path fill-rule="evenodd" clip-rule="evenodd" fill-opacity="0.0431" d="M86.1,82.4h-0.025
			c-23.776,22.303-52.459,33.478-86.05,33.525C-33.578,115.879-62.252,104.704-86,82.4c-24.204-22.737-36.279-50.187-36.225-82.35
			C-122.281-32.106-110.206-59.532-86-82.225h-0.025c23.755-22.348,52.438-33.548,86.05-33.6c33.592,0.053,62.275,11.253,86.05,33.6
			c24.16,22.694,36.209,50.119,36.15,82.275C122.291,32.212,110.249,59.663,86.1,82.4z M123.15,0.05
			C123.208-32.37,111.058-60.02,86.7-82.9c-23.948-22.501-52.84-33.776-86.675-33.825c-33.843,0.046-62.727,11.313-86.65,33.8
			L-86.65-82.9c-24.389,22.883-36.556,50.533-36.5,82.95c-0.061,32.418,12.106,60.085,36.5,83
			c23.929,22.467,52.821,33.726,86.675,33.775c33.834-0.051,62.726-11.31,86.675-33.775C111.056,60.134,123.206,32.467,123.15,0.05z
			"/>
		<path fill-rule="evenodd" clip-rule="evenodd" fill-opacity="0.0902" d="M85.45,81.7v0.025
			C61.848,103.865,33.373,114.957,0.025,115c-33.367-0.042-61.842-11.133-85.425-33.275c-24.005-22.55-35.98-49.775-35.925-81.675
			c-0.057-31.901,11.918-59.109,35.925-81.625c23.583-22.185,52.057-33.302,85.425-33.35c33.348,0.049,61.823,11.166,85.425,33.35
			c23.969,22.516,35.927,49.725,35.875,81.625C121.375,31.94,109.417,59.157,85.45,81.7z M86.1,82.4
			c24.149-22.737,36.19-50.188,36.125-82.35c0.06-32.156-11.99-59.581-36.15-82.275c-23.775-22.347-52.458-33.547-86.05-33.6
			c-33.611,0.052-62.294,11.252-86.05,33.6H-86c-24.206,22.693-36.281,50.119-36.225,82.275C-122.279,32.213-110.204,59.663-86,82.4
			c23.748,22.304,52.422,33.479,86.025,33.525c33.591-0.047,62.274-11.222,86.05-33.525H86.1z"/>
		<path fill-rule="evenodd" clip-rule="evenodd" fill-opacity="0.6471" d="M78.625,74.45C56.911,94.808,30.711,104.991,0.025,105
			c-30.695-0.008-56.887-10.192-78.575-30.55c-21.862-20.548-32.779-45.348-32.75-74.4c-0.029-29.043,10.887-53.818,32.75-74.325
			C-56.862-94.674-30.67-104.883,0.025-104.9c30.687,0.018,56.887,10.226,78.6,30.625C100.461-53.768,111.37-28.993,111.35,0.05
			C111.369,29.102,100.46,53.902,78.625,74.45z M79.225,75.1c22.034-20.726,33.042-45.743,33.025-75.05
			c0.018-29.307-10.991-54.307-33.025-75c-21.878-20.562-48.279-30.854-79.2-30.875c-30.931,0.021-57.323,10.312-79.175,30.875
			c-22.07,20.693-33.095,45.693-33.075,75c-0.019,29.308,11.006,54.324,33.075,75.05c21.852,20.521,48.244,30.788,79.175,30.8
			C30.946,105.887,57.347,95.621,79.225,75.1z"/>
		<path fill-rule="evenodd" clip-rule="evenodd" fill-opacity="0.6941" d="M77.975,73.775c-21.533,20.212-47.516,30.329-77.95,30.35
			c-30.452-0.021-56.435-10.138-77.95-30.35c-21.68-20.361-32.514-44.936-32.5-73.725c-0.014-28.797,10.819-53.363,32.5-73.7
			C-56.41-93.878-30.427-103.995,0.025-104c30.435,0.006,56.418,10.123,77.95,30.35c21.637,20.337,32.446,44.903,32.425,73.7
			C110.42,28.839,99.612,53.414,77.975,73.775z M78.625,74.45c21.835-20.548,32.744-45.348,32.725-74.4
			c0.02-29.043-10.889-53.818-32.725-74.325c-21.713-20.399-47.913-30.607-78.6-30.625c-30.695,0.017-56.887,10.226-78.575,30.625
			c-21.863,20.506-32.779,45.281-32.75,74.325c-0.029,29.052,10.888,53.852,32.75,74.4C-56.862,94.808-30.67,104.992,0.025,105
			C30.711,104.991,56.911,94.808,78.625,74.45z"/>
		<path fill-rule="evenodd" clip-rule="evenodd" fill-opacity="0.7451" d="M77.4,73.15C56.024,93.182,30.232,103.199,0.025,103.2
			c-30.217-0.001-56-10.018-77.35-30.05c-21.481-20.191-32.214-44.558-32.2-73.1c-0.015-28.524,10.719-52.858,32.2-73
			c21.35-20.09,47.134-30.148,77.35-30.175c30.208,0.027,56,10.085,77.375,30.175c21.439,20.142,32.147,44.476,32.125,73
			C109.547,28.592,98.839,52.959,77.4,73.15z M77.975,73.775C99.612,53.414,110.42,28.839,110.4,0.05
			c0.021-28.796-10.788-53.363-32.425-73.7C56.443-93.877,30.46-103.994,0.025-104c-30.452,0.005-56.435,10.122-77.95,30.35
			c-21.681,20.336-32.514,44.903-32.5,73.7c-0.014,28.789,10.82,53.364,32.5,73.725c21.515,20.212,47.498,30.329,77.95,30.35
			C30.459,104.104,56.442,93.987,77.975,73.775z"/>
		<path fill-rule="evenodd" clip-rule="evenodd" fill-opacity="0.9451" d="M74.875,70.45C54.2,89.856,29.25,99.564,0.025,99.575
			c-29.243-0.011-54.192-9.72-74.85-29.125c-20.704-19.445-31.053-42.912-31.05-70.4c-0.003-27.496,10.347-50.954,31.05-70.375
			c20.658-19.429,45.608-29.146,74.85-29.15c29.226,0.004,54.176,9.721,74.85,29.15c20.67,19.421,31.003,42.88,31,70.375
			C105.878,27.539,95.545,51.005,74.875,70.45z M75.5,71.1c20.868-19.623,31.302-43.307,31.3-71.05
			c0.002-27.742-10.431-51.409-31.3-71c-20.847-19.6-46.006-29.409-75.475-29.425c-29.477,0.016-54.627,9.824-75.45,29.425
			c-20.902,19.591-31.352,43.258-31.35,71c-0.002,27.744,10.448,51.427,31.35,71.05c20.822,19.569,45.972,29.36,75.45,29.375
			C29.494,100.46,54.652,90.669,75.5,71.1z"/>
		<path fill-rule="evenodd" clip-rule="evenodd" d="M74.875,70.45c20.67-19.445,31.003-42.912,31-70.4
			c0.003-27.495-10.33-50.954-31-70.375C54.201-89.754,29.25-99.471,0.025-99.475c-29.242,0.004-54.192,9.721-74.85,29.15
			c-20.703,19.421-31.053,42.879-31.05,70.375c-0.003,27.489,10.346,50.956,31.05,70.4c20.658,19.405,45.607,29.114,74.85,29.125
			C29.25,99.564,54.2,89.856,74.875,70.45z"/>
	</g>
</symbol>
<g id="down">
	
		<use xlink:href="#classic_buttons_x2F_button_assets_x2F_shadow"  width="246.3" height="233.55" x="-123.15" y="-116.725" transform="matrix(-1.1395 0 0 1.1395 143 133.9429)" overflow="visible" opacity="0.6211"/>
	<path fill-rule="evenodd" clip-rule="evenodd" fill="#D40000" d="M160.111,2.644c26.698,4.106,50.114,15.638,70.248,34.595
		c25.72,24.126,38.58,53.268,38.583,87.422c-0.003,34.135-12.863,63.277-38.583,87.423c-20.134,18.92-43.55,30.424-70.248,34.514
		c-7.349,1.129-14.945,1.699-22.792,1.709c-36.357-0.014-67.397-12.088-93.12-36.223c-7.196-6.77-13.383-13.932-18.56-21.49
		c-13.294-19.39-19.942-41.368-19.942-65.933c0-24.575,6.648-46.553,19.942-65.933c5.177-7.559,11.363-14.722,18.56-21.489
		c25.723-24.154,56.763-36.228,93.12-36.223C145.166,0.998,152.763,1.541,160.111,2.644z"/>
	<g>
		<linearGradient id="SVGID_1_" gradientUnits="userSpaceOnUse" x1="137.3198" y1="-6.9819" x2="137.3198" y2="256.2686">
			<stop  offset="0.251" style="stop-color:#000000;stop-opacity:0.498"/>
			<stop  offset="1" style="stop-color:#000000;stop-opacity:0"/>
		</linearGradient>
		<path fill-rule="evenodd" clip-rule="evenodd" fill="url(#SVGID_1_)" d="M160.111,19.25c-7.55-1.917-15.499-2.866-23.85-2.849
			c-25.614,0.003-47.484,9.066-65.607,27.188c-18.078,18.082-27.113,39.924-27.106,65.526c-0.007,25.615,9.028,47.484,27.106,65.608
			c18.123,18.08,39.993,27.116,65.607,27.106c8.351-0.01,16.3-0.986,23.85-2.931c15.599-3.949,29.49-12.008,41.677-24.175
			c18.092-18.124,27.128-39.993,27.105-65.608c0.022-25.602-9.014-47.444-27.105-65.526C189.602,31.362,175.71,23.25,160.111,19.25z
			 M160.111,2.644c26.698,4.106,50.114,15.638,70.248,34.595c25.72,24.126,38.58,53.268,38.583,87.422
			c-0.003,34.135-12.863,63.277-38.583,87.423c-20.134,18.92-43.55,30.424-70.248,34.514c-7.349,1.129-14.945,1.699-22.792,1.709
			c-36.357-0.014-67.397-12.088-93.12-36.223c-7.196-6.77-13.383-13.932-18.56-21.49c-13.294-19.39-19.942-41.368-19.942-65.933
			c0-24.575,6.648-46.553,19.942-65.933c5.177-7.559,11.363-14.722,18.56-21.489c25.723-24.154,56.763-36.228,93.12-36.223
			C145.166,0.998,152.763,1.541,160.111,2.644z"/>
		
			<radialGradient id="SVGID_2_" cx="136.2207" cy="109.1143" r="112.7694" gradientTransform="matrix(-1 0 0 -0.9415 272.4414 211.8456)" gradientUnits="userSpaceOnUse">
			<stop  offset="0.6706" style="stop-color:#000000;stop-opacity:0"/>
			<stop  offset="1" style="stop-color:#000000;stop-opacity:0.349"/>
			<stop  offset="1" style="stop-color:#000000;stop-opacity:0.498"/>
		</radialGradient>
		<path fill-rule="evenodd" clip-rule="evenodd" fill="url(#SVGID_2_)" d="M160.111,19.25c15.599,4,29.49,12.113,41.677,24.338
			c18.092,18.082,27.128,39.924,27.105,65.526c0.022,25.615-9.014,47.484-27.105,65.608c-12.187,12.167-26.078,20.226-41.677,24.175
			c-7.55,1.945-15.499,2.921-23.85,2.931c-25.614,0.01-47.484-9.026-65.607-27.106c-18.078-18.124-27.113-39.993-27.106-65.608
			c-0.007-25.602,9.028-47.444,27.106-65.526c18.123-18.122,39.993-27.184,65.607-27.188
			C144.612,16.383,152.562,17.333,160.111,19.25z M160.111,24.459c-7.528-1.9-15.479-2.85-23.85-2.849
			c-24.405,0.01-45.243,8.123-62.515,24.338c-17.214,16.172-25.814,35.708-25.804,58.607c-0.011,22.914,8.59,42.476,25.804,58.689
			c17.271,16.176,38.109,24.262,62.515,24.257c8.371,0,16.321-0.949,23.85-2.849c14.405-3.65,27.267-10.786,38.584-21.408
			c17.254-16.213,25.882-35.775,25.885-58.689c-0.001-17.938-5.292-33.811-15.873-47.619c-2.867-3.729-6.123-7.311-9.768-10.745
			c-0.082-0.078-0.163-0.159-0.244-0.244C187.378,35.294,174.517,28.131,160.111,24.459z"/>
		<linearGradient id="SVGID_3_" gradientUnits="userSpaceOnUse" x1="136.2617" y1="192.9556" x2="136.2617" y2="16.33">
			<stop  offset="0" style="stop-color:#000000;stop-opacity:0.349"/>
			<stop  offset="1" style="stop-color:#000000;stop-opacity:0"/>
			<stop  offset="1" style="stop-color:#000000;stop-opacity:0"/>
		</linearGradient>
		<path fill-rule="evenodd" clip-rule="evenodd" fill="url(#SVGID_3_)" d="M160.111,24.459
			c14.405,3.672,27.267,10.835,38.584,21.489c0.081,0.085,0.162,0.167,0.244,0.244c3.645,3.434,6.9,7.016,9.768,10.745
			c10.581,13.808,15.872,29.681,15.873,47.619c-0.003,22.914-8.631,42.476-25.885,58.689
			c-11.317,10.622-24.179,17.758-38.584,21.408c-7.528,1.899-15.479,2.849-23.85,2.849c-24.405,0.005-45.243-8.081-62.515-24.257
			c-17.214-16.213-25.814-35.775-25.804-58.689c-0.011-22.899,8.59-42.435,25.804-58.607c17.271-16.216,38.109-24.329,62.515-24.338
			C144.633,21.609,152.583,22.559,160.111,24.459z"/>
	</g>
	<path fill-rule="evenodd" clip-rule="evenodd" fill-opacity="0.251" d="M206.103,36.18c0.219-0.244,0.49-0.379,0.813-0.407
		c0.31-0.032,0.581,0.049,0.814,0.244c1.275,1.093,2.551,2.206,3.825,3.337v0.082c1.341,1.256,2.644,2.531,3.907,3.826
		c18.031,18.685,27.066,40.907,27.106,66.666c-0.035,27.515-10.373,51.012-31.014,70.491c-14.858,13.993-31.925,22.973-51.2,26.944
		c-7.569,1.525-15.466,2.285-23.687,2.279c-29.254-0.051-54.189-9.792-74.807-29.223c-20.697-19.479-31.035-42.977-31.013-70.491
		c0.003-27.539,10.395-51.063,31.176-70.573v-0.082c0.136-0.136,0.271-0.271,0.407-0.407v-0.082
		c0.353-0.299,0.705-0.597,1.059-0.896c0.232-0.195,0.504-0.277,0.813-0.244c0.323,0,0.595,0.108,0.814,0.326
		c0.222,0.233,0.331,0.504,0.325,0.814c-0.027,0.323-0.163,0.594-0.407,0.814c-0.353,0.298-0.706,0.597-1.058,0.896h0.081
		c-0.163,0.136-0.325,0.271-0.488,0.407v0.082c-20.299,19.06-30.447,42.042-30.443,68.945c-0.02,26.876,10.073,49.83,30.28,68.863
		c20.19,19.015,44.61,28.539,73.26,28.572c8.053-0.008,15.785-0.768,23.198-2.279c18.874-3.861,35.588-12.626,50.143-26.292
		c20.15-19.033,30.244-41.987,30.28-68.863c-0.037-25.132-8.854-46.812-26.455-65.038c-1.237-1.294-2.513-2.569-3.825-3.826
		c-1.248-1.132-2.496-2.244-3.745-3.337c-0.243-0.192-0.379-0.437-0.406-0.732C205.825,36.685,205.906,36.414,206.103,36.18z"/>
	
		<use xlink:href="#classic_buttons_x2F_button_assets_x2F_hazy_ring_2"  width="205.974" height="194.977" x="-103.004" y="-97.505" transform="matrix(-1.1395 0 0 1.1395 136.5 112.1431)" overflow="visible" opacity="0.5898"/>
	<g>
		<path fill-rule="evenodd" clip-rule="evenodd" fill="#FFFFFF" fill-opacity="0.298" d="M174.927,41.227
			c0.323,1.739-0.057,3.828-1.14,6.268c-0.63,1.365-1.525,2.45-2.687,3.256c-2.622,0.741-6.285-0.344-10.989-3.256
			c-1.084-0.688-2.224-1.475-3.418-2.36c-6.393-4.623-13.854-7.526-22.386-8.71c-8.506-1.202-20.688,1.403-36.548,7.814
			c-0.003-1.203,0.975-2.722,2.931-4.558c1.96-1.824,6.03-3.995,12.21-6.512c6.162-2.513,9.825-3.707,10.988-3.582
			c2.774-0.447,6.03-0.664,9.769-0.651c9.605-0.016,17.447,0.609,23.524,1.872c0.986,0.302,1.963,0.628,2.93,0.977
			c2.993,1.047,5.896,2.323,8.71,3.826C172.565,37.609,174.601,39.481,174.927,41.227z M255.023,109.603
			c13.733,13.395,12.893,36.106-2.523,68.131c8.854-37.069,9.017-55.14,0.488-54.212c-2.766,12.888-8.518,26.155-17.257,39.804
			c7.125-18.715,11.005-36.161,11.641-52.339c1.226-32.564-10.686-59.996-35.734-82.294c30.192,25.004,44.6,52.002,43.223,80.992
			L255.023,109.603z M98.574,224.375c-19.025-5.293-17.425-0.328,4.802,14.896c-10.239-3.154-19.274-7.25-27.105-12.291
			c-7.909-5.066-13.011-10.113-15.303-15.141C59.957,209.691,72.492,213.869,98.574,224.375z M25.64,178.629
			c-0.316-1.115-0.533-2.201-0.65-3.257c-0.033-0.369,0.184-0.505,0.65-0.406c2.559,0.664,12.923,8.75,31.095,24.257
			c-16.369-11.087-16.423-5.877-0.162,15.628c-8.743-6.244-16.042-13-21.896-20.268C29.932,188.676,26.92,183.358,25.64,178.629z"/>
		<path fill-rule="evenodd" clip-rule="evenodd" fill="#FFFFFF" fill-opacity="0.2" d="M210.823,103.579
			c-0.003-0.331-0.003-0.656,0-0.977c0.279-21.516-3.98-35.462-12.779-41.839c9.785,3.119,15.674,17.554,17.663,43.304
			c0.003,0.079,0.003,0.161,0,0.244l0.407,0.407c-1.796,37.517-19.567,60.471-53.316,68.864
			c23.741-20.299,32.098-37.393,25.071-51.282c-5.021-8.77-14.272-11.049-27.758-6.837h-0.162c0.058,0.027,0.111,0.055,0.162,0.081
			c0.332,0.179,0.332,0.341,0,0.488c-1.146,0.544-6.139,0.924-14.978,1.14c-6.733,7.422-12.052,7.992-15.954,1.709
			c-10.149-4.315-10.719-3.555-1.709,2.279c-9.323,5.33-21.126,4.977-35.409-1.058c-14.295-6.033-20.509-3.781-18.64,6.756
			c-0.367,16.341,9.672,32.295,30.117,47.863c-30.158-13.116-45.896-36.857-47.212-71.225h0.082
			c2.043-25.394,7.931-39.639,17.663-42.734c-8.826,6.377-13.113,20.323-12.86,41.839l-0.488,1.547
			c-0.197,0.064-0.387,0.118-0.57,0.163c32.465,6.6,65.784,8.662,99.958,6.186c16.117-1.161,32.424-3.331,48.921-6.512
			C209.631,103.854,210.229,103.718,210.823,103.579z"/>
		<path fill-rule="evenodd" clip-rule="evenodd" fill="#FFFFFF" fill-opacity="0.498" d="M182.171,237.074
			c-3.403,1.141-6.822,2.145-10.256,3.012l15.954-5.047C186.007,235.736,184.107,236.414,182.171,237.074z M160.111,242.527
			c-3.241,0.529-6.497,0.936-9.768,1.221c-11.426,0.723-22.604,0.152-33.536-1.709c-0.248-0.051-0.493-0.105-0.733-0.162
			c2.611-0.355,0.63-2.064-5.941-5.129c-6.575-3.074-4.73-4.484,5.535-4.232c10.229,0.252,19.862,0.551,28.896,0.895
			c2.163,0.09,4.145,0.145,5.942,0.164c0.386,0.664,0.874,1.287,1.465,1.871c1.755,1.742,3.872,2.609,6.35,2.605
			c0.617,0.002,1.214-0.053,1.79-0.164c1.741-0.314,3.287-1.129,4.641-2.441c1.207-1.223,1.994-2.605,2.36-4.15
			c1.995-0.559,4.355-1.182,7.081-1.873c5.628-1.385,11.028-3.094,16.199-5.129c5.164-2.047,9.343-4.867,12.535-8.465h0.081
			c0.07,2.975-0.635,5.416-2.116,7.326c-1.434,1.889-2.601,3.246-3.5,4.07c-0.925,0.846-2.092,1.795-3.5,2.848
			c-1.421,1.051-3.076,2.189-4.966,3.42c-1.875,1.219-7.546,3.416-17.012,6.594C168.001,241.082,164.066,241.896,160.111,242.527z"
			/>
		<path fill-rule="evenodd" clip-rule="evenodd" fill="#FFFFFF" fill-opacity="0.6" d="M160.111,192.06
			c-24.219,9.692-46.44,7.087-66.666-7.814c20.869,9.833,43.091,11.542,66.666,5.128c5.463-1.459,10.998-3.358,16.605-5.698
			C171.081,187.09,165.546,189.885,160.111,192.06z"/>
		<path fill-rule="evenodd" clip-rule="evenodd" fill="#FFFFFF" fill-opacity="0.349" d="M25.64,84.45
			c2.814-9.096,7.21-18.159,13.188-27.188c-13.832,29.265-16.6,58.786-8.303,88.562c-1.967-4.242-3.595-8.476-4.885-12.698
			C20.659,116.804,20.659,100.579,25.64,84.45z"/>
		<path fill-rule="evenodd" clip-rule="evenodd" fill="#FFFFFF" fill-opacity="0.251" d="M64.549,166.256
			c-15.581-9.957-22.093-25.396-19.536-46.316C46.317,135.467,52.829,150.906,64.549,166.256z"/>
	</g>
	
		<use xlink:href="#classic_buttons_x2F_button_assets_x2F_haze"  width="51.16" height="50.843" x="-25.594" y="-25.409" transform="matrix(-1.1395 0 0 1.1395 219.7002 188.9429)" overflow="visible" opacity="0.75"/>
	
		<use xlink:href="#classic_buttons_x2F_button_assets_x2F_haze"  width="51.16" height="50.843" x="-25.594" y="-25.409" transform="matrix(-1.1358 0.024 0.024 1.1358 202.9502 158.3433)" overflow="visible" opacity="0.75"/>
	
		<use xlink:href="#classic_buttons_x2F_button_assets_x2F_haze"  width="51.16" height="50.843" x="-25.594" y="-25.409" transform="matrix(-0.235 -1.3251 -1.7837 0.1746 81.7998 210.6426)" overflow="visible"/>
	<g>
		<g>
			<path fill-rule="evenodd" clip-rule="evenodd" fill="#FFFFFF" fill-opacity="0.0314" d="M20.268,181.966
				c-0.108-0.217-0.217-0.38-0.325-0.488c1.085-0.543,1.845-1.356,2.279-2.442c0.542-1.085,0.597-2.17,0.162-3.256
				c-10.636-29.846-12.101-60.181-4.396-91.004c0.326-1.194,0.163-2.333-0.488-3.419c-0.543-0.977-1.356-1.682-2.441-2.116
				c-0.218,0-0.435-0.054-0.651-0.163c0.108-0.108,0.217-0.271,0.325-0.488c0.108,0.108,0.271,0.163,0.488,0.163
				c1.194,0.434,2.116,1.248,2.768,2.442s0.814,2.442,0.488,3.744c-7.705,30.715-6.24,60.886,4.396,90.516
				c0.543,1.302,0.543,2.604,0,3.907C22.33,180.555,21.462,181.423,20.268,181.966z"/>
			<path fill-rule="evenodd" clip-rule="evenodd" fill="#FFFFFF" fill-opacity="0.0118" d="M14.732,78.589
				c0.108-0.217,0.163-0.38,0.163-0.488c0.217,0,0.38,0.054,0.488,0.163c1.411,0.434,2.442,1.302,3.093,2.605
				c0.76,1.302,0.978,2.659,0.651,4.07c-7.706,30.715-6.24,60.833,4.396,90.353c0.435,1.411,0.38,2.822-0.162,4.232
				c-0.543,1.303-1.466,2.279-2.768,2.931c-0.109-0.217-0.218-0.38-0.326-0.488c1.194-0.543,2.062-1.411,2.604-2.604
				c0.543-1.303,0.543-2.605,0-3.907c-10.636-29.63-12.101-59.801-4.396-90.516c0.326-1.302,0.163-2.55-0.488-3.744
				s-1.573-2.008-2.768-2.442C15.004,78.752,14.841,78.698,14.732,78.589z"/>
			<path fill-rule="evenodd" clip-rule="evenodd" fill="#FFFFFF" fill-opacity="0.051" d="M19.942,181.478
				c0-0.217-0.055-0.38-0.163-0.488c0.977-0.435,1.628-1.14,1.954-2.116c0.434-0.978,0.488-1.954,0.162-2.931
				c-10.744-29.955-12.21-60.398-4.396-91.33c0.217-0.977,0.055-1.954-0.488-2.93c-0.435-0.868-1.14-1.465-2.116-1.791
				c-0.217-0.108-0.435-0.163-0.651-0.163c0.108-0.217,0.163-0.434,0.163-0.651c0.217,0.109,0.434,0.163,0.651,0.163
				c1.085,0.434,1.898,1.139,2.441,2.116c0.651,1.085,0.814,2.225,0.488,3.419c-7.705,30.823-6.24,61.158,4.396,91.004
				c0.435,1.086,0.38,2.171-0.162,3.256C21.787,180.122,21.027,180.935,19.942,181.478z"/>
			<path fill-rule="evenodd" clip-rule="evenodd" fill="#FFFFFF" fill-opacity="0.0706" d="M19.779,180.99
				c-0.108-0.217-0.217-0.38-0.325-0.488v-0.163c0.868-0.325,1.465-0.923,1.79-1.791c0.326-0.76,0.326-1.573,0-2.441
				C10.5,146.042,9.034,115.49,16.849,84.45c0.218-0.868,0.108-1.682-0.325-2.442c-0.435-0.869-1.031-1.411-1.791-1.628
				c-0.325-0.109-0.542-0.163-0.651-0.163c0-0.108,0.055-0.271,0.163-0.488c0.217,0,0.435,0.054,0.651,0.163
				c0.977,0.326,1.682,0.923,2.116,1.791c0.543,0.977,0.705,1.954,0.488,2.93c-7.814,30.932-6.349,61.375,4.396,91.33
				c0.326,0.977,0.271,1.953-0.162,2.931C21.407,179.85,20.756,180.555,19.779,180.99z"/>
			<path fill-rule="evenodd" clip-rule="evenodd" fill="#FFFFFF" fill-opacity="0.0902" d="M19.454,180.501
				c-0.109-0.218-0.218-0.435-0.326-0.651h0.163c0.651-0.326,1.14-0.814,1.465-1.466c0.326-0.65,0.326-1.356,0-2.116
				c-10.744-30.172-12.21-60.832-4.396-91.98c0.108-0.651,0-1.303-0.325-1.954c-0.326-0.651-0.868-1.139-1.628-1.465
				c-0.218,0-0.435-0.054-0.651-0.163c0.108-0.108,0.217-0.271,0.325-0.488c0.109,0,0.326,0.054,0.651,0.163
				c0.76,0.217,1.356,0.759,1.791,1.628c0.434,0.76,0.543,1.574,0.325,2.442c-7.814,31.04-6.349,61.592,4.396,91.656
				c0.326,0.868,0.326,1.682,0,2.441c-0.325,0.868-0.922,1.466-1.79,1.791V180.501z"/>
			<path fill-rule="evenodd" clip-rule="evenodd" fill="#FFFFFF" fill-opacity="0.1098" d="M13.593,81.357
				c0.108-0.217,0.163-0.434,0.163-0.651c0.217,0.109,0.434,0.163,0.651,0.163c0.76,0.326,1.302,0.814,1.628,1.465
				c0.325,0.651,0.434,1.303,0.325,1.954c-7.814,31.148-6.349,61.809,4.396,91.98c0.326,0.76,0.326,1.466,0,2.116
				c-0.325,0.651-0.813,1.14-1.465,1.466h-0.163c-0.108-0.108-0.162-0.271-0.162-0.488c0.65-0.218,1.085-0.598,1.302-1.14
				c0.217-0.543,0.217-1.14,0-1.791C9.414,146.259,7.949,115.49,15.872,84.125c0.108-0.542,0-1.085-0.325-1.628
				c-0.326-0.542-0.76-0.868-1.303-0.977C14.027,81.411,13.81,81.357,13.593,81.357z"/>
			<path fill-rule="evenodd" clip-rule="evenodd" fill="#FFFFFF" fill-opacity="0.1294" d="M18.966,179.362
				c-0.109-0.108-0.218-0.271-0.326-0.488h0.163c0.434-0.218,0.705-0.543,0.813-0.978c0.218-0.325,0.271-0.705,0.163-1.14
				c-10.854-30.28-12.373-61.158-4.559-92.632l-0.162-1.302c-0.218-0.434-0.543-0.706-0.978-0.814
				c-0.217-0.109-0.488-0.163-0.813-0.163c0.108-0.108,0.217-0.271,0.325-0.488c0.217,0,0.435,0.054,0.651,0.163
				c0.543,0.108,0.977,0.434,1.303,0.977c0.325,0.542,0.434,1.085,0.325,1.628c-7.923,31.366-6.458,62.135,4.396,92.307
				c0.217,0.651,0.217,1.248,0,1.791C20.051,178.764,19.616,179.144,18.966,179.362z"/>
			<path fill-rule="evenodd" clip-rule="evenodd" fill="#FFFFFF" fill-opacity="0.149" d="M13.268,81.845
				c0.325,0,0.597,0.054,0.813,0.163c0.435,0.108,0.76,0.38,0.978,0.814l0.162,1.302c-7.814,31.474-6.295,62.352,4.559,92.632
				c0.108,0.435,0.055,0.814-0.163,1.14c-0.108,0.435-0.38,0.76-0.813,0.978H18.64c-0.108-0.109-0.217-0.271-0.325-0.489
				c0.108,0,0.217,0,0.325,0c0.217-0.108,0.38-0.325,0.488-0.65c0.217-0.218,0.271-0.488,0.163-0.814
				C8.329,146.422,6.81,115.436,14.732,83.961c0-0.325-0.054-0.651-0.162-0.977c-0.109-0.217-0.326-0.38-0.651-0.488
				c-0.218,0-0.489,0.054-0.814,0.163C13.213,82.442,13.268,82.171,13.268,81.845z"/>
			<path fill-rule="evenodd" clip-rule="evenodd" fill="#FFFFFF" fill-opacity="0.1882" d="M18.151,177.896
				C9.903,161.725,5.778,143.98,5.778,124.661c0-12.698,1.737-24.637,5.21-35.815c0.651-1.845,1.356-3.636,2.116-5.373
				c0-0.108,0.055-0.217,0.163-0.325c0.217-0.109,0.38-0.163,0.488-0.163c0.108,0.108,0.217,0.217,0.325,0.326
				c0,0.217,0,0.38,0,0.488c-7.923,31.583-6.403,62.677,4.559,93.284c0.108,0.108,0.108,0.271,0,0.488
				c0,0.108-0.108,0.163-0.325,0.163C18.314,177.842,18.26,177.896,18.151,177.896z"/>
			<path fill-rule="evenodd" clip-rule="evenodd" fill="#FFFFFF" fill-opacity="0.1686" d="M10.988,88.846
				c0.651-2.062,1.356-4.125,2.116-6.187c0.325-0.108,0.597-0.163,0.814-0.163c0.325,0.108,0.542,0.271,0.651,0.488
				c0.108,0.326,0.162,0.651,0.162,0.977c-7.923,31.475-6.403,62.461,4.559,92.958c0.108,0.326,0.054,0.597-0.163,0.814
				c-0.108,0.325-0.271,0.542-0.488,0.65c-0.108,0-0.217,0-0.325,0c0-0.108-0.055-0.271-0.163-0.488
				c0.108,0,0.163-0.054,0.163-0.162c0.217,0,0.325-0.055,0.325-0.163c0.108-0.217,0.108-0.38,0-0.488
				c-10.962-30.606-12.481-61.701-4.559-93.284c0-0.108,0-0.271,0-0.488c-0.108-0.108-0.217-0.217-0.325-0.326
				c-0.108,0-0.271,0.054-0.488,0.163c-0.108,0.108-0.163,0.217-0.163,0.325C12.345,85.21,11.64,87,10.988,88.846z"/>
		</g>
	</g>
</g>
<g id="up">
	
		<use xlink:href="#classic_buttons_x2F_button_assets_x2F_shadow"  width="246.3" height="233.55" x="-123.15" y="-116.725" transform="matrix(-1.1395 0 0 1.1395 143 133.9429)" overflow="visible" opacity="0.6211"/>
	<path fill-rule="evenodd" clip-rule="evenodd" fill="#D40000" d="M160.111,2.644c26.698,4.106,50.114,15.638,70.248,34.595
		c25.72,24.126,38.58,53.268,38.583,87.422c-0.003,34.135-12.863,63.277-38.583,87.423c-20.134,18.92-43.55,30.424-70.248,34.514
		c-7.349,1.129-14.945,1.699-22.792,1.709c-36.357-0.014-67.397-12.088-93.12-36.223c-7.196-6.77-13.383-13.932-18.56-21.49
		c-13.294-19.39-19.942-41.368-19.942-65.933c0-24.575,6.648-46.553,19.942-65.933c5.177-7.559,11.363-14.722,18.56-21.489
		c25.723-24.154,56.763-36.228,93.12-36.223C145.166,0.998,152.763,1.541,160.111,2.644z"/>
	<g>
		<linearGradient id="SVGID_4_" gradientUnits="userSpaceOnUse" x1="137.3198" y1="-6.9819" x2="137.3198" y2="256.2686">
			<stop  offset="0.251" style="stop-color:#000000;stop-opacity:0.498"/>
			<stop  offset="1" style="stop-color:#000000;stop-opacity:0"/>
		</linearGradient>
		<path fill-rule="evenodd" clip-rule="evenodd" fill="url(#SVGID_4_)" d="M192.427,26.25c-9.734-7.696-20.506-13.042-32.315-16.035
			c-7.528-1.9-15.479-2.85-23.85-2.849c-22.929-0.017-42.708,7.119-59.34,21.408c-4.08,2.748-8.015,5.814-11.803,9.198l-0.244,0.163
			c-0.191,0.188-0.382,0.378-0.57,0.569l-1.059,0.977c-13.14,17.389-19.705,37.685-19.698,60.886
			c-0.007,27.205,9.028,50.431,27.106,69.678c18.123,19.185,39.993,28.763,65.607,28.734c8.351,0.023,16.3-0.98,23.85-3.012
			c15.599-4.211,29.49-12.785,41.677-25.723c18.092-19.247,27.128-42.473,27.105-69.678c0.016-23.015-6.441-43.175-19.372-60.479
			l3.825,3.012c-1.422-1.179-2.779-2.292-4.07-3.337c-0.738-0.96-1.498-1.91-2.278-2.849c-0.725-0.632-1.458-1.256-2.198-1.872
			l-10.663-7.733c-0.517-0.326-1.032-0.652-1.547-0.977C192.533,26.308,192.479,26.281,192.427,26.25z M160.111,2.644
			c26.698,4.106,50.114,15.638,70.248,34.595c25.72,24.126,38.58,53.268,38.583,87.422c-0.003,34.135-12.863,63.277-38.583,87.423
			c-20.134,18.92-43.55,30.424-70.248,34.514c-7.349,1.129-14.945,1.699-22.792,1.709c-36.357-0.014-67.397-12.088-93.12-36.223
			c-7.196-6.77-13.383-13.932-18.56-21.49c-13.294-19.39-19.942-41.368-19.942-65.933c0-24.575,6.648-46.553,19.942-65.933
			c5.177-7.559,11.363-14.722,18.56-21.489c25.723-24.154,56.763-36.228,93.12-36.223C145.166,0.998,152.763,1.541,160.111,2.644z"
			/>
		<radialGradient id="SVGID_5_" cx="136.2207" cy="100.543" r="112.8136" gradientUnits="userSpaceOnUse">
			<stop  offset="0.6706" style="stop-color:#000000;stop-opacity:0"/>
			<stop  offset="1" style="stop-color:#000000;stop-opacity:0.349"/>
		</radialGradient>
		<path fill-rule="evenodd" clip-rule="evenodd" fill="url(#SVGID_5_)" d="M64.305,38.704c0.273-0.241,0.545-0.485,0.814-0.732
			c3.788-3.384,7.723-6.45,11.803-9.198c16.632-14.289,36.411-21.425,59.34-21.408c8.371-0.001,16.321,0.949,23.85,2.849
			c11.81,2.994,22.581,8.339,32.315,16.035c-9.964-6.05-20.735-10.255-32.315-12.617c-7.479-1.521-15.292-2.281-23.442-2.279
			c-22.479-0.013-42.395,5.793-59.747,17.419c-1.071,0.921-2.129,1.871-3.175,2.849C56.533,47.794,47.933,67.33,47.943,90.229
			c-0.011,22.913,8.59,42.476,25.804,58.689c17.271,16.176,38.109,24.262,62.515,24.257c8.371,0,16.321-0.95,23.85-2.849
			c14.405-3.65,27.267-10.786,38.584-21.408c17.254-16.213,25.882-35.776,25.885-58.689c-0.001-17.938-5.292-33.811-15.873-47.619
			c-2.867-3.729-6.123-7.311-9.768-10.745c-0.082-0.078-0.163-0.159-0.244-0.244l10.826,8.465
			c12.931,17.305,19.388,37.464,19.372,60.479c0.022,27.205-9.014,50.431-27.105,69.678c-12.187,12.938-26.078,21.512-41.677,25.723
			c-7.55,2.031-15.499,3.035-23.85,3.012c-25.614,0.028-47.484-9.55-65.607-28.734c-18.078-19.247-27.113-42.473-27.106-69.678
			c-0.007-23.202,6.559-43.498,19.698-60.886L64.305,38.704z"/>
		<linearGradient id="SVGID_6_" gradientUnits="userSpaceOnUse" x1="136.2617" y1="178.606" x2="136.2617" y2="1.9804">
			<stop  offset="0" style="stop-color:#000000;stop-opacity:0.349"/>
			<stop  offset="1" style="stop-color:#000000;stop-opacity:0"/>
			<stop  offset="1" style="stop-color:#000000"/>
		</linearGradient>
		<path fill-rule="evenodd" clip-rule="evenodd" fill="url(#SVGID_6_)" d="M194.3,27.715l7.569,6.105
			c2.113,1.701,4.582,3.681,7.407,5.942c1.291,1.045,2.648,2.158,4.07,3.337l-3.825-3.012l-10.826-8.465
			c0.081,0.085,0.162,0.167,0.244,0.244c3.645,3.434,6.9,7.016,9.768,10.745c10.581,13.808,15.872,29.681,15.873,47.619
			c-0.003,22.913-8.631,42.476-25.885,58.689c-11.317,10.622-24.179,17.758-38.584,21.408c-7.528,1.898-15.479,2.849-23.85,2.849
			c-24.405,0.005-45.243-8.081-62.515-24.257c-17.214-16.213-25.814-35.776-25.804-58.689c-0.011-22.899,8.59-42.435,25.804-58.607
			c1.046-0.979,2.104-1.928,3.175-2.849c17.353-11.626,37.269-17.433,59.747-17.419c8.15-0.002,15.964,0.758,23.442,2.279
			c11.58,2.361,22.352,6.567,32.315,12.617l0.082,0.082L194.3,27.715z"/>
		<radialGradient id="SVGID_7_" cx="136.1997" cy="100.5435" r="112.8258" gradientUnits="userSpaceOnUse">
			<stop  offset="0.6706" style="stop-color:#CCCCCC;stop-opacity:0.498"/>
			<stop  offset="1" style="stop-color:#666666;stop-opacity:0.498"/>
		</radialGradient>
		<path fill-rule="evenodd" clip-rule="evenodd" fill="url(#SVGID_7_)" d="M194.3,27.715l-1.71-1.384
			c0.515,0.325,1.03,0.651,1.547,0.977l10.663,7.733c0.74,0.616,1.474,1.24,2.198,1.872c0.78,0.939,1.54,1.889,2.278,2.849
			c-2.825-2.261-5.294-4.242-7.407-5.942L194.3,27.715z"/>
	</g>
	<path fill-rule="evenodd" clip-rule="evenodd" fill-opacity="0.251" d="M206.103,36.18c0.219-0.244,0.49-0.379,0.813-0.407
		c0.31-0.032,0.581,0.049,0.814,0.244c1.275,1.093,2.551,2.206,3.825,3.337v0.082c1.341,1.256,2.644,2.531,3.907,3.826
		c18.031,18.685,27.066,40.907,27.106,66.666c-0.035,27.515-10.373,51.012-31.014,70.491c-14.858,13.993-31.925,22.973-51.2,26.944
		c-7.569,1.525-15.466,2.285-23.687,2.279c-29.254-0.051-54.189-9.792-74.807-29.223c-20.697-19.479-31.035-42.977-31.013-70.491
		c0.003-27.539,10.395-51.063,31.176-70.573v-0.082c0.136-0.136,0.271-0.271,0.407-0.407v-0.082
		c0.353-0.299,0.705-0.597,1.059-0.896c0.232-0.195,0.504-0.277,0.813-0.244c0.323,0,0.595,0.108,0.814,0.326
		c0.222,0.233,0.331,0.504,0.325,0.814c-0.027,0.323-0.163,0.594-0.407,0.814c-0.353,0.298-0.706,0.597-1.058,0.896h0.081
		c-0.163,0.136-0.325,0.271-0.488,0.407v0.082c-20.299,19.06-30.447,42.042-30.443,68.945c-0.02,26.876,10.073,49.83,30.28,68.863
		c20.19,19.015,44.61,28.539,73.26,28.572c8.053-0.008,15.785-0.768,23.198-2.279c18.874-3.861,35.588-12.626,50.143-26.292
		c20.15-19.033,30.244-41.987,30.28-68.863c-0.037-25.132-8.854-46.812-26.455-65.038c-1.237-1.294-2.513-2.569-3.825-3.826
		c-1.248-1.132-2.496-2.244-3.745-3.337c-0.243-0.192-0.379-0.437-0.406-0.732C205.825,36.685,205.906,36.414,206.103,36.18z"/>
	
		<use xlink:href="#classic_buttons_x2F_button_assets_x2F_hazy_ring_3"  width="205.976" height="194.944" x="-103" y="-97.472" transform="matrix(-1.1395 0 0 1.1395 136.5 112.1431)" overflow="visible" opacity="0.5898"/>
	<g>
		<path fill-rule="evenodd" clip-rule="evenodd" fill="#FFFFFF" fill-opacity="0.298" d="M160.111,18.11
			c2.993,1.047,5.896,2.323,8.71,3.826c3.744,1.998,5.779,3.87,6.105,5.617c0.323,1.738-0.057,3.827-1.14,6.268
			c-0.63,1.365-1.525,2.45-2.687,3.256c-2.622,0.741-6.285-0.344-10.989-3.256c-1.084-0.689-2.224-1.476-3.418-2.36
			c-6.393-4.623-13.854-7.526-22.386-8.71c-8.506-1.202-20.688,1.403-36.548,7.814c-0.003-1.202,0.975-2.722,2.931-4.559
			c1.96-1.824,6.03-3.995,12.21-6.512c6.162-2.512,9.825-3.706,10.988-3.582c2.774-0.448,6.03-0.665,9.769-0.651
			c9.605-0.016,17.447,0.608,23.524,1.873C158.168,17.436,159.145,17.761,160.111,18.11z M235.731,163.326
			c7.125-18.715,11.005-36.161,11.641-52.339c1.226-32.564-10.686-59.996-35.734-82.294c30.192,25.004,44.6,52.002,43.223,80.992
			l0.163-0.082c13.733,13.395,12.893,36.106-2.523,68.131c8.854-37.069,9.017-55.14,0.488-54.212
			C250.223,136.41,244.471,149.677,235.731,163.326z M98.574,224.375c-19.025-5.293-17.425-0.328,4.802,14.896
			c-10.239-3.154-19.274-7.25-27.105-12.291c-7.909-5.066-13.011-10.113-15.303-15.141
			C59.957,209.691,72.492,213.869,98.574,224.375z M25.64,178.629c-0.316-1.115-0.533-2.201-0.65-3.257
			c-0.033-0.369,0.184-0.505,0.65-0.406c2.559,0.664,12.923,8.75,31.095,24.257c-16.369-11.087-16.423-5.877-0.162,15.628
			c-8.743-6.244-16.042-13-21.896-20.268C29.932,188.676,26.92,183.358,25.64,178.629z"/>
		<path fill-rule="evenodd" clip-rule="evenodd" fill="#FFFFFF" fill-opacity="0.2" d="M160.111,102.358
			c-1.146,0.544-6.139,0.924-14.978,1.14c-6.733,7.422-12.052,7.992-15.954,1.709c-10.149-4.315-10.719-3.555-1.709,2.279
			c-9.323,5.33-21.126,4.978-35.409-1.058c-14.295-6.032-20.509-3.78-18.64,6.756c-0.367,16.34,9.672,32.295,30.117,47.862
			c-30.158-13.115-45.896-36.857-47.212-71.224h0.082c2.043-25.394,7.931-39.639,17.663-42.734
			c-8.826,6.377-13.113,20.324-12.86,41.839l-0.488,1.546c-0.197,0.064-0.387,0.118-0.57,0.163
			c32.465,6.601,65.784,8.663,99.958,6.187c16.117-1.161,32.424-3.332,48.921-6.512c0.599-0.132,1.196-0.268,1.791-0.407
			c-0.003-0.331-0.003-0.656,0-0.977c0.279-21.516-3.98-35.462-12.779-41.839c9.785,3.119,15.674,17.554,17.663,43.304
			c0.003,0.08,0.003,0.161,0,0.244l0.407,0.407c-2.576,39.257-20.349,62.212-53.316,68.863
			c23.741-20.299,32.098-37.393,25.071-51.281c-5.021-8.77-14.272-11.048-27.758-6.837h-0.162c0.058,0.027,0.111,0.055,0.162,0.082
			C160.443,102.048,160.443,102.211,160.111,102.358z"/>
		<path fill-rule="evenodd" clip-rule="evenodd" fill="#FFFFFF" fill-opacity="0.349" d="M25.64,84.45
			c2.814-9.096,7.21-18.159,13.188-27.188c-13.832,29.265-16.6,58.786-8.303,88.562c-1.967-4.242-3.595-8.476-4.885-12.698
			C20.659,116.804,20.659,100.579,25.64,84.45z"/>
		<path fill-rule="evenodd" clip-rule="evenodd" fill="#FFFFFF" fill-opacity="0.498" d="M171.915,240.086l15.954-5.047
			c-1.862,0.697-3.762,1.375-5.698,2.035C178.768,238.215,175.349,239.219,171.915,240.086z M144.564,233.41
			c2.163,0.09,4.145,0.145,5.942,0.164c0.386,0.664,0.874,1.287,1.465,1.871c1.755,1.742,3.872,2.609,6.35,2.605
			c0.617,0.002,1.214-0.053,1.79-0.164c1.741-0.314,3.287-1.129,4.641-2.441c1.207-1.223,1.994-2.605,2.36-4.15
			c1.995-0.559,4.355-1.182,7.081-1.873c5.628-1.385,11.028-3.094,16.199-5.129c5.164-2.047,9.343-4.867,12.535-8.465h0.081
			c0.07,2.975-0.635,5.416-2.116,7.326c-1.434,1.889-2.601,3.246-3.5,4.07c-0.925,0.846-2.092,1.795-3.5,2.848
			c-1.421,1.051-3.076,2.189-4.966,3.42c-1.875,1.219-7.546,3.416-17.012,6.594c-3.914,0.996-7.849,1.811-11.804,2.441
			c-3.241,0.529-6.497,0.936-9.768,1.221c-11.426,0.723-22.604,0.152-33.536-1.709c-0.248-0.051-0.493-0.105-0.733-0.162
			c2.611-0.355,0.63-2.064-5.941-5.129c-6.575-3.074-4.73-4.484,5.535-4.232C125.897,232.768,135.53,233.066,144.564,233.41z"/>
		<path fill-rule="evenodd" clip-rule="evenodd" fill="#FFFFFF" fill-opacity="0.6" d="M160.111,178.384
			c-24.219,9.692-46.44,7.087-66.666-7.813c20.869,9.832,43.091,11.542,66.666,5.128c5.463-1.459,10.998-3.358,16.605-5.698
			C171.081,173.416,165.546,176.209,160.111,178.384z"/>
		<path fill-rule="evenodd" clip-rule="evenodd" fill="#FFFFFF" fill-opacity="0.251" d="M64.549,152.582
			c-15.581-9.958-22.093-25.397-19.536-46.316C46.317,121.792,52.829,137.231,64.549,152.582z"/>
	</g>
	
		<use xlink:href="#classic_buttons_x2F_button_assets_x2F_haze"  width="51.16" height="50.843" x="-25.594" y="-25.409" transform="matrix(-1.1395 0 0 1.1395 219.7002 188.9429)" overflow="visible" opacity="0.75"/>
	
		<use xlink:href="#classic_buttons_x2F_button_assets_x2F_haze"  width="51.16" height="50.843" x="-25.594" y="-25.409" transform="matrix(-1.1358 0.024 0.024 1.1358 202.9502 144.6929)" overflow="visible" opacity="0.75"/>
	
		<use xlink:href="#classic_buttons_x2F_button_assets_x2F_haze"  width="51.16" height="50.843" x="-25.594" y="-25.409" transform="matrix(-0.235 -1.3251 -1.7837 0.1746 81.7998 210.6426)" overflow="visible"/>
	<g>
		<g>
			<path fill-rule="evenodd" clip-rule="evenodd" fill="#FFFFFF" fill-opacity="0.0314" d="M20.268,181.966
				c-0.108-0.217-0.217-0.38-0.325-0.488c1.085-0.543,1.845-1.356,2.279-2.442c0.542-1.085,0.597-2.17,0.162-3.256
				c-10.636-29.846-12.101-60.181-4.396-91.004c0.326-1.194,0.163-2.333-0.488-3.419c-0.543-0.977-1.356-1.682-2.441-2.116
				c-0.218,0-0.435-0.054-0.651-0.163c0.108-0.108,0.217-0.271,0.325-0.488c0.108,0.108,0.271,0.163,0.488,0.163
				c1.194,0.434,2.116,1.248,2.768,2.442s0.814,2.442,0.488,3.744c-7.705,30.715-6.24,60.886,4.396,90.516
				c0.543,1.302,0.543,2.604,0,3.907C22.33,180.555,21.462,181.423,20.268,181.966z"/>
			<path fill-rule="evenodd" clip-rule="evenodd" fill="#FFFFFF" fill-opacity="0.0118" d="M14.732,78.589
				c0.108-0.217,0.163-0.38,0.163-0.488c0.217,0,0.38,0.054,0.488,0.163c1.411,0.434,2.442,1.302,3.093,2.605
				c0.76,1.302,0.978,2.659,0.651,4.07c-7.706,30.715-6.24,60.833,4.396,90.353c0.435,1.411,0.38,2.822-0.162,4.232
				c-0.543,1.303-1.466,2.279-2.768,2.931c-0.109-0.217-0.218-0.38-0.326-0.488c1.194-0.543,2.062-1.411,2.604-2.604
				c0.543-1.303,0.543-2.605,0-3.907c-10.636-29.63-12.101-59.801-4.396-90.516c0.326-1.302,0.163-2.55-0.488-3.744
				s-1.573-2.008-2.768-2.442C15.004,78.752,14.841,78.698,14.732,78.589z"/>
			<path fill-rule="evenodd" clip-rule="evenodd" fill="#FFFFFF" fill-opacity="0.051" d="M19.942,181.478
				c0-0.217-0.055-0.38-0.163-0.488c0.977-0.435,1.628-1.14,1.954-2.116c0.434-0.978,0.488-1.954,0.162-2.931
				c-10.744-29.955-12.21-60.398-4.396-91.33c0.217-0.977,0.055-1.954-0.488-2.93c-0.435-0.868-1.14-1.465-2.116-1.791
				c-0.217-0.108-0.435-0.163-0.651-0.163c0.108-0.217,0.163-0.434,0.163-0.651c0.217,0.109,0.434,0.163,0.651,0.163
				c1.085,0.434,1.898,1.139,2.441,2.116c0.651,1.085,0.814,2.225,0.488,3.419c-7.705,30.823-6.24,61.158,4.396,91.004
				c0.435,1.086,0.38,2.171-0.162,3.256C21.787,180.122,21.027,180.935,19.942,181.478z"/>
			<path fill-rule="evenodd" clip-rule="evenodd" fill="#FFFFFF" fill-opacity="0.0706" d="M19.779,180.99
				c-0.108-0.217-0.217-0.38-0.325-0.488v-0.163c0.868-0.325,1.465-0.923,1.79-1.791c0.326-0.76,0.326-1.573,0-2.441
				C10.5,146.042,9.034,115.49,16.849,84.45c0.218-0.868,0.108-1.682-0.325-2.442c-0.435-0.869-1.031-1.411-1.791-1.628
				c-0.325-0.109-0.542-0.163-0.651-0.163c0-0.108,0.055-0.271,0.163-0.488c0.217,0,0.435,0.054,0.651,0.163
				c0.977,0.326,1.682,0.923,2.116,1.791c0.543,0.977,0.705,1.954,0.488,2.93c-7.814,30.932-6.349,61.375,4.396,91.33
				c0.326,0.977,0.271,1.953-0.162,2.931C21.407,179.85,20.756,180.555,19.779,180.99z"/>
			<path fill-rule="evenodd" clip-rule="evenodd" fill="#FFFFFF" fill-opacity="0.0902" d="M14.081,80.217
				c0.109,0,0.326,0.054,0.651,0.163c0.76,0.217,1.356,0.759,1.791,1.628c0.434,0.76,0.543,1.574,0.325,2.442
				c-7.814,31.04-6.349,61.592,4.396,91.656c0.326,0.868,0.326,1.682,0,2.441c-0.325,0.868-0.922,1.466-1.79,1.791v0.163
				c-0.109-0.218-0.218-0.435-0.326-0.651h0.163c0.651-0.326,1.14-0.814,1.465-1.466c0.326-0.65,0.326-1.356,0-2.116
				c-10.744-30.172-12.21-60.832-4.396-91.98c0.108-0.651,0-1.303-0.325-1.954c-0.326-0.651-0.868-1.139-1.628-1.465
				c-0.218,0-0.435-0.054-0.651-0.163C13.864,80.597,13.973,80.435,14.081,80.217z"/>
			<path fill-rule="evenodd" clip-rule="evenodd" fill="#FFFFFF" fill-opacity="0.1098" d="M19.128,179.85
				c-0.108-0.108-0.162-0.271-0.162-0.488c0.65-0.218,1.085-0.598,1.302-1.14c0.217-0.543,0.217-1.14,0-1.791
				C9.414,146.259,7.949,115.49,15.872,84.125c0.108-0.542,0-1.085-0.325-1.628c-0.326-0.542-0.76-0.868-1.303-0.977
				c-0.217-0.109-0.435-0.163-0.651-0.163c0.108-0.217,0.163-0.434,0.163-0.651c0.217,0.109,0.434,0.163,0.651,0.163
				c0.76,0.326,1.302,0.814,1.628,1.465c0.325,0.651,0.434,1.303,0.325,1.954c-7.814,31.148-6.349,61.809,4.396,91.98
				c0.326,0.76,0.326,1.466,0,2.116c-0.325,0.651-0.813,1.14-1.465,1.466H19.128z"/>
			<path fill-rule="evenodd" clip-rule="evenodd" fill="#FFFFFF" fill-opacity="0.1294" d="M18.966,179.362
				c-0.109-0.108-0.218-0.271-0.326-0.488h0.163c0.434-0.218,0.705-0.543,0.813-0.978c0.218-0.325,0.271-0.705,0.163-1.14
				c-10.854-30.28-12.373-61.158-4.559-92.632l-0.162-1.302c-0.218-0.434-0.543-0.706-0.978-0.814
				c-0.217-0.109-0.488-0.163-0.813-0.163c0.108-0.108,0.217-0.271,0.325-0.488c0.217,0,0.435,0.054,0.651,0.163
				c0.543,0.108,0.977,0.434,1.303,0.977c0.325,0.542,0.434,1.085,0.325,1.628c-7.923,31.366-6.458,62.135,4.396,92.307
				c0.217,0.651,0.217,1.248,0,1.791C20.051,178.764,19.616,179.144,18.966,179.362z"/>
			<path fill-rule="evenodd" clip-rule="evenodd" fill="#FFFFFF" fill-opacity="0.149" d="M18.64,178.874
				c-0.108-0.109-0.217-0.271-0.325-0.489c0.108,0,0.217,0,0.325,0c0.217-0.108,0.38-0.325,0.488-0.65
				c0.217-0.218,0.271-0.488,0.163-0.814C8.329,146.422,6.81,115.436,14.732,83.961c0-0.325-0.054-0.651-0.162-0.977
				c-0.109-0.217-0.326-0.38-0.651-0.488c-0.218,0-0.489,0.054-0.814,0.163c0.108-0.217,0.163-0.488,0.163-0.814
				c0.325,0,0.597,0.054,0.813,0.163c0.435,0.108,0.76,0.38,0.978,0.814l0.162,1.302c-7.814,31.474-6.295,62.352,4.559,92.632
				c0.108,0.435,0.055,0.814-0.163,1.14c-0.108,0.435-0.38,0.76-0.813,0.978H18.64z"/>
			<path fill-rule="evenodd" clip-rule="evenodd" fill="#FFFFFF" fill-opacity="0.1882" d="M18.151,177.896
				C9.903,161.725,5.778,143.98,5.778,124.661c0-12.698,1.737-24.637,5.21-35.815c0.651-1.845,1.356-3.636,2.116-5.373
				c0-0.108,0.055-0.217,0.163-0.325c0.217-0.109,0.38-0.163,0.488-0.163c0.108,0.108,0.217,0.217,0.325,0.326
				c0,0.217,0,0.38,0,0.488c-7.923,31.583-6.403,62.677,4.559,93.284c0.108,0.108,0.108,0.271,0,0.488
				c0,0.108-0.108,0.163-0.325,0.163C18.314,177.842,18.26,177.896,18.151,177.896z"/>
			<path fill-rule="evenodd" clip-rule="evenodd" fill="#FFFFFF" fill-opacity="0.1686" d="M18.314,178.384
				c0-0.108-0.055-0.271-0.163-0.488c0.108,0,0.163-0.054,0.163-0.162c0.217,0,0.325-0.055,0.325-0.163
				c0.108-0.217,0.108-0.38,0-0.488c-10.962-30.606-12.481-61.701-4.559-93.284c0-0.108,0-0.271,0-0.488
				c-0.108-0.108-0.217-0.217-0.325-0.326c-0.108,0-0.271,0.054-0.488,0.163c-0.108,0.108-0.163,0.217-0.163,0.325
				c-0.76,1.737-1.465,3.527-2.116,5.373c0.651-2.062,1.356-4.125,2.116-6.187c0.325-0.108,0.597-0.163,0.814-0.163
				c0.325,0.108,0.542,0.271,0.651,0.488c0.108,0.326,0.162,0.651,0.162,0.977c-7.923,31.475-6.403,62.461,4.559,92.958
				c0.108,0.326,0.054,0.597-0.163,0.814c-0.108,0.325-0.271,0.542-0.488,0.65C18.531,178.384,18.423,178.384,18.314,178.384z"/>
		</g>
	</g>
</g>
</svg>
