<?xml version="1.0" encoding="utf-8"?>
<!-- Generator: Adobe Illustrator 15.1.0, SVG Export Plug-In . SVG Version: 6.00 Build 0)  -->
<!DOCTYPE svg PUBLIC "-//W3C//DTD SVG 1.1//EN" "http://www.w3.org/Graphics/SVG/1.1/DTD/svg11.dtd">
<svg version="1.1" id="Layer_1" xmlns="http://www.w3.org/2000/svg" xmlns:xlink="http://www.w3.org/1999/xlink" x="0px" y="0px"
	 width="800px" height="600px" viewBox="0 0 800 600" enable-background="new 0 0 800 600" xml:space="preserve">
<g>
	<g id="Selected_Items">
		<linearGradient id="SVGID_1_" gradientUnits="userSpaceOnUse" x1="276.2007" y1="10.8555" x2="276.2007" y2="394.556">
			<stop  offset="0" style="stop-color:#894292"/>
			<stop  offset="1" style="stop-color:#BB509E"/>
		</linearGradient>
		<path fill-rule="evenodd" clip-rule="evenodd" fill="url(#SVGID_1_)" d="M525.352,115.255c9.332,7.1,18.066,15.883,26.199,26.35
			v124.899c-7.666,10.301-16.4,19.066-26.199,26.301c-1.201,0.867-2.418,1.717-3.65,2.549c-7.734,5.234-16.301,9.65-25.699,13.25
			c-1.334,0.5-2.684,1-4.051,1.5c-11.666,4.068-24.533,6.951-38.6,8.65c-0.834,0.1-1.65,0.184-2.451,0.25
			c-0.467,2.635-0.949,5.184-1.449,7.65c-7.768,35.533-23.684,54.234-47.75,56.1c-1.767-0.066-3.533-0.184-5.3-0.35
			c-1.133-0.133-2.266-0.266-3.398-0.4c-14.268-2.033-27.184-7.766-38.75-17.199c-1.367,1.334-2.733,2.633-4.101,3.9
			c-1.3,1.199-2.566,2.35-3.8,3.449c-16.467,14.301-33.017,23.301-49.65,27c-1.3,0.301-2.6,0.566-3.899,0.801
			c-6.2,1.066-12.434,1.416-18.701,1.049c-0.8,0-1.583,0.018-2.35,0.051c-1.467-0.033-2.933-0.1-4.4-0.201
			c-19.267-1.199-38.5-9.416-57.7-24.648c-1.267-1-2.517-2.018-3.75-3.051c-3.2-2.666-6.383-5.533-9.55-8.6
			c-8.7,6.133-16.883,10.717-24.55,13.75c-1.534,0.6-3.05,1.15-4.55,1.65c-6.6,2.166-12.767,3.1-18.5,2.799
			c-19.7-3.1-33.667-13.967-41.9-32.6c-1.367-3.166-2.583-6.516-3.65-10.051c-1.867-6.365-3.233-13.398-4.1-21.1
			c-6.9-1.133-13.5-2.516-19.8-4.15c-1.167-0.299-2.333-0.615-3.5-0.949c-12.667-3.5-23.967-7.967-33.9-13.4
			c-1.2-0.633-2.35-1.283-3.45-1.949c-10.367-6.133-19.167-13.35-26.4-21.65c-1.2-1.4-2.367-2.816-3.5-4.25
			c-2.434-3.166-5-6.85-7.7-11.051V148.905c2.433-3.667,4.633-6.85,6.6-9.55c1.167-1.7,2.383-3.317,3.65-4.85
			c9.267-11.633,20.533-21.067,33.8-28.3c1.233-0.667,2.467-1.3,3.7-1.9c8.333-4.233,17.4-7.6,27.2-10.1
			c1.167-0.3,2.333-0.583,3.5-0.85c4.9-1.167,9.966-2.133,15.2-2.9c2-25.534,7.417-44.684,16.25-57.45
			c1.533-2.2,3.15-4.217,4.85-6.05c8.033-8.5,18.283-12.867,30.75-13.1c6.3,0.5,12.667,1.867,19.1,4.1
			c1.167,0.4,2.316,0.833,3.45,1.3c10.267,4.033,20.633,10.267,31.1,18.7c4.867-5.434,9.95-10.217,15.25-14.35
			c1.133-0.9,2.3-1.783,3.5-2.65c14.067-10.167,29.65-16.034,46.75-17.6c1.267-0.167,2.55-0.283,3.85-0.35
			c1.833-0.1,3.667-0.15,5.5-0.15c9.767-0.633,19.401,0.5,28.901,3.4c1.3,0.367,2.583,0.783,3.85,1.25
			c15.1,5.333,29.85,15.133,44.25,29.4c1.366-1.3,2.75-2.533,4.15-3.7c1.033-0.967,2.1-1.867,3.199-2.7
			c10.266-8.2,20.801-13.367,31.6-15.5c1.133-0.233,2.283-0.417,3.451-0.55c2.832-0.434,5.682-0.633,8.548-0.6
			c22.467,0.333,37.65,13.1,45.551,38.3c1.699,5.434,3.066,11.434,4.1,18c0.967,6.1,1.633,12.7,2,19.8
			c16.301,1.167,31.199,4.583,44.699,10.25c1.066,0.433,2.15,0.9,3.25,1.4c6.801,3.066,13.234,6.75,19.301,11.05
			C522.934,113.522,524.15,114.389,525.352,115.255z"/>
		<linearGradient id="SVGID_2_" gradientUnits="userSpaceOnUse" x1="523.5264" y1="281.0049" x2="523.5264" y2="118.1053">
			<stop  offset="0" style="stop-color:#C660A2"/>
			<stop  offset="1" style="stop-color:#B953A7"/>
		</linearGradient>
		<path fill-rule="evenodd" clip-rule="evenodd" fill="url(#SVGID_2_)" d="M525.352,115.255v177.55
			c-1.201,0.867-2.418,1.717-3.65,2.549V112.655C522.934,113.522,524.15,114.389,525.352,115.255z"/>
		
			<linearGradient id="SVGID_3_" gradientUnits="userSpaceOnUse" x1="-48.6904" y1="476.0977" x2="147.5372" y2="476.0977" gradientTransform="matrix(0.0361 -0.9993 0.998 0.0741 20.6958 217.5049)">
			<stop  offset="0" style="stop-color:#C660A2"/>
			<stop  offset="1" style="stop-color:#B953A7"/>
		</linearGradient>
		<path fill-rule="evenodd" clip-rule="evenodd" fill="url(#SVGID_3_)" d="M502.4,101.605l-6.398,206.999
			c-1.334,0.5-2.684,1-4.051,1.5l7.199-209.899C500.217,100.639,501.301,101.105,502.4,101.605z"/>
		<linearGradient id="SVGID_4_" gradientUnits="userSpaceOnUse" x1="450.8516" y1="317.6045" x2="450.8516" y2="68.8049">
			<stop  offset="0" style="stop-color:#C660A2"/>
			<stop  offset="1" style="stop-color:#B953A7"/>
		</linearGradient>
		<path fill-rule="evenodd" clip-rule="evenodd" fill="url(#SVGID_4_)" d="M452.451,70.155l0.9,248.6
			c-0.834,0.1-1.65,0.184-2.451,0.25c-0.467,2.635-0.949,5.184-1.449,7.65l-1.1-274.5C450.051,57.589,451.418,63.589,452.451,70.155
			z"/>
		<linearGradient id="SVGID_5_" gradientUnits="userSpaceOnUse" x1="393.6011" y1="374.3047" x2="393.6011" y2="18.4052">
			<stop  offset="0" style="stop-color:#C660A2"/>
			<stop  offset="1" style="stop-color:#B953A7"/>
		</linearGradient>
		<path fill-rule="evenodd" clip-rule="evenodd" fill="url(#SVGID_5_)" d="M394.252,14.456l2.148,367.95
			c-1.133-0.133-2.266-0.266-3.398-0.4l-2.201-367C391.934,14.772,393.084,14.589,394.252,14.456z"/>
		
			<linearGradient id="SVGID_6_" gradientUnits="userSpaceOnUse" x1="-124.7427" y1="330.457" x2="199.0744" y2="330.457" gradientTransform="matrix(0.0269 -0.9996 0.9987 0.0603 21.7578 218.9219)">
			<stop  offset="0" style="stop-color:#C660A2"/>
			<stop  offset="1" style="stop-color:#B953A7"/>
		</linearGradient>
		<path fill-rule="evenodd" clip-rule="evenodd" fill="url(#SVGID_6_)" d="M359.201,30.505l-9.05,338.201
			c-1.3,1.199-2.566,2.35-3.8,3.449l9.65-338.95C357.035,32.239,358.102,31.339,359.201,30.505z"/>
		
			<linearGradient id="SVGID_7_" gradientUnits="userSpaceOnUse" x1="-156.8535" y1="277.9473" x2="221.5858" y2="277.9473" gradientTransform="matrix(0.0271 -0.9996 0.9987 0.0602 21.7412 218.9375)">
			<stop  offset="0" style="stop-color:#C660A2"/>
			<stop  offset="1" style="stop-color:#B953A7"/>
		</linearGradient>
		<path fill-rule="evenodd" clip-rule="evenodd" fill="url(#SVGID_7_)" d="M307.602,7.505l-10.9,391.65
			c-1.3,0.301-2.6,0.566-3.899,0.801l10.95-393.701C305.052,6.622,306.335,7.039,307.602,7.505z"/>
		<linearGradient id="SVGID_8_" gradientUnits="userSpaceOnUse" x1="268.626" y1="392.6055" x2="268.626" y2="8.805">
			<stop  offset="0" style="stop-color:#C660A2"/>
			<stop  offset="1" style="stop-color:#B953A7"/>
		</linearGradient>
		<path fill-rule="evenodd" clip-rule="evenodd" fill="url(#SVGID_8_)" d="M269.351,3.005l2.4,398.05
			c-1.467-0.033-2.933-0.1-4.4-0.201l-1.85-397.499C266.768,3.188,268.051,3.072,269.351,3.005z"/>
		
			<linearGradient id="SVGID_9_" gradientUnits="userSpaceOnUse" x1="-132.9741" y1="189.6216" x2="199.421" y2="189.6216" gradientTransform="matrix(0.0239 -0.9997 0.9991 0.0514 22.1045 219.8262)">
			<stop  offset="0" style="stop-color:#C660A2"/>
			<stop  offset="1" style="stop-color:#B953A7"/>
		</linearGradient>
		<path fill-rule="evenodd" clip-rule="evenodd" fill="url(#SVGID_9_)" d="M218.751,20.956l-9.1,355.25
			c-1.267-1-2.517-2.018-3.75-3.051l9.35-349.55C216.384,22.706,217.551,21.822,218.751,20.956z"/>
		<linearGradient id="SVGID_10_" gradientUnits="userSpaceOnUse" x1="168.626" y1="323.9062" x2="168.626" y2="22.7058">
			<stop  offset="0" style="stop-color:#C660A2"/>
			<stop  offset="1" style="stop-color:#B953A7"/>
		</linearGradient>
		<path fill-rule="evenodd" clip-rule="evenodd" fill="url(#SVGID_10_)" d="M168.901,19.255l2.9,359.05
			c-1.534,0.6-3.05,1.15-4.55,1.65l-1.8-362C166.618,18.355,167.768,18.789,168.901,19.255z"/>
		
			<linearGradient id="SVGID_11_" gradientUnits="userSpaceOnUse" x1="-117.8696" y1="86.1689" x2="189.799" y2="86.1689" gradientTransform="matrix(0.0211 -0.9998 0.9992 0.0476 22.4375 220.2144)">
			<stop  offset="0" style="stop-color:#C660A2"/>
			<stop  offset="1" style="stop-color:#B953A7"/>
		</linearGradient>
		<path fill-rule="evenodd" clip-rule="evenodd" fill="url(#SVGID_11_)" d="M115.601,26.956l-8.75,323.2
			c-1.367-3.166-2.583-6.516-3.65-10.051l7.55-307.099C112.284,30.805,113.901,28.789,115.601,26.956z"/>
		<linearGradient id="SVGID_12_" gradientUnits="userSpaceOnUse" x1="77.5513" y1="309.4424" x2="77.5513" y2="96.6679">
			<stop  offset="0" style="stop-color:#C660A2"/>
			<stop  offset="1" style="stop-color:#B953A7"/>
		</linearGradient>
		<path fill-rule="evenodd" clip-rule="evenodd" fill="url(#SVGID_12_)" d="M79.301,93.355v221.499
			c-1.167-0.299-2.333-0.615-3.5-0.949v-219.7C76.968,93.905,78.134,93.622,79.301,93.355z"/>
		
			<linearGradient id="SVGID_13_" gradientUnits="userSpaceOnUse" x1="-77.9995" y1="22.1748" x2="110.1965" y2="22.1748" gradientTransform="matrix(0.036 -0.9994 0.998 0.0748 20.7046 217.4351)">
			<stop  offset="0" style="stop-color:#C660A2"/>
			<stop  offset="1" style="stop-color:#B953A7"/>
		</linearGradient>
		<path fill-rule="evenodd" clip-rule="evenodd" fill="url(#SVGID_13_)" d="M48.601,104.305l-6.7,196.2
			c-1.2-0.633-2.35-1.283-3.45-1.949l6.45-192.35C46.134,105.539,47.368,104.905,48.601,104.305z"/>
		<linearGradient id="SVGID_14_" gradientUnits="userSpaceOnUse" x1="9.751" y1="268.7178" x2="9.751" y2="138.9932">
			<stop  offset="0" style="stop-color:#C660A2"/>
			<stop  offset="1" style="stop-color:#B953A7"/>
		</linearGradient>
		<path fill-rule="evenodd" clip-rule="evenodd" fill="url(#SVGID_14_)" d="M11.101,134.505l0.95,142.4
			c-1.2-1.4-2.367-2.816-3.5-4.25l-1.1-133.3C8.618,137.655,9.834,136.039,11.101,134.505z"/>
		<path fill-rule="evenodd" clip-rule="evenodd" fill="#ABC337" d="M209.526,395.155c-0.347-0.229-0.563-0.545-0.65-0.949
			c-0.081-0.404-0.006-0.779,0.225-1.125c0.229-0.348,0.545-0.564,0.95-0.65c0.402-0.082,0.777-0.006,1.125,0.225
			c2.159,1.426,4.434,2.883,6.825,4.375c0.346,0.227,0.562,0.543,0.65,0.949c0.099,0.4,0.041,0.775-0.175,1.125
			c-0.226,0.348-0.542,0.562-0.95,0.65c-0.4,0.098-0.775,0.039-1.125-0.174C213.992,398.071,211.7,396.597,209.526,395.155z
			 M193.626,381.005c0.363-0.207,0.746-0.256,1.15-0.15c0.402,0.107,0.711,0.342,0.925,0.701c0.208,0.354,0.257,0.729,0.15,1.125
			c-0.099,0.402-0.324,0.711-0.675,0.924c-2.384,1.41-4.717,2.734-7,3.977c-0.368,0.199-0.751,0.24-1.15,0.125
			c-0.398-0.119-0.698-0.361-0.9-0.727c-0.2-0.367-0.241-0.75-0.125-1.148c0.119-0.398,0.36-0.699,0.725-0.9
			C188.977,383.704,191.276,382.397,193.626,381.005z M199.051,383.755c0.417-0.023,0.783,0.102,1.1,0.375
			c1.87,1.643,3.936,3.318,6.2,5.025c0.329,0.256,0.52,0.588,0.575,1c0.062,0.406-0.03,0.771-0.275,1.1
			c-0.254,0.328-0.587,0.521-1,0.576c-0.406,0.061-0.772-0.031-1.1-0.275c-2.336-1.76-4.47-3.484-6.4-5.176
			c-0.309-0.273-0.476-0.615-0.5-1.025c-0.025-0.416,0.1-0.783,0.375-1.1C198.299,383.946,198.641,383.78,199.051,383.755z
			 M181.401,387.604c0.377-0.174,0.76-0.191,1.15-0.049c0.389,0.133,0.672,0.383,0.85,0.75c0.176,0.377,0.192,0.76,0.05,1.15
			c-0.133,0.387-0.383,0.67-0.75,0.85c-2.576,1.219-5.101,2.301-7.575,3.25c-0.379,0.15-0.754,0.143-1.125-0.025
			c-0.382-0.176-0.648-0.459-0.8-0.85c-0.151-0.379-0.143-0.754,0.025-1.125c0.176-0.383,0.459-0.648,0.85-0.801
			C176.468,389.837,178.91,388.786,181.401,387.604z M160.226,397.405c-0.349-0.23-0.565-0.547-0.65-0.949
			c-0.081-0.406-0.006-0.781,0.225-1.125c0.237-0.35,0.562-0.566,0.975-0.65c2.509-0.486,5.068-1.137,7.675-1.951
			c0.396-0.123,0.78-0.09,1.15,0.102c0.363,0.191,0.605,0.482,0.725,0.875c0.125,0.396,0.092,0.779-0.1,1.148
			c-0.191,0.363-0.482,0.605-0.875,0.727c-2.726,0.854-5.401,1.537-8.025,2.049C160.93,397.71,160.563,397.636,160.226,397.405z
			 M154.851,395.556c0.413-0.035,0.779,0.082,1.1,0.35c0.323,0.26,0.507,0.594,0.55,1c0.035,0.412-0.082,0.779-0.35,1.1
			c-0.26,0.324-0.594,0.508-1,0.551c-2.877,0.271-5.652,0.338-8.325,0.199c-0.408-0.023-0.75-0.189-1.025-0.5
			c-0.283-0.305-0.417-0.664-0.4-1.074c0.023-0.408,0.19-0.75,0.5-1.025c0.306-0.283,0.665-0.416,1.075-0.4
			C149.503,395.884,152.128,395.817,154.851,395.556z M132.426,394.854c-0.167-0.381-0.176-0.764-0.025-1.148
			c0.153-0.385,0.419-0.66,0.8-0.826s0.764-0.176,1.15-0.025c1.818,0.715,3.685,1.332,5.6,1.852h-0.075
			c0.434,0.1,0.867,0.199,1.3,0.299c0.407,0.088,0.723,0.305,0.95,0.65c0.215,0.35,0.273,0.725,0.175,1.125
			c-0.088,0.408-0.304,0.725-0.65,0.949c-0.349,0.217-0.724,0.273-1.125,0.176c-0.433-0.1-0.867-0.199-1.3-0.301
			c-0.024,0-0.049,0-0.075,0c-2.018-0.547-3.984-1.197-5.9-1.949C132.868,395.503,132.592,395.235,132.426,394.854z M120.576,388.78
			c-0.333-0.242-0.533-0.566-0.6-0.975c-0.071-0.41,0.012-0.785,0.25-1.125c0.242-0.334,0.567-0.535,0.975-0.6
			c0.408-0.072,0.783,0.012,1.125,0.25c2.144,1.529,4.369,2.895,6.675,4.1c0.363,0.191,0.605,0.482,0.725,0.875
			c0.125,0.396,0.092,0.779-0.1,1.15c-0.191,0.363-0.482,0.604-0.875,0.725c-0.396,0.125-0.78,0.09-1.15-0.1
			C125.174,391.817,122.833,390.384,120.576,388.78z M117.751,382.681c0.309,0.273,0.475,0.615,0.5,1.025
			c0.025,0.416-0.1,0.783-0.375,1.1c-0.273,0.309-0.614,0.477-1.025,0.5c-0.417,0.025-0.783-0.1-1.1-0.375
			c-2.011-1.779-3.919-3.713-5.725-5.801c-0.275-0.311-0.4-0.668-0.375-1.074c0.033-0.412,0.208-0.754,0.525-1.025
			c0.309-0.275,0.667-0.4,1.075-0.375c0.412,0.035,0.753,0.209,1.025,0.525C114.003,379.159,115.829,380.993,117.751,382.681z
			 M95.476,354.831c-0.159-0.385-0.159-0.768,0-1.15c0.156-0.379,0.422-0.646,0.8-0.801c0.383-0.158,0.766-0.158,1.15,0
			c0.378,0.156,0.645,0.424,0.8,0.801c1.026,2.465,2.118,4.832,3.275,7.1c0.184,0.373,0.208,0.756,0.075,1.15
			c-0.13,0.385-0.38,0.668-0.75,0.85c-0.372,0.191-0.755,0.225-1.15,0.1c-0.394-0.131-0.686-0.381-0.875-0.75
			C97.625,359.798,96.517,357.366,95.476,354.831z M103.426,365.306c0.402,0.107,0.711,0.34,0.925,0.699
			c1.335,2.322,2.752,4.514,4.25,6.576c0.246,0.33,0.337,0.697,0.275,1.1c-0.064,0.406-0.265,0.73-0.6,0.975
			c-0.33,0.246-0.697,0.338-1.1,0.275c-0.406-0.066-0.731-0.266-0.975-0.6c-1.568-2.139-3.052-4.414-4.45-6.826
			c-0.207-0.355-0.257-0.73-0.15-1.125c0.107-0.402,0.341-0.711,0.7-0.924C102.656,365.247,103.031,365.198,103.426,365.306z
			 M90.851,341.63c-0.116-0.398-0.075-0.783,0.125-1.15c0.202-0.363,0.501-0.605,0.9-0.725c0.399-0.115,0.783-0.074,1.15,0.125
			c0.365,0.203,0.606,0.502,0.725,0.9c0.75,2.574,1.551,5.049,2.4,7.426c0.142,0.381,0.125,0.756-0.05,1.125
			c-0.178,0.375-0.461,0.633-0.85,0.773c-0.381,0.143-0.756,0.127-1.125-0.049c-0.375-0.178-0.633-0.461-0.775-0.85
			C92.467,346.782,91.634,344.257,90.851,341.63z M86.201,333.13c-0.413-0.055-0.747-0.246-1-0.574
			c-0.246-0.328-0.337-0.695-0.275-1.1c0.055-0.414,0.247-0.746,0.575-1c0.329-0.246,0.695-0.338,1.1-0.275
			c1.158,0.158,2.317,0.299,3.475,0.424c0.313,0.039,0.588,0.164,0.825,0.375c0.232,0.211,0.382,0.469,0.45,0.775
			c0.267,1.125,0.55,2.25,0.85,3.375c0.107,0.395,0.057,0.77-0.15,1.125c-0.213,0.359-0.521,0.594-0.925,0.701
			c-0.395,0.107-0.77,0.057-1.125-0.15c-0.359-0.213-0.592-0.521-0.7-0.926c-0.211-0.801-0.411-1.602-0.6-2.4
			C87.865,333.37,87.032,333.255,86.201,333.13z M22.751,302.13c0.405-0.061,0.772,0.031,1.1,0.275
			c2.117,1.625,4.25,3.184,6.4,4.676c0.341,0.23,0.549,0.549,0.625,0.949c0.072,0.408-0.011,0.783-0.25,1.125
			c-0.231,0.342-0.548,0.551-0.95,0.625c-0.407,0.072-0.782-0.012-1.125-0.25c-2.184-1.508-4.351-3.082-6.5-4.725
			c-0.328-0.256-0.52-0.588-0.575-1c-0.062-0.406,0.03-0.773,0.275-1.1C22.006,302.376,22.339,302.185,22.751,302.13z
			 M72.976,327.456c2.534,0.656,5.083,1.232,7.65,1.725c0.411,0.076,0.736,0.285,0.975,0.625c0.231,0.344,0.306,0.719,0.225,1.125
			c-0.076,0.41-0.285,0.736-0.625,0.975c-0.344,0.23-0.719,0.305-1.125,0.225c-2.634-0.508-5.25-1.098-7.85-1.775
			c-0.403-0.107-0.712-0.34-0.925-0.699c-0.208-0.354-0.258-0.729-0.15-1.125c0.107-0.402,0.34-0.711,0.7-0.926
			C72.206,327.397,72.581,327.349,72.976,327.456z M58.676,323.081c0.375-0.168,0.75-0.176,1.125-0.025
			c2.467,0.99,4.95,1.881,7.45,2.674c0.394,0.121,0.685,0.363,0.875,0.727c0.192,0.369,0.225,0.754,0.1,1.148
			c-0.121,0.395-0.362,0.686-0.725,0.875c-0.371,0.191-0.754,0.225-1.15,0.102c-2.567-0.809-5.117-1.717-7.65-2.727
			c-0.386-0.162-0.661-0.436-0.825-0.824c-0.167-0.373-0.176-0.748-0.025-1.125C58.013,323.521,58.288,323.245,58.676,323.081z
			 M46.051,317.181c0.385-0.125,0.76-0.092,1.125,0.1c2.383,1.217,4.767,2.365,7.15,3.449c0.374,0.178,0.632,0.461,0.775,0.852
			c0.151,0.387,0.142,0.771-0.025,1.148c-0.177,0.375-0.46,0.633-0.85,0.775c-0.388,0.15-0.771,0.143-1.15-0.025
			c-2.417-1.115-4.833-2.299-7.25-3.549c-0.37-0.191-0.62-0.482-0.75-0.875c-0.125-0.387-0.092-0.762,0.1-1.125
			C45.366,317.56,45.658,317.31,46.051,317.181z M42.001,314.456c0.357,0.203,0.59,0.502,0.7,0.898
			c0.108,0.395,0.058,0.77-0.15,1.125c-0.204,0.367-0.503,0.609-0.9,0.727c-0.4,0.107-0.783,0.057-1.15-0.15
			c-2.325-1.316-4.633-2.717-6.925-4.201c-0.346-0.219-0.563-0.527-0.65-0.924c-0.082-0.402-0.006-0.777,0.225-1.125
			c0.22-0.355,0.528-0.58,0.925-0.676c0.41-0.08,0.793-0.006,1.15,0.225C37.468,311.804,39.726,313.171,42.001,314.456z
			 M11.176,295.88c-0.316-0.271-0.491-0.613-0.525-1.025c-0.025-0.406,0.1-0.766,0.375-1.074c0.272-0.316,0.614-0.492,1.025-0.525
			c0.406-0.025,0.764,0.1,1.075,0.375c2.025,1.758,4.05,3.467,6.075,5.125c0.323,0.262,0.506,0.594,0.55,1
			c0.036,0.412-0.081,0.779-0.35,1.1c-0.259,0.324-0.593,0.508-1,0.551c-0.411,0.035-0.778-0.082-1.1-0.35
			C15.259,299.38,13.218,297.655,11.176,295.88z M2.051,283.755c0.41,0.004,0.76,0.154,1.05,0.451
			c1.892,1.883,3.783,3.699,5.675,5.449c0.302,0.285,0.46,0.635,0.475,1.051c0.016,0.412-0.118,0.77-0.4,1.074
			c-0.285,0.303-0.635,0.461-1.05,0.475c-0.412,0.016-0.77-0.117-1.075-0.4c-1.909-1.781-3.817-3.633-5.725-5.549
			c-0.296-0.289-0.446-0.641-0.45-1.051c0.003-0.41,0.153-0.76,0.45-1.049C1.291,283.909,1.641,283.759,2.051,283.755z
			 M4.576,119.855c0.29-0.296,0.64-0.446,1.05-0.45c0.417-0.006,0.775,0.136,1.075,0.425c0.296,0.289,0.446,0.639,0.45,1.05
			c0.005,0.416-0.137,0.774-0.425,1.075c-1.392,1.417-2.767,2.867-4.125,4.35c-0.276,0.31-0.618,0.477-1.025,0.5
			c-0.411,0.016-0.77-0.117-1.075-0.4c-0.311-0.275-0.477-0.617-0.5-1.025c-0.015-0.411,0.118-0.769,0.4-1.075
			C1.776,122.789,3.167,121.305,4.576,119.855z M14.601,110.055c0.306-0.282,0.665-0.416,1.075-0.4
			c0.408,0.023,0.75,0.189,1.025,0.5c0.283,0.306,0.416,0.664,0.4,1.075c-0.024,0.407-0.19,0.749-0.5,1.025
			c-1.917,1.759-3.833,3.583-5.75,5.475c-0.301,0.289-0.66,0.431-1.075,0.425c-0.411-0.004-0.761-0.154-1.05-0.45
			c-0.289-0.3-0.431-0.659-0.425-1.075c0.005-0.411,0.155-0.761,0.45-1.05C10.701,113.671,12.651,111.83,14.601,110.055z
			 M27.876,102.355c-0.055,0.411-0.247,0.744-0.575,1c-2.075,1.584-4.133,3.25-6.175,5c-0.318,0.267-0.685,0.383-1.1,0.35
			c-0.404-0.034-0.737-0.208-1-0.525c-0.276-0.318-0.401-0.685-0.375-1.1c0.034-0.412,0.209-0.753,0.525-1.025
			c2.091-1.784,4.2-3.484,6.325-5.1c0.328-0.245,0.694-0.336,1.1-0.275c0.412,0.055,0.745,0.246,1,0.575
			C27.846,101.583,27.938,101.949,27.876,102.355z M77.751,79.155c-0.218,0.355-0.526,0.58-0.925,0.675
			c-2.575,0.559-5.133,1.201-7.675,1.925c-0.393,0.108-0.768,0.058-1.125-0.15c-0.366-0.203-0.607-0.503-0.725-0.9
			c-0.108-0.393-0.058-0.768,0.15-1.125c0.203-0.366,0.503-0.607,0.9-0.725c2.591-0.743,5.2-1.401,7.825-1.975
			c0.401-0.081,0.776-0.006,1.125,0.225c0.355,0.219,0.58,0.527,0.675,0.925C78.058,78.432,77.982,78.807,77.751,79.155z
			 M51.501,86.805c0.184,0.375,0.209,0.758,0.075,1.15c-0.141,0.387-0.399,0.67-0.775,0.85c-2.375,1.151-4.717,2.368-7.025,3.65
			c-0.358,0.208-0.733,0.257-1.125,0.15c-0.397-0.118-0.697-0.359-0.9-0.725c-0.208-0.358-0.258-0.733-0.15-1.125
			c0.118-0.397,0.36-0.697,0.725-0.9c2.358-1.317,4.75-2.567,7.175-3.75c0.376-0.184,0.759-0.209,1.15-0.075
			C51.039,86.17,51.322,86.429,51.501,86.805z M55.026,86.38c-0.377-0.154-0.644-0.421-0.8-0.8c-0.159-0.384-0.159-0.768,0-1.15
			c0.156-0.377,0.422-0.644,0.8-0.8c2.492-1.051,5-2.018,7.525-2.9c0.392-0.134,0.775-0.109,1.15,0.075
			c0.376,0.179,0.635,0.462,0.775,0.85c0.134,0.392,0.109,0.775-0.075,1.15c-0.179,0.376-0.462,0.635-0.85,0.775
			c-2.475,0.851-4.934,1.784-7.375,2.8C55.791,86.54,55.408,86.54,55.026,86.38z M30.976,100.081
			c-0.401-0.075-0.718-0.283-0.95-0.625c-0.238-0.342-0.322-0.717-0.25-1.125c0.076-0.401,0.284-0.717,0.625-0.95
			c2.217-1.551,4.45-3.034,6.7-4.45c0.35-0.214,0.725-0.273,1.125-0.175c0.407,0.087,0.724,0.304,0.95,0.65
			c0.215,0.35,0.273,0.725,0.175,1.125c-0.088,0.407-0.305,0.724-0.65,0.95c-2.216,1.384-4.417,2.834-6.6,4.35
			C31.758,100.068,31.383,100.152,30.976,100.081z M82.176,75.73c0.533-0.079,1.066-0.154,1.6-0.225
			c0.222-1.634,0.456-3.243,0.7-4.825c0.065-0.407,0.265-0.732,0.6-0.975c0.33-0.246,0.697-0.338,1.1-0.275
			c0.406,0.065,0.731,0.265,0.975,0.6c0.246,0.331,0.337,0.697,0.275,1.1c-0.3,1.925-0.583,3.883-0.85,5.875
			c-0.039,0.329-0.172,0.613-0.4,0.85c-0.237,0.236-0.52,0.378-0.85,0.425c-0.9,0.133-1.8,0.267-2.7,0.4
			c-0.413,0.062-0.788-0.029-1.125-0.275c-0.328-0.245-0.52-0.569-0.575-0.975c-0.062-0.413,0.029-0.788,0.275-1.125
			C81.446,75.978,81.771,75.786,82.176,75.73z M87.251,56.706c0.097-0.4,0.322-0.708,0.675-0.925
			c0.351-0.215,0.726-0.273,1.125-0.175c0.4,0.097,0.708,0.321,0.925,0.675c0.215,0.351,0.273,0.726,0.175,1.125
			c-0.591,2.484-1.149,5.051-1.675,7.7c-0.085,0.404-0.302,0.721-0.65,0.95c-0.345,0.231-0.72,0.306-1.125,0.225
			c-0.404-0.085-0.721-0.302-0.95-0.65c-0.23-0.346-0.306-0.721-0.225-1.125C86.067,61.821,86.643,59.221,87.251,56.706z
			 M91.401,42.93c0.143-0.382,0.401-0.657,0.775-0.825c0.377-0.176,0.761-0.192,1.15-0.05c0.381,0.142,0.656,0.4,0.825,0.775
			c0.175,0.378,0.192,0.761,0.05,1.15c-0.882,2.435-1.699,4.968-2.45,7.6c-0.118,0.39-0.36,0.682-0.725,0.875
			c-0.366,0.208-0.75,0.258-1.15,0.15c-0.389-0.118-0.681-0.359-0.875-0.725c-0.208-0.367-0.258-0.75-0.15-1.15
			C89.633,48.029,90.483,45.429,91.401,42.93z M93.601,38.355c-0.151-0.383-0.142-0.767,0.025-1.15
			c1.116-2.602,2.299-5.085,3.55-7.45c0.192-0.363,0.483-0.604,0.875-0.725c0.397-0.125,0.78-0.092,1.15,0.1
			c0.364,0.192,0.605,0.483,0.725,0.875c0.125,0.396,0.091,0.78-0.1,1.15c-1.216,2.302-2.366,4.718-3.45,7.25
			c-0.165,0.379-0.44,0.646-0.825,0.8c-0.376,0.15-0.751,0.142-1.125-0.025C94.038,39.015,93.763,38.74,93.601,38.355z
			 M107.401,19.605c-1.623,1.987-3.147,4.12-4.575,6.4c-0.227,0.345-0.543,0.562-0.95,0.65c-0.4,0.099-0.775,0.04-1.125-0.175
			c-0.346-0.226-0.562-0.543-0.65-0.95c-0.098-0.399-0.04-0.774,0.175-1.125c1.506-2.387,3.115-4.62,4.825-6.7
			c0.26-0.323,0.594-0.506,1-0.55c0.412-0.035,0.778,0.082,1.1,0.35c0.323,0.26,0.506,0.593,0.55,1
			C107.786,18.917,107.669,19.283,107.401,19.605z M115.351,7.605c0.327-0.245,0.694-0.336,1.1-0.275
			c0.412,0.054,0.745,0.246,1,0.575c0.245,0.327,0.337,0.694,0.275,1.1c-0.055,0.411-0.247,0.745-0.575,1
			c-2.039,1.554-3.98,3.271-5.825,5.15c-0.289,0.295-0.639,0.445-1.05,0.45c-0.416,0.006-0.774-0.136-1.075-0.425
			c-0.296-0.289-0.446-0.639-0.45-1.05c-0.006-0.415,0.136-0.773,0.425-1.075C111.132,11.067,113.19,9.251,115.351,7.605z
			 M176.776,4.23c0.378,0.156,0.645,0.423,0.8,0.8c0.159,0.383,0.159,0.766,0,1.15c-0.156,0.379-0.423,0.646-0.8,0.8
			c-0.382,0.159-0.765,0.159-1.15,0c-2.349-0.971-4.649-1.78-6.9-2.425c-0.39-0.118-0.681-0.359-0.875-0.725
			c-0.208-0.367-0.258-0.75-0.15-1.15c0.118-0.389,0.359-0.681,0.725-0.875c0.366-0.208,0.75-0.258,1.15-0.15
			C171.925,2.343,174.325,3.202,176.776,4.23z M192.501,16.581c-0.341-0.232-0.549-0.549-0.625-0.95
			c-0.072-0.407,0.011-0.782,0.25-1.125c0.232-0.341,0.548-0.55,0.95-0.625c0.406-0.072,0.781,0.012,1.125,0.25
			c1.524,1.052,3.058,2.168,4.6,3.35c0.238-0.147,0.504-0.223,0.8-0.225c0.411,0.003,0.761,0.153,1.05,0.45
			c0.297,0.289,0.447,0.639,0.45,1.05c-0.003,0.411-0.154,0.761-0.45,1.05c-0.233,0.233-0.466,0.467-0.7,0.7
			c-0.264,0.273-0.58,0.423-0.95,0.45c-0.38,0.02-0.722-0.088-1.025-0.325C196.135,19.182,194.31,17.832,192.501,16.581z
			 M188.726,13.53c-0.402,0.089-0.777,0.022-1.125-0.2c-2.266-1.448-4.5-2.748-6.7-3.9c-0.363-0.191-0.604-0.483-0.725-0.875
			c-0.125-0.396-0.092-0.78,0.1-1.15c0.191-0.363,0.483-0.604,0.875-0.725c0.396-0.125,0.779-0.091,1.15,0.1
			c2.266,1.181,4.566,2.514,6.9,4c0.354,0.228,0.58,0.544,0.675,0.95c0.082,0.402,0.007,0.777-0.225,1.125
			C189.432,13.21,189.124,13.436,188.726,13.53z M209.376,8.331c0.336-0.253,0.711-0.354,1.125-0.3
			c0.403,0.046,0.728,0.229,0.975,0.55c0.253,0.334,0.354,0.709,0.3,1.125c-0.047,0.402-0.23,0.728-0.55,0.975
			c-2.042,1.585-4.083,3.285-6.125,5.1c-0.316,0.274-0.683,0.399-1.1,0.375c-0.41-0.024-0.751-0.19-1.025-0.5
			c-0.275-0.316-0.4-0.683-0.375-1.1c0.024-0.409,0.191-0.75,0.5-1.025C205.193,11.679,207.284,9.946,209.376,8.331z
			 M504.826,319.405c0.381,0.143,0.656,0.4,0.824,0.775c0.176,0.377,0.193,0.76,0.051,1.15c-0.143,0.381-0.402,0.656-0.775,0.824
			c-2.449,1.15-4.916,2.234-7.4,3.25c-0.383,0.15-0.766,0.143-1.148-0.025c-0.389-0.156-0.664-0.422-0.826-0.799
			c-0.15-0.385-0.143-0.768,0.025-1.15c0.156-0.387,0.422-0.662,0.801-0.826c2.449-0.982,4.883-2.033,7.299-3.148
			C504.055,319.28,504.438,319.263,504.826,319.405z M509.076,316.806c2.342-1.184,4.65-2.434,6.926-3.75
			c0.355-0.207,0.73-0.258,1.125-0.15c0.402,0.107,0.711,0.342,0.924,0.699c0.207,0.355,0.258,0.73,0.15,1.125
			c-0.107,0.404-0.342,0.713-0.699,0.926c-2.326,1.352-4.684,2.635-7.076,3.85c-0.373,0.184-0.756,0.209-1.15,0.076
			c-0.385-0.131-0.668-0.381-0.85-0.75c-0.191-0.373-0.225-0.756-0.1-1.15C508.457,317.286,508.707,316.995,509.076,316.806z
			 M527.752,305.581c0.342-0.238,0.717-0.322,1.125-0.25c0.4,0.074,0.717,0.283,0.949,0.625c0.238,0.342,0.322,0.717,0.25,1.125
			c-0.076,0.4-0.283,0.717-0.625,0.949c-2.217,1.551-4.467,3.051-6.75,4.5c-0.35,0.223-0.725,0.289-1.125,0.199
			c-0.406-0.094-0.725-0.32-0.949-0.674c-0.225-0.35-0.291-0.725-0.201-1.125c0.096-0.406,0.32-0.723,0.676-0.951
			C523.352,308.563,525.568,307.097,527.752,305.581z M542.801,294.28c0.023-0.416,0.191-0.768,0.5-1.051
			c1.916-1.717,3.816-3.482,5.701-5.299c0.303-0.289,0.66-0.432,1.074-0.426c0.412,0.006,0.762,0.154,1.051,0.451
			c0.289,0.301,0.43,0.66,0.424,1.074c-0.006,0.412-0.156,0.762-0.449,1.051c-1.916,1.85-3.85,3.65-5.801,5.398
			c-0.307,0.275-0.666,0.4-1.074,0.375c-0.418-0.023-0.768-0.189-1.051-0.5C542.9,295.048,542.775,294.69,542.801,294.28z
			 M538.801,297.104c0.322-0.268,0.689-0.385,1.1-0.35c0.408,0.043,0.74,0.227,1,0.551c0.27,0.322,0.387,0.688,0.352,1.1
			c-0.045,0.406-0.229,0.74-0.551,1c-2.084,1.717-4.184,3.385-6.301,5c-0.326,0.244-0.693,0.336-1.1,0.275
			c-0.412-0.055-0.744-0.246-1-0.576c-0.244-0.326-0.336-0.693-0.275-1.1c0.055-0.41,0.246-0.744,0.576-1
			C534.684,300.421,536.75,298.788,538.801,297.104z M436.852,380.979c0.025,0.414-0.1,0.781-0.375,1.102
			c-1.908,2.223-3.85,4.205-5.826,5.949c-0.316,0.275-0.684,0.4-1.1,0.375c-0.41-0.023-0.752-0.191-1.025-0.5
			c-0.275-0.316-0.4-0.684-0.375-1.1c0.025-0.41,0.191-0.752,0.5-1.025c1.891-1.656,3.75-3.539,5.576-5.65
			c0.262-0.314,0.596-0.49,1-0.525c0.414-0.025,0.781,0.1,1.1,0.375C436.643,380.243,436.818,380.577,436.852,380.979z
			 M423.977,389.405c0.346-0.23,0.721-0.305,1.125-0.225c0.402,0.084,0.719,0.301,0.949,0.65c0.23,0.344,0.307,0.719,0.225,1.125
			c-0.084,0.402-0.301,0.719-0.648,0.949c-2.424,1.629-4.883,2.945-7.375,3.949c-0.377,0.152-0.752,0.143-1.125-0.023
			c-0.389-0.166-0.664-0.441-0.826-0.826c-0.15-0.375-0.143-0.75,0.025-1.125c0.166-0.387,0.439-0.662,0.824-0.824
			C419.457,392.126,421.732,390.909,423.977,389.405z M443.426,368.206c0.4-0.1,0.775-0.041,1.125,0.174
			c0.346,0.227,0.562,0.543,0.65,0.951c0.098,0.4,0.039,0.775-0.176,1.125c-1.523,2.436-3.066,4.701-4.625,6.799
			c-0.244,0.328-0.57,0.52-0.975,0.576c-0.412,0.062-0.787-0.029-1.125-0.275c-0.328-0.244-0.52-0.57-0.574-0.975
			c-0.062-0.412,0.029-0.787,0.275-1.125c1.508-2.037,2.998-4.236,4.475-6.602C442.703,368.509,443.02,368.292,443.426,368.206z
			 M445.352,364.854c-0.109-0.391-0.059-0.766,0.15-1.125c1.248-2.25,2.482-4.617,3.699-7.1c0.189-0.369,0.48-0.619,0.875-0.75
			c0.393-0.133,0.775-0.107,1.15,0.076c0.369,0.188,0.619,0.479,0.75,0.875c0.133,0.393,0.107,0.775-0.076,1.148
			c-1.25,2.52-2.516,4.918-3.799,7.201c-0.203,0.365-0.504,0.605-0.9,0.725c-0.393,0.107-0.768,0.059-1.125-0.15
			C445.711,365.552,445.469,365.253,445.352,364.854z M477.576,328.755c0.395-0.107,0.77-0.057,1.125,0.15
			c0.359,0.215,0.594,0.521,0.699,0.926c0.107,0.395,0.059,0.77-0.148,1.125c-0.215,0.359-0.523,0.592-0.926,0.699
			c-2.592,0.676-5.199,1.283-7.824,1.824c-0.404,0.082-0.779,0.006-1.125-0.225c-0.35-0.229-0.566-0.545-0.65-0.949
			c-0.082-0.404-0.006-0.779,0.225-1.125c0.229-0.348,0.545-0.564,0.949-0.65C472.477,330.005,475.035,329.413,477.576,328.755z
			 M482.377,327.905c0.199-0.363,0.5-0.605,0.898-0.725c2.541-0.76,5.051-1.584,7.525-2.475c0.381-0.143,0.756-0.125,1.125,0.049
			c0.375,0.178,0.635,0.461,0.775,0.85c0.143,0.383,0.125,0.758-0.051,1.125c-0.176,0.375-0.459,0.635-0.85,0.775
			c-2.525,0.91-5.082,1.752-7.674,2.525c-0.391,0.125-0.766,0.092-1.125-0.1c-0.365-0.201-0.607-0.502-0.727-0.9
			C482.15,328.64,482.184,328.265,482.377,327.905z M454.852,344.03c0.162-0.377,0.438-0.643,0.824-0.801
			c0.383-0.166,0.768-0.176,1.15-0.023c0.377,0.162,0.643,0.438,0.801,0.824c0.166,0.383,0.174,0.766,0.023,1.15
			c-1.041,2.551-2.1,5.018-3.174,7.4c-0.178,0.373-0.461,0.631-0.85,0.773c-0.389,0.152-0.771,0.143-1.15-0.023
			c-0.375-0.176-0.633-0.461-0.775-0.852c-0.15-0.387-0.143-0.77,0.025-1.148C452.785,348.979,453.826,346.546,454.852,344.03z
			 M459.502,332.604c0.213-0.176,0.453-0.283,0.725-0.324c1.283-0.199,2.566-0.416,3.85-0.65c0.408-0.07,0.783,0.012,1.125,0.25
			c0.342,0.232,0.551,0.549,0.625,0.951c0.072,0.408-0.012,0.783-0.25,1.125c-0.232,0.342-0.549,0.549-0.949,0.625
			c-1.018,0.18-2.033,0.346-3.051,0.5c-0.545,1.531-1.104,3.021-1.676,4.475c-0.152,0.383-0.418,0.658-0.799,0.824
			c-0.381,0.168-0.766,0.176-1.15,0.025c-0.385-0.152-0.658-0.42-0.824-0.801c-0.168-0.381-0.176-0.764-0.025-1.148
			c0.658-1.684,1.299-3.418,1.924-5.201C459.123,332.997,459.283,332.78,459.502,332.604z M402.65,397.255
			c-0.023-0.418,0.102-0.783,0.375-1.1c0.281-0.309,0.633-0.477,1.051-0.5c2.24-0.127,4.467-0.369,6.676-0.725h-0.076
			c0.301-0.066,0.6-0.133,0.9-0.201c0.4-0.088,0.775-0.021,1.125,0.201c0.355,0.227,0.58,0.543,0.676,0.949
			c0.09,0.402,0.021,0.777-0.201,1.125c-0.227,0.355-0.543,0.58-0.949,0.676c-0.301,0.066-0.6,0.133-0.9,0.199
			c-0.025,0.002-0.051,0.002-0.074,0c-2.326,0.379-4.668,0.637-7.025,0.775c-0.41,0.025-0.768-0.1-1.076-0.375
			C402.842,398.007,402.676,397.665,402.65,397.255z M398.202,395.706c0.414,0.014,0.766,0.172,1.051,0.475
			c0.281,0.305,0.414,0.662,0.398,1.074c-0.014,0.416-0.172,0.766-0.475,1.051c-0.305,0.281-0.662,0.414-1.074,0.4
			c-2.734-0.105-5.467-0.381-8.201-0.826c-0.406-0.064-0.73-0.266-0.975-0.6c-0.238-0.34-0.32-0.715-0.25-1.125
			c0.064-0.406,0.266-0.732,0.6-0.975c0.34-0.238,0.715-0.322,1.125-0.25C393.002,395.351,395.602,395.61,398.202,395.706z
			 M375.276,393.431c-0.166-0.379-0.176-0.762-0.023-1.15c0.143-0.391,0.4-0.674,0.773-0.85c0.379-0.168,0.764-0.176,1.15-0.025
			c2.518,0.947,5.018,1.73,7.5,2.35c0.395,0.1,0.693,0.324,0.9,0.676c0.215,0.361,0.273,0.744,0.176,1.15
			c-0.1,0.393-0.324,0.693-0.676,0.898c-0.361,0.217-0.746,0.273-1.15,0.176c-2.582-0.646-5.184-1.463-7.799-2.449
			C375.737,394.062,375.452,393.804,375.276,393.431z M363.326,388.155c-0.365-0.203-0.606-0.504-0.725-0.9
			c-0.107-0.393-0.058-0.768,0.15-1.125c0.203-0.365,0.503-0.607,0.899-0.725c0.393-0.107,0.768-0.057,1.125,0.15
			c2.333,1.307,4.65,2.48,6.951,3.525c0.373,0.176,0.631,0.459,0.775,0.85c0.15,0.389,0.141,0.771-0.025,1.15
			c-0.178,0.373-0.461,0.633-0.85,0.773c-0.389,0.15-0.771,0.143-1.15-0.023C368.11,390.741,365.727,389.517,363.326,388.155z
			 M360.401,383.431c0.099,0.4,0.04,0.775-0.175,1.125c-0.226,0.346-0.543,0.562-0.95,0.65c-0.399,0.098-0.774,0.039-1.125-0.176
			c-0.597-0.375-1.196-0.768-1.8-1.176c-0.887,0.805-1.787,1.588-2.7,2.352c-0.312,0.268-0.671,0.383-1.075,0.35
			c-0.414-0.043-0.756-0.227-1.024-0.551c-0.269-0.312-0.385-0.67-0.351-1.074c0.043-0.414,0.227-0.756,0.551-1.025
			c1.183-0.984,2.35-2,3.5-3.051c0.255-0.24,0.555-0.373,0.899-0.398c0.354-0.021,0.68,0.07,0.976,0.273
			c0.875,0.617,1.75,1.199,2.625,1.75C360.097,382.706,360.313,383.022,360.401,383.431z M340.227,393.405
			c0.066-0.408,0.267-0.732,0.6-0.975c2.117-1.518,4.217-3.102,6.301-4.75c0.325-0.262,0.691-0.369,1.1-0.326
			c0.409,0.055,0.743,0.246,1,0.576c0.261,0.324,0.369,0.691,0.325,1.1c-0.055,0.41-0.246,0.742-0.575,1
			c-2.116,1.684-4.25,3.301-6.4,4.85c-0.341,0.238-0.716,0.322-1.125,0.25c-0.407-0.064-0.732-0.266-0.975-0.6
			C340.238,394.19,340.155,393.815,340.227,393.405z M335.927,395.905c0.346-0.23,0.721-0.305,1.125-0.225
			c0.403,0.084,0.72,0.301,0.95,0.65c0.23,0.344,0.306,0.719,0.225,1.125c-0.085,0.402-0.302,0.719-0.65,0.949
			c-2.241,1.508-4.499,2.967-6.774,4.375c-0.36,0.215-0.744,0.273-1.15,0.176c-0.4-0.098-0.708-0.322-0.925-0.676
			c-0.215-0.352-0.273-0.727-0.175-1.125c0.089-0.4,0.306-0.709,0.649-0.926C331.46,398.839,333.701,397.397,335.927,395.905z
			 M352.302,17.005c0.936-0.708,1.878-1.399,2.825-2.075c0.341-0.238,0.716-0.321,1.125-0.25c0.408,0.066,0.732,0.266,0.975,0.6
			c0.238,0.341,0.321,0.716,0.25,1.125c-0.066,0.408-0.267,0.733-0.6,0.975c-1.25,0.884-2.483,1.8-3.7,2.75
			c-0.287,0.224-0.612,0.333-0.976,0.325c-0.36-0.011-0.677-0.136-0.949-0.375c-0.792-0.692-1.601-1.383-2.426-2.075
			c-0.315-0.271-0.49-0.612-0.524-1.025c-0.035-0.414,0.082-0.78,0.35-1.1c0.27-0.316,0.611-0.491,1.025-0.525
			c0.413-0.034,0.78,0.083,1.1,0.35C351.295,16.142,351.804,16.575,352.302,17.005z M346.076,11.93c0.329,0.257,0.521,0.59,0.575,1
			c0.045,0.409-0.063,0.775-0.325,1.1c-0.256,0.33-0.59,0.521-1,0.575c-0.407,0.044-0.773-0.064-1.1-0.325
			c-2.018-1.583-4.117-3.15-6.3-4.7c-0.334-0.242-0.533-0.567-0.601-0.975c-0.071-0.41,0.013-0.785,0.25-1.125
			c0.242-0.334,0.567-0.535,0.976-0.6c0.408-0.071,0.783,0.012,1.125,0.25C341.894,8.713,344.027,10.313,346.076,11.93z
			 M366.951,7.305c0.355-0.207,0.73-0.257,1.125-0.15c0.403,0.107,0.712,0.34,0.926,0.7c0.207,0.354,0.256,0.729,0.149,1.125
			c-0.107,0.402-0.341,0.711-0.7,0.925c-2.308,1.351-4.549,2.734-6.725,4.15c-0.348,0.231-0.723,0.306-1.125,0.225
			c-0.405-0.086-0.722-0.302-0.95-0.65c-0.231-0.347-0.306-0.722-0.225-1.125c0.086-0.405,0.303-0.721,0.649-0.95
			C362.301,10.105,364.593,8.688,366.951,7.305z M465.076,67.98c0.4,2.102,0.775,4.251,1.125,6.45c0.266,0.097,0.49,0.263,0.676,0.5
			c0.26,0.326,0.369,0.692,0.324,1.1c-0.055,0.411-0.246,0.744-0.574,1c-0.326,0.261-0.693,0.37-1.102,0.325
			c-0.266-0.033-0.533-0.067-0.799-0.1c-0.338-0.045-0.629-0.187-0.875-0.425c-0.236-0.235-0.379-0.519-0.426-0.85
			c-0.4-2.55-0.834-5.033-1.299-7.45c-0.082-0.406-0.006-0.781,0.225-1.125c0.238-0.341,0.562-0.549,0.975-0.625
			c0.406-0.081,0.781-0.006,1.125,0.225C464.791,67.244,465,67.569,465.076,67.98z M461.301,53.605
			c0.359,0.204,0.592,0.504,0.701,0.9c0.674,2.491,1.299,5.049,1.875,7.675c0.08,0.401,0.006,0.776-0.227,1.125
			c-0.219,0.355-0.527,0.58-0.924,0.675c-0.402,0.082-0.777,0.006-1.125-0.225c-0.355-0.218-0.58-0.526-0.676-0.925
			c-0.559-2.575-1.166-5.083-1.824-7.525c-0.107-0.402-0.059-0.786,0.15-1.15c0.203-0.359,0.504-0.592,0.898-0.7
			C460.555,53.348,460.938,53.397,461.301,53.605z M470.926,75.706c0.346-0.231,0.721-0.306,1.125-0.225
			c2.684,0.541,5.334,1.133,7.951,1.775c0.4,0.097,0.707,0.322,0.924,0.675c0.215,0.352,0.273,0.727,0.176,1.125
			c-0.098,0.401-0.322,0.709-0.676,0.925c-0.352,0.215-0.727,0.273-1.125,0.175c-2.584-0.625-5.199-1.2-7.85-1.725
			c-0.404-0.085-0.721-0.302-0.949-0.65c-0.232-0.345-0.307-0.72-0.227-1.125C470.361,76.251,470.578,75.935,470.926,75.706z
			 M440.102,12.206c0.295,0.289,0.445,0.639,0.449,1.05c-0.004,0.411-0.152,0.761-0.449,1.05c-0.289,0.297-0.641,0.447-1.051,0.45
			c-0.41-0.003-0.76-0.154-1.049-0.45c-1.879-1.877-3.836-3.561-5.875-5.05c-0.336-0.244-0.535-0.569-0.602-0.975
			c-0.062-0.403,0.029-0.77,0.275-1.1c0.244-0.335,0.568-0.535,0.975-0.6c0.402-0.062,0.77,0.029,1.102,0.275
			C436.037,8.433,438.111,10.216,440.102,12.206z M454.951,42.28c-0.15-0.387-0.143-0.771,0.025-1.15
			c0.176-0.374,0.459-0.632,0.85-0.775c0.387-0.151,0.771-0.143,1.15,0.025c0.373,0.175,0.631,0.459,0.775,0.85
			c0.908,2.424,1.766,4.949,2.574,7.575c0.125,0.397,0.092,0.781-0.1,1.15c-0.191,0.363-0.484,0.605-0.875,0.725
			c-0.398,0.125-0.781,0.092-1.15-0.1c-0.363-0.191-0.605-0.483-0.725-0.875C456.684,47.131,455.842,44.657,454.951,42.28z
			 M449.326,29.88c-0.199-0.368-0.242-0.751-0.125-1.15c0.117-0.39,0.359-0.681,0.725-0.875c0.367-0.208,0.75-0.258,1.15-0.15
			c0.396,0.119,0.697,0.36,0.9,0.725c1.25,2.273,2.434,4.681,3.549,7.225c0.168,0.383,0.176,0.766,0.025,1.15
			c-0.152,0.384-0.418,0.659-0.799,0.825c-0.383,0.167-0.766,0.176-1.15,0.025c-0.385-0.154-0.66-0.42-0.826-0.8
			C451.691,34.399,450.541,32.074,449.326,29.88z M448.451,25.355c-0.348,0.231-0.723,0.307-1.125,0.225
			c-0.406-0.095-0.723-0.32-0.949-0.675c-1.428-2.247-2.936-4.347-4.525-6.3c-0.27-0.324-0.387-0.69-0.35-1.1
			c0.043-0.408,0.227-0.741,0.549-1c0.322-0.269,0.689-0.386,1.1-0.35c0.408,0.045,0.742,0.228,1,0.55
			c1.678,2.046,3.27,4.246,4.775,6.6c0.223,0.349,0.289,0.724,0.201,1.125C449.031,24.828,448.807,25.137,448.451,25.355z
			 M540.752,112.405c-0.414,0.015-0.771-0.118-1.076-0.4c-1.908-1.816-3.867-3.566-5.875-5.25c-0.322-0.27-0.506-0.611-0.549-1.025
			c-0.035-0.405,0.08-0.763,0.35-1.075c0.27-0.324,0.611-0.507,1.025-0.55c0.402-0.035,0.762,0.082,1.074,0.35
			c2.059,1.716,4.066,3.499,6.025,5.35c0.301,0.287,0.459,0.637,0.475,1.05s-0.119,0.772-0.4,1.075
			C541.516,112.233,541.164,112.392,540.752,112.405z M550.076,122.505c-0.414-0.043-0.756-0.227-1.025-0.55
			c-1.676-2-3.418-3.933-5.225-5.8c-0.289-0.303-0.432-0.661-0.426-1.075c0.006-0.413,0.156-0.763,0.451-1.05
			c0.301-0.29,0.66-0.431,1.074-0.425c0.412,0.005,0.762,0.155,1.051,0.45c1.859,1.933,3.65,3.933,5.375,6
			c0.268,0.313,0.385,0.671,0.35,1.075c-0.043,0.414-0.227,0.756-0.551,1.025C550.84,122.424,550.48,122.54,550.076,122.505z
			 M522.775,98.555c-0.348-0.229-0.564-0.546-0.648-0.95c-0.082-0.404-0.008-0.779,0.225-1.125c0.229-0.348,0.545-0.564,0.949-0.65
			c0.404-0.081,0.779-0.006,1.125,0.225c2.26,1.483,4.467,3.033,6.625,4.65c0.328,0.254,0.52,0.587,0.576,1
			c0.061,0.405-0.031,0.771-0.275,1.1c-0.254,0.329-0.588,0.52-1,0.575c-0.404,0.062-0.771-0.03-1.1-0.275
			C527.143,101.522,524.984,100.006,522.775,98.555z M511.076,88.88c0.395-0.133,0.777-0.108,1.15,0.075
			c2.393,1.216,4.732,2.499,7.025,3.85c0.357,0.214,0.592,0.522,0.699,0.925c0.107,0.396,0.057,0.771-0.15,1.125
			c-0.213,0.36-0.521,0.593-0.924,0.7c-0.396,0.107-0.771,0.058-1.125-0.15c-2.244-1.316-4.535-2.566-6.875-3.75
			c-0.371-0.19-0.621-0.481-0.75-0.875c-0.127-0.395-0.094-0.778,0.1-1.15C510.408,89.26,510.691,89.01,511.076,88.88z
			 M494.451,81.956c0.184,0.375,0.209,0.758,0.074,1.15c-0.139,0.387-0.398,0.671-0.773,0.85c-0.375,0.183-0.76,0.208-1.15,0.075
			c-2.469-0.857-4.984-1.649-7.551-2.375c-0.398-0.118-0.697-0.359-0.9-0.725c-0.207-0.357-0.258-0.732-0.148-1.125
			c0.117-0.397,0.357-0.697,0.725-0.9c0.357-0.208,0.732-0.257,1.125-0.15c2.633,0.741,5.217,1.549,7.75,2.425
			C493.988,81.321,494.271,81.579,494.451,81.956z M497.301,84.081c0.152-0.391,0.418-0.675,0.801-0.85
			c0.371-0.167,0.746-0.175,1.125-0.025c2.566,0.974,5.084,2.016,7.549,3.125c0.375,0.176,0.633,0.459,0.775,0.85
			c0.15,0.388,0.143,0.771-0.025,1.15c-0.176,0.374-0.459,0.632-0.85,0.775c-0.387,0.15-0.77,0.142-1.15-0.025
			c-2.4-1.091-4.85-2.116-7.35-3.075c-0.391-0.152-0.674-0.418-0.85-0.8C497.158,84.834,497.15,84.459,497.301,84.081z
			 M422.377,0.905c0.381-0.15,0.766-0.142,1.148,0.025c1.795,0.755,3.52,1.613,5.176,2.575c0.359,0.214,0.592,0.523,0.699,0.925
			c0.107,0.396,0.059,0.771-0.148,1.125c-0.215,0.36-0.523,0.593-0.926,0.7c-0.396,0.106-0.771,0.057-1.125-0.15
			c-1.545-0.905-3.152-1.713-4.824-2.425c-0.387-0.156-0.662-0.423-0.826-0.8c-0.15-0.383-0.143-0.767,0.025-1.15
			C421.732,1.343,422,1.068,422.377,0.905z M379.352,0.706c0.375-0.184,0.76-0.209,1.15-0.075c0.387,0.141,0.67,0.399,0.85,0.775
			c0.184,0.376,0.209,0.759,0.074,1.15c-0.141,0.388-0.398,0.671-0.775,0.85c-2.416,1.159-4.766,2.351-7.049,3.575
			c-0.361,0.191-0.736,0.225-1.125,0.1c-0.4-0.119-0.699-0.361-0.9-0.725c-0.191-0.36-0.225-0.735-0.1-1.125
			c0.119-0.399,0.361-0.699,0.725-0.9C374.518,3.088,376.901,1.88,379.352,0.706z M329.252,0.855
			c0.398-0.098,0.773-0.04,1.125,0.175c1.475,0.908,2.916,1.817,4.324,2.725c0.354,0.219,0.579,0.527,0.676,0.925
			c0.081,0.402,0.006,0.777-0.226,1.125c-0.219,0.355-0.527,0.581-0.925,0.675c-0.4,0.081-0.775,0.006-1.125-0.225
			c-1.392-0.892-2.817-1.783-4.275-2.675c-0.353-0.217-0.578-0.526-0.675-0.925c-0.099-0.399-0.04-0.774,0.175-1.125
			C328.543,1.177,328.852,0.952,329.252,0.855z M221.151,0.206c0.356-0.208,0.731-0.258,1.125-0.15
			c0.404,0.107,0.712,0.341,0.925,0.7c0.208,0.355,0.257,0.73,0.15,1.125c-0.108,0.403-0.342,0.711-0.7,0.925
			c-2.192,1.278-4.4,2.703-6.625,4.275c-0.342,0.238-0.717,0.321-1.125,0.25c-0.409-0.075-0.733-0.283-0.975-0.625
			c-0.239-0.333-0.322-0.7-0.25-1.1c0.067-0.409,0.267-0.734,0.6-0.975C216.584,3.003,218.876,1.528,221.151,0.206z M127.726,0.43
			c0.385-0.159,0.769-0.159,1.15,0c0.377,0.155,0.644,0.421,0.8,0.8c0.159,0.384,0.159,0.767,0,1.15
			c-0.156,0.377-0.423,0.644-0.8,0.8c-2.397,1.005-4.697,2.171-6.9,3.5c-0.353,0.215-0.728,0.273-1.125,0.175
			c-0.401-0.098-0.709-0.322-0.925-0.675c-0.216-0.352-0.274-0.727-0.175-1.125c0.098-0.4,0.323-0.709,0.675-0.925
			C122.756,2.726,125.19,1.492,127.726,0.43z"/>
		<path fill-rule="evenodd" clip-rule="evenodd" fill="#AFC235" d="M375.551,111.605h32.8v22.8h-11.4l1.199,63.9h-12.6v-61.45h-10
			V111.605z M464.701,146.956h15.5v14.75H464.15v8.85h18.551v26.95h-28.4v-85.45h27.951v22.6h-17.551V146.956z M408.9,245.604
			v21.551c0.102,21.1-4.648,31.518-14.25,31.25h-21.949v-83.6l24.15-0.399C405.084,213.972,409.102,224.372,408.9,245.604z
			 M382.551,243.056v31.4h8.051c5.365,0.033,8.283-3.385,8.75-10.25v-9.301c0-8.434-2.367-12.449-7.1-12.051L382.551,243.056z
			 M330.852,238.505v6.451c-0.366,7.699,1.533,11.35,5.7,10.949h3.5c7.5-0.367,11.483,4.283,11.95,13.949v12.201
			c-0.934,11.4-5.684,17.75-14.25,19.049h-9.65c-8.2-0.432-12.066-5.666-11.6-15.699v-12.449h12.05c-0.3,5.1,1.316,7.566,4.85,7.398
			c5.3,0.268,7.7-1.883,7.2-6.449c-0.533-4.967-2.017-7.482-4.45-7.551h-9c-7.633-0.066-11.184-6.316-10.649-18.75v-11.799
			c-0.4-16.833,4.666-24.717,15.199-23.65h4.75c9.267,0.133,13.767,5.933,13.5,17.4v17.699h-11.6v-8.1
			c0.434-5.967-0.684-8.867-3.35-8.699C332.168,230.155,330.785,232.839,330.852,238.505z M211.601,134.555v12.3h15.5v14.75h-16.05
			v8.85h18.55v26.95h-28.4v-85.45h27.95v22.6H211.601z M316.151,134.706h-11.399l1.199,63.95h-12.6v-61.5h-10v-25.2h32.8V134.706z
			 M140.851,143.505v18.9c0.167,23.934-4.783,36.167-14.85,36.7h-6.8c-10.233-0.133-15.383-11.067-15.45-32.8v-16.25
			c-0.8-27.233,4.6-40.4,16.2-39.5h6.25C136.234,109.489,141.118,120.472,140.851,143.505z M123.651,171.055
			c6.367,0.2,9.417-6.35,9.15-19.65c0.033-11.5-3.417-16.933-10.35-16.3c-6.9-0.667-10.167,5.1-9.8,17.3
			C112.951,164.572,116.618,170.789,123.651,171.055z M150.701,213.706h32.8v22.75h-11.4l1.25,63.949h-12.65v-61.5h-10V213.706z
			 M257.951,214.206v22.649h-17.55v12.301h15.5v14.75h-16.05v8.85h18.55v26.951h-28.4v-85.5H257.951z"/>
		<path fill-rule="evenodd" clip-rule="evenodd" fill="#DEE33F" d="M348.451,146.655c0.034-11.5-3.416-16.95-10.35-16.35
			c-6.9-0.633-10.184,5.133-9.85,17.3c0.333,12.2,4.017,18.417,11.05,18.65C345.635,166.489,348.685,159.956,348.451,146.655z
			 M356.451,138.706v18.95c0.2,23.934-4.733,36.167-14.8,36.7h-6.8c-10.233-0.133-15.384-11.067-15.45-32.8v-16.3
			c-0.8-27.2,4.601-40.367,16.2-39.5h6.25C351.852,104.688,356.718,115.672,356.451,138.706z M438.602,106.105h11.199v87.6h-13.85
			v-26.45h-13.35v25.45h-11.75l0.299-84.75h13.102v38.2h14.35V106.105z M441.451,211.105v22.65H423.9v12.301h15.5v14.75h-16.049
			v8.85H441.9v26.949h-28.398v-85.5H441.451z M354.901,293.956v-82.25l13.75,0.149c-0.767,27.367-0.767,54.734,0,82.101H354.901z
			 M232.451,107.555h32.8v22.75h-11.4l1.2,63.95h-12.6v-61.45h-10V107.555z M173.901,145.155h23.55v27.6
			c0.267,13.9-4.117,21.217-13.15,21.95h-8.2c-10.567-0.3-15.783-11.333-15.65-33.1v-18.45c-1.067-26.566,5.467-39.183,19.6-37.85
			c10.466-1.1,16.05,6.034,16.75,21.4v10.9h-10.75c-0.267-5.633-2.233-8.35-5.9-8.15h-2.2c-4.9,0.6-7.6,3.9-8.1,9.9
			c-0.8,8.867-0.9,17.767-0.3,26.7c0.4,5.967,3.35,9.133,8.85,9.5h2.15c4.267-1.167,6.066-4.333,5.4-9.5h-12.05V145.155z
			 M68.401,107.706h32.8v22.75h-11.4l1.2,63.95h-12.6v-61.45h-10V107.706z M147.651,241.905v18.949
			c0.167,23.934-4.783,36.168-14.85,36.701h-6.8c-10.233-0.133-15.383-11.066-15.45-32.801v-16.299
			c-0.8-27.201,4.6-40.368,16.2-39.5h6.25C143.034,207.889,147.918,218.872,147.651,241.905z M280.802,230.005h-7.101l-0.15,19.6
			h7.15c3.434-0.299,5.034-3.883,4.801-10.75C285.735,233.056,284.168,230.104,280.802,230.005z M296.701,228.505v13.25
			c-0.199,9.9-3.017,15.75-8.449,17.551c2.733,0.666,4.616,1.982,5.649,3.949c2.667,5.301,3.684,16.783,3.05,34.451h-13.75v-16.4
			c0.034-6.5-1.833-9.518-5.6-9.051h-4.95v23.9h-11.05v-86.05l26.25-0.149C293.752,210.156,296.701,216.338,296.701,228.505z
			 M130.451,269.456c6.367,0.232,9.417-6.301,9.15-19.602c0.033-11.5-3.417-16.949-10.35-16.35c-6.9-0.633-10.167,5.135-9.8,17.301
			C119.751,263.005,123.418,269.222,130.451,269.456z M225.401,209.305v87.6h-13.85v-26.449h-13.35v25.449h-11.8l0.3-84.75h13.15
			v38.199h14.35v-40.049H225.401z"/>
	</g>
</g>
</svg>
