<?xml version="1.0" encoding="utf-8"?>
<!-- Generator: Adobe Illustrator 15.1.0, SVG Export Plug-In . SVG Version: 6.00 Build 0)  -->
<!DOCTYPE svg PUBLIC "-//W3C//DTD SVG 1.1//EN" "http://www.w3.org/Graphics/SVG/1.1/DTD/svg11.dtd">
<svg version="1.1" id="Layer_1" xmlns="http://www.w3.org/2000/svg" xmlns:xlink="http://www.w3.org/1999/xlink" x="0px" y="0px"
	 width="800px" height="600px" viewBox="0 0 800 600" enable-background="new 0 0 800 600" xml:space="preserve">
<g>
	<g id="Selected_Items">
		<path fill-rule="evenodd" clip-rule="evenodd" fill="#8057A6" d="M541.725,52.05v-0.025l-0.05-1.075l0.025,0.025L565.35,63.7
			l0.025,0.025l-0.101,1.45L563.7,95.1l-19,16L541.725,52.05l23.55,13.125L541.725,52.05z M469.149,61.55l29-12l9,142.55l-30.5,5
			L469.149,61.55z M453.1,112.1l9.5,72.5l-37.5,4.5v-71.5L453.1,112.1z M166.05,279.649h-31l-7.5-169.6l32.5-12.5L166.05,279.649z
			 M112.55,161.05l15,107.05l-43,2.5V166.55L112.55,161.05z M43.05,279.649V251.1l26.5-11.5v40.05H43.05z M259.1,0.1v86.5
			l-19.55,14.5l-5.5-101H259.1z M329.6,0.1h31v16.5l-31-7V0.1z M374.1,268.6l-10,0.5l13.5-151.5l17.5,5L374.1,268.6z M24,0.1v33
			L0,26.6V0.1H24z M58.05,134.05l-9.5,71.05h-15.5l3.5-81.55L58.05,134.05z"/>
		<path fill-rule="evenodd" clip-rule="evenodd" fill="#734F97" d="M234.05,0.1l5.5,101l19.55-14.5V0.1h70.5v9.5l31,7V0.1l87.8-0.1
			l49.75,27.475l43.525,23.475l0.05,1.075v0.025l2.976,59.05l19-16l1.574-29.925l0.101-1.45l43.175,23.3v192.625h-442.5l-6-182.1
			l-32.5,12.5l7.5,169.6h-65.5V239.6l-26.5,11.5v28.55H0V26.6l24,6.5v-33H234.05z M469.149,61.55l7.5,135.55l30.5-5l-9-142.55
			L469.149,61.55z M453.1,112.1l-28,5.5v71.5l37.5-4.5L453.1,112.1z M112.55,161.05l-28,5.5V270.6l43-2.5L112.55,161.05z
			 M374.1,268.6l21-146l-17.5-5l-13.5,151.5L374.1,268.6z M58.05,134.05l-21.5-10.5l-3.5,81.55h15.5L58.05,134.05z"/>
		<polygon fill-rule="evenodd" clip-rule="evenodd" fill="#5D407A" points="541.675,50.95 541.625,49.75 538.95,0.1 568.7,0.1 
			565.425,62.325 565.375,63.725 565.35,63.7 541.7,50.975 		"/>
		<path fill-rule="evenodd" clip-rule="evenodd" fill="#634581" d="M608.55,87.025l-43.175-23.3l0.05-1.4L568.7,0.1h39.85V87.025z
			 M448.399,0l90.551,0.1l2.675,49.65l0.05,1.2l-43.525-23.475L448.399,0z"/>
		<polygon fill-rule="evenodd" clip-rule="evenodd" fill="#6C3F90" points="608.55,300.149 0.425,300.149 0,279.649 43.05,279.649 
			69.55,279.649 135.05,279.649 166.05,279.649 608.55,279.649 		"/>
		<polygon fill-rule="evenodd" clip-rule="evenodd" fill="#563E78" points="608.55,300.149 608.55,341 0.5,341 0.425,300.149 		"/>
		
			<polyline fill-rule="evenodd" clip-rule="evenodd" fill="none" stroke="#5D407A" stroke-width="2" stroke-linecap="round" stroke-linejoin="round" stroke-miterlimit="3" points="
			565.425,62.325 568.7,0.1 538.95,0.1 541.625,49.75 		"/>
		
			<path fill-rule="evenodd" clip-rule="evenodd" fill="none" stroke="#634581" stroke-width="2" stroke-linecap="round" stroke-linejoin="round" stroke-miterlimit="3" d="
			M608.55,87.025V0.1H568.7 M538.95,0.1L448.399,0"/>
		
			<path fill-rule="evenodd" clip-rule="evenodd" fill="none" stroke="#8057A6" stroke-width="2" stroke-linecap="round" stroke-linejoin="round" stroke-miterlimit="3" d="
			M541.725,52.05l2.976,59.05l19-16l1.574-29.925L541.725,52.05z M469.149,61.55l7.5,135.55l30.5-5l-9-142.55L469.149,61.55z
			 M541.725,52.025v0.025 M453.1,112.1l9.5,72.5l-37.5,4.5v-71.5L453.1,112.1z M166.05,279.649h-31l-7.5-169.6l32.5-12.5
			L166.05,279.649z M69.55,279.649h-26.5V251.1l26.5-11.5V279.649z M329.6,0.1v9.5l31,7V0.1H329.6z M259.1,0.1h-25.05l5.5,101
			l19.55-14.5V0.1z M112.55,161.05l15,107.05l-43,2.5V166.55L112.55,161.05z M374.1,268.6l21-146l-17.5-5l-13.5,151.5L374.1,268.6z
			 M24,0.1H0v26.5l24,6.5V0.1z M58.05,134.05l-9.5,71.05h-15.5l3.5-81.55L58.05,134.05z"/>
		
			<path fill-rule="evenodd" clip-rule="evenodd" fill="none" stroke="#6C3F90" stroke-width="2" stroke-linecap="round" stroke-linejoin="round" stroke-miterlimit="3" d="
			M608.55,300.149v-20.5 M0,279.649l0.425,20.5"/>
		
			<polyline fill-rule="evenodd" clip-rule="evenodd" fill="none" stroke="#563E78" stroke-width="2" stroke-linecap="round" stroke-linejoin="round" stroke-miterlimit="3" points="
			0.425,300.149 0.5,341 608.55,341 608.55,300.149 		"/>
		
			<path fill-rule="evenodd" clip-rule="evenodd" fill="none" stroke="#734F97" stroke-width="2" stroke-linecap="round" stroke-linejoin="round" stroke-miterlimit="3" d="
			M608.55,279.649V87.025 M329.6,0.1h-70.5 M448.399,0l-87.8,0.1 M0,26.6v253.05 M234.05,0.1H24"/>
		
			<path fill-rule="evenodd" clip-rule="evenodd" fill="none" stroke="#775CAB" stroke-width="2" stroke-linecap="round" stroke-linejoin="round" stroke-miterlimit="3" d="
			M469.649,300.149L487.375,341 M585.2,300.149l23.35,11.5 M324.15,300.149V341"/>
		
			<path fill-rule="evenodd" clip-rule="evenodd" fill="none" stroke="#775CAB" stroke-width="2" stroke-linejoin="round" stroke-miterlimit="3" d="
			M225.35,300.149L192.975,341 M106.85,300.149L49.2,341"/>
		
			<line fill-rule="evenodd" clip-rule="evenodd" fill="none" stroke="#000000" stroke-width="2" stroke-linecap="round" stroke-linejoin="round" stroke-miterlimit="3" x1="608.55" y1="300.149" x2="0.425" y2="300.149"/>
		
			<line fill-rule="evenodd" clip-rule="evenodd" fill="none" stroke="#000000" stroke-width="2" stroke-linecap="round" stroke-linejoin="round" stroke-miterlimit="3" x1="0" y1="279.649" x2="608.55" y2="279.649"/>
		
			<path fill-rule="evenodd" clip-rule="evenodd" fill="none" stroke="#000000" stroke-width="2" stroke-linecap="round" stroke-linejoin="round" stroke-miterlimit="3" d="
			M303.65,279.649V44.05H442.1V145.6h56.05V0.1 M442.1,145.6v134.05"/>
		<polygon fill-rule="evenodd" clip-rule="evenodd" fill="#8057A6" points="563.7,95.1 544.7,111.1 541.725,52.05 565.274,65.175 		
			"/>
	</g>
</g>
</svg>
