<?xml version="1.0" encoding="utf-8"?>
<svg 
	version="1.1" 
	id="logo" 
	xmlns="http://www.w3.org/2000/svg" 
	xmlns:xlink="http://www.w3.org/1999/xlink" 
	x="0px" 
	y="0px"
	width="125px" 
	height="165px">
<g>
	<path fill-rule="evenodd" clip-rule="evenodd" fill="#FFFFFF" d="M61.89,40.294c0.125,0.127,28.177,64.113,28.151,64.058
		c-6.141,0-12.254,0-18.385,0c0-0.197-8.708-20.861-8.617-20.969c-6.625,0-13.205,0-19.82,0
		C43.397,83.436,62.167,40.079,61.89,40.294L61.89,40.294z"/>
	<path fill-rule="evenodd" clip-rule="evenodd" fill="#FFFFFF" d="M2.142,1C2.285,1,45.22,1,45.229,1
		C45.354,0.973,2.428,104.344,2.285,104.209C2.285,104.065,2.186,0.928,2.142,1L2.142,1z"/>
	<path fill-rule="evenodd" clip-rule="evenodd" fill="#FFFFFF" d="M78.03,1h44.554c0,0.26-0.03,103.407-0.03,103.262
		C122.58,104.596,78.03,1,78.03,1L78.03,1z"/>
	<path fill-rule="evenodd" clip-rule="evenodd" fill="#FFFFFF" d="M19.639,120.518l9.573,40.963h-6.975l-1.641-7.666h-8.661
		l-1.596,7.666H3.366l9.572-40.963H19.639L19.639,120.518L19.639,120.518z M19.274,146.852l-3.008-15.332l-3.009,15.332H19.274
		L19.274,146.852z"/>
	<path fill-rule="evenodd" clip-rule="evenodd" fill="#FFFFFF" d="M44.896,161.481l-0.183-3.57h-0.228
		c-0.958,2.811-3.008,4.682-5.607,4.682c-6.154,0-8.752-7.197-8.752-16.092c0-7.607,1.915-15.859,8.843-15.859
		c2.416,0,3.555,0.879,5.288,3.16v-13.283h6.154v40.963H44.896L44.896,161.481L44.896,161.481z M40.52,136.668
		c-1.687,0-4.011,1.639-4.011,9.949c0,3.861,0.501,10.064,4.011,10.064c3.374,0,4.011-5.559,4.011-10.064
		C44.53,138.307,42.16,136.668,40.52,136.668L40.52,136.668z"/>
	<path fill-rule="evenodd" clip-rule="evenodd" fill="#FFFFFF" d="M54.745,146.559c0-9.188,3.191-15.918,10.439-15.918
		c7.202,0,10.438,6.73,10.438,15.918c0,9.305-3.282,16.033-10.438,16.033C57.982,162.592,54.745,155.864,54.745,146.559
		L54.745,146.559L54.745,146.559z M69.241,146.559c0-8.076-1.687-9.949-4.057-9.949c-1.869,0-4.057,1.404-4.057,9.949
		c0,8.719,2.188,10.064,4.057,10.064C67.828,156.624,69.241,154.167,69.241,146.559L69.241,146.559z"/>
	<path fill-rule="evenodd" clip-rule="evenodd" fill="#FFFFFF" d="M85.374,161.481h-5.516v-40.963h6.2v13.635
		c1.275-2.926,3.692-3.512,5.241-3.512c6.519,0,8.89,6.848,8.89,15.859c0,8.953-2.325,16.092-8.844,16.092
		c-2.689,0-4.285-1.346-5.606-4.682h-0.183L85.374,161.481L85.374,161.481L85.374,161.481z M89.795,156.624
		c3.373,0,4.012-5.559,4.012-10.064c0-8.311-2.371-9.949-4.012-9.949c-1.687,0-4.011,1.639-4.011,9.949
		C85.785,150.42,86.286,156.624,89.795,156.624L89.795,156.624z"/>
	<path fill-rule="evenodd" clip-rule="evenodd" fill="#FFFFFF" d="M123.533,152.879c-1.55,9.012-6.564,9.713-9.938,9.713
		c-3.783,0-10.257-1.404-10.257-16.033c0-10.184,4.194-15.918,10.713-15.918c4.103,0,9.892,2.283,9.892,16.502v1.639H109.72
		c0,7.023,2.416,7.842,4.148,7.842c1.413,0,2.871-0.41,3.465-3.744H123.533L123.533,152.879L123.533,152.879z M117.561,143.807
		c-0.183-6.027-1.642-7.197-3.692-7.197c-3.51,0-4.103,4.975-4.148,7.197H117.561L117.561,143.807z"/>
</g>
</svg>
