<?xml version="1.0" encoding="utf-8"?>
<!-- Generator: Adobe Illustrator 16.0.0, SVG Export Plug-In . SVG Version: 6.00 Build 0)  -->
<!DOCTYPE svg PUBLIC "-//W3C//DTD SVG 1.1//EN" "http://www.w3.org/Graphics/SVG/1.1/DTD/svg11.dtd">
<svg id="punchy" xmlns="http://www.w3.org/2000/svg" xmlns:xlink="http://www.w3.org/1999/xlink" x="0px" y="0px" width="458px"
	 height="580px" viewBox="0 0 458 580" xml:space="preserve">
<g id="body">
	<g>
		<path d="M369.045,507.699c0.02,0.328,0.018,0.646-0.016,0.957l5.604,33.373c0.257,1.502-0.011,3.004-0.757,4.309
			c-0.78,1.332-19.514,32.922-81.144,34.264c-1.101,0.021-2.167,0.035-3.25,0.035c-41.214,0-64.672-16.807-65.662-17.514
			c-1.18-0.871-2.045-2.117-2.418-3.525l-4.45-16.26c-3.124,1.762-6.382,3.018-9.319,4.053c-24.695,8.654-51.072,9.717-75.976,10.01
			l-0.62,0.012c-5.948,0-12.103-1.055-17.531-2.021l-0.473-0.055c-8.098-1.412-16.443-3.697-27.11-7.43l-0.407-0.109
			c-1.119-0.406-3.721-1.238-6.095-2.088c-3.903-1.438-9.242-3.414-8.329-9.111c0.141-0.955,3.63-21.434,22.957-56.207
			c-3.498,0.479-7.51,0.82-12.045,1.035c-6.253,2.766-12.416,4.684-17.911,5.59c-2.439,0.379-4.877,0.594-7.25,0.594
			c-16.458,0-38.722-9.543-51.396-55.076c-6.408-23.01,0.745-39.053,7.882-48.436c10.712-14.093,29.332-23.513,48.248-24.61
			c-0.609-10.25,4.178-20.344,13.096-26.391c2.37-1.577,4.895-2.81,7.565-3.668 M122.347,373.103c-2.511,0-4.882-1.459-5.929-3.865
			c-3.632-8.262-6.607-13.916-8.859-16.875c-0.342-0.419-0.619-0.896-0.822-1.411c-0.055-0.105-0.094-0.202-0.14-0.319
			c-1.301-2.694-0.589-5.936,1.717-7.832c2.32-1.896,5.633-1.986,8.027-0.156c8.263,6.208,16.943,11.632,25.77,16.111
			c2.655,1.365,4.061,4.334,3.377,7.262c-0.672,2.904-3.248,4.982-6.235,5.02c-4.516,0.057-9.85,0.301-15.113,1.824
			C123.555,373.05,122.947,373.103,122.347,373.103z"/>
	</g>
	<path fill="#808080" d="M153.023,364.567c-16.288,0.344-32.63-2.643-48.615,12.613c-15.985,15.253,19.816,72.751,26.63,56.7
		c6.825-16.012,22.561-42.855,22.561-42.855L153.023,364.567z"/>
	<path d="M120.276,362.12c0,0,20.93,9.359,15.165,28.856c-6.638,22.387-11.187,48.189-19.761,60.609
		c-36.993,53.625-42.181,86.023-42.181,86.023s29.662,14.051,61.942,13.371c32.277-0.705,66.483-6.633,78.026-15.705
		c11.55-9.043,0.621-12.42,0.621-12.42l9.575,35.006c0,0,23.434,17.115,64.912,16.221c58.685-1.244,75.676-30.979,75.676-30.979
		l-23.576-140.391c0,0-12.36-29.097-18.597-46.577c-6.28-17.486-12.636-40.833-12.636-40.833L120.276,362.12z"/>
	<path fill="#E6E6E6" d="M142.175,357.694c0,0,3.481,13.766,0.287,29.239c-4.715,22.881-14.206,52.232-22.781,64.652
		c-37.001,53.625-42.19,86.023-42.19,86.023s29.665,14.051,61.95,13.371c32.26-0.705,66.467-6.633,78.009-15.705
		c11.547-9.043,0.637-12.42,0.637-12.42l9.57,35.006c0,0,23.429,17.115,64.928,16.221c58.689-1.244,75.664-30.979,75.664-30.979
		l-23.57-140.391c0,0-12.365-29.097-18.636-46.577c-6.233-17.486-12.593-40.833-12.593-40.833L142.175,357.694z"/>
	<polygon fill="#F7323F" points="95.72,491.002 218.118,524.986 362.571,508.064 355.4,472.904 230.81,472.52 145.692,444.938 
		120.428,445.781 	"/>
	<path d="M129.446,432.881c0,0,110.653,23.543,161.068,13.938c47.547-9.078,48.395,29.766,48.395,29.766s-76.028,13.488-132.039,3
		c-56.016-10.453-88.758-30.27-88.758-30.27L129.446,432.881z"/>
	<path fill="#FFFFFF" d="M131.107,436.158c0,0,115.057,24.324,161.739,12.486c46.708-11.844,41.268,25.918,41.268,25.918
		s-68.946,11.686-124.94,2.199c-55.999-9.498-85.125-26.213-85.125-26.213L131.107,436.158z"/>
	<g>
		<path d="M223.162,541.457c-1.837-6.299-4.991,7.426-6.546-1.865c-2.994-17.971-4.574-15.945-24.496-21.695
			c-30.466-8.787-40.528-13.883-57.203-25.799c-13.088-9.328-16.081-14.77-16.081-14.77c0.099,0.074,6.961,7.41,26.926,17.381
			c22.435,11.221,30.326,13.885,54.911,19.943c9.343,2.32,16.454,4.984,17.245,8.287L223.162,541.457z"/>
	</g>
	<path d="M64.342,474.164c0,0,27.255,0.869,39.496-2.936c12.249-3.803,26.176-11.711,30.143-32.178
		c3.985-20.457,3.866-42.609,0.083-50.41c-3.796-7.813-15.21-40.111-22.372-44.16l-22.385,19.54l-45.627,66.292L64.342,474.164"/>
	<path fill="#F7323F" d="M62.342,475.152c0,0,27.26,0.883,39.496-2.938c12.25-3.789,26.175-11.695,30.152-32.17
		c3.968-20.455,3.856-42.602,0.075-50.416c-3.8-7.798-15.206-40.094-22.385-44.146l-22.37,19.528l-45.632,66.313L62.342,475.152"/>
	<path d="M114.034,411.906c-5.292-17.957-13.184-42.29-41.817-45.194c-28.633-2.916-69.016,19.192-56.517,64.089
		c12.494,44.893,33.791,50.514,51.351,49.807c38.914-1.559,41.111-15.293,46.854-26.557
		C118.906,444.201,120.971,435.361,114.034,411.906z"/>
	<path fill="#F7323F" d="M110.04,411.906c-5.299-17.957-11.131-42.892-39.756-45.786c-28.62-2.914-71.099,19.784-58.587,64.681
		c12.503,44.893,34.001,52.623,51.356,49.807c17.357-2.809,40.453-16.904,46.175-28.18
		C114.239,442.578,116.972,435.361,110.04,411.906z"/>
	<path d="M72.023,374.876c-7.221-10.695-4.383-25.196,6.289-32.381c10.699-7.213,25.197-4.405,32.396,6.285
		c7.208,10.682,4.374,25.184-6.3,32.404C93.729,388.385,79.217,385.557,72.023,374.876z"/>
	<path fill="#F7323F" d="M72.023,370.878c-7.221-10.688-4.383-25.182,6.289-32.399c10.699-7.203,25.197-4.37,32.396,6.302
		c7.208,10.701,4.374,25.185-6.3,32.4C93.729,384.385,79.217,381.571,72.023,370.878z"/>
	<path d="M80.476,475.008c0,0,10.121-0.43,15.567-1.477c5.469-1.029,20.294-6.229,26.793-15.594
		c6.499-9.352,9.72-16.195,11.012-30.008c1.304-13.754,1.521-18.088,1.277-22.52c-0.264-4.41-1.9-11.984-1.9-11.984
		s2.144,2.773,3.939,17.883c0.982,8.26-0.565,17.535-0.981,21.502c-0.696,6.582-3.131,15.57-6.931,21.145
		c-3.431,4.98-10.145,13.869-18.719,19.051c-8.583,5.201-15.606,19.768-13.697,7.037c0.353-2.385-17.161-0.533-17.161-0.533
		L80.476,475.008z"/>
	<path d="M352.613,498.096c-6.203-1.826-18.355-5.979-24.101-8.266c-5.726-2.295-17.885-8.258-21.79-11.916
		c-3.905-3.686-19.263-11.938-26.617-16.99c-7.345-5.039-19.748-9.539-22.748-11.83c-2.966-2.275,13.805,11.176,17.935,14.141
		c4.13,2.977,16.259,10.959,20.409,13.713c4.129,2.771,22.619,13.729,30.749,17.246c11.634,5.039,35.567,10.334,37.633,14.908
		c2.066,4.586,3.661-1.375,3.661-1.375"/>
</g>
<g id="head">
	<g>
		<path d="M128.373,369.147c-45.552-22.853-59.165-48.499-59.165-48.499c-5.376-5.642-10.607-11.693-15.666-18.11
			c-6.382,2.284-12.977,3.52-18.975,3.52c-7.284,0-13.513-1.754-18.509-5.203c-2.728-1.537-5.131-4.591-7.488-9.543
			c-2.264-4.607-4.233-10.679-5.654-17.507c-0.067-0.25-0.088-0.494-0.144-0.732c-0.051-0.148-0.082-0.293-0.095-0.443
			c-2.409-13.13,2.193-27.121,4.675-31.484c6.856-12.164,22.842-14.289,32.35-14.406l0.083-0.5
			c9.84-66.462,19.134-129.307,135.24-153.064l-2.716-39.393c-5.61-2.188-9.638-6.779-10.6-12.497
			c-0.796-4.634,0.614-9.47,3.888-13.259c3-3.509,7.309-5.898,12.136-6.717C178.924,1.12,180.146,1,181.359,1
			c9.11,0,16.712,5.841,18.088,13.872c0.966,5.721-1.322,11.384-5.878,15.305l10.434,38.126c13.71-1.824,26.577-2.74,38.293-2.74
			c86.58,0,111.238,48.721,137.329,100.312c0.453,0.88,0.889,1.763,1.327,2.66c5.175-1.341,10.212-2.035,14.797-2.035
			c8.76,0,15.776,2.413,20.833,7.206c3.962,3.745,13.156,16.732,14.929,31.068c0.039,0.257,0.074,0.506,0.082,0.721
			c0.01,0.055,0.01,0.109,0.012,0.188c0.035,0.203,0.048,0.392,0.077,0.598c0.03,0.407,0.057,0.801,0.087,1.172l0.057,0.618
			c0.486,6.472,0.402,12.53-0.298,17.511c-1.056,7.97-3.108,11.267-4.768,12.959c-6.89,8.761-19.669,13.773-35.159,13.773
			c-0.522,0-1.031-0.009-1.549-0.009c-8.086,21.533-18.53,40.608-31.16,56.903c0,0-42.682,60-121.824,70.896 M181.359,13.982
			c-0.486,0-0.972,0.044-1.456,0.125c-1.816,0.309-3.438,1.166-4.47,2.372c-0.442,0.5-1.123,1.513-0.935,2.641
			c0.256,1.538,2.165,2.826,4.562,3.03c0.816,0.078,1.612,0.309,2.319,0.667c0.561-0.567,1.215-1.049,1.984-1.393
			c2.155-0.99,3.56-2.832,3.294-4.38C186.351,15.338,184.032,13.982,181.359,13.982z"/>
	</g>
	<path d="M395.928,210.905l-0.342,0.057c-45.235-73.521-51.37-158.153-204.812-132.109l-0.006-0.035
		c-0.371,0.055-0.691,0.138-1.032,0.21c-0.369,0.043-0.699,0.097-1.061,0.151v0.042C40.205,104.424,57.386,187.178,38.93,271.514
		l-0.337,0.055c0.093,0.141,0.158,0.254,0.232,0.391c-0.015,0.129-0.057,0.283-0.083,0.426l0.331-0.052
		c27.884,39.382,56.598,66.241,85.075,83.169c3.93,2.306,2.748,13.069,4.225,13.646c150.132,58.382,254.853-72.533,267.361-157.366
		l0.32-0.052c-0.061-0.146-0.149-0.262-0.214-0.401C395.855,211.204,395.899,211.056,395.928,210.905z"/>
	<path fill="#E6E6E6" d="M395.928,208.899l-0.342,0.062c-45.235-73.517-51.37-158.15-204.812-132.102l-0.006-0.041
		c-0.371,0.063-0.691,0.143-1.032,0.199c-0.369,0.057-0.699,0.103-1.061,0.149v0.057C40.205,102.427,57.386,185.181,38.93,269.521
		l-0.337,0.047c0.093,0.123,0.158,0.266,0.232,0.385c-0.015,0.146-0.057,0.295-0.083,0.435l0.331-0.063
		c45.25,73.52,109.904,115.135,199.557,101.129l0.007,0.044c0.358-0.048,0.705-0.139,1.062-0.208
		c0.329-0.053,0.683-0.09,1.056-0.146l-0.022-0.042c89.222-16.372,136.538-76.992,155.002-161.314l0.32-0.052
		c-0.061-0.141-0.149-0.258-0.214-0.392C395.855,209.199,395.899,209.057,395.928,208.899z"/>
	<path fill="#FFFFFF" d="M173.081,229.387c-5.301,33.51-33.25,56.918-62.426,52.285c-29.158-4.622-48.503-35.52-43.195-69.023
		c5.301-33.508,33.262-56.919,62.426-52.296C159.059,164.975,178.394,195.891,173.081,229.387z"/>
	<path fill="#FFFFFF" d="M247.623,214.899c16.074,29.887,50.188,42.771,76.189,28.784c26.002-13.996,34.065-49.567,17.991-79.433
		c-16.079-29.879-50.18-42.757-76.199-28.767C239.606,149.478,231.546,185.034,247.623,214.899z"/>
	<path d="M179.82,226.935c-5.313,33.511-33.27,56.913-62.443,52.3c-29.159-4.619-48.498-35.532-43.184-69.034
		c5.305-33.512,33.259-56.924,62.422-52.285C165.781,162.535,185.128,193.434,179.82,226.935z"/>
	<path d="M254.362,212.457c16.045,29.885,50.167,42.768,76.167,28.764c26.02-13.979,34.087-49.54,18.003-79.421
		c-16.068-29.866-50.177-42.759-76.194-28.738C246.334,147.034,238.288,182.609,254.362,212.457z"/>
	<path fill="#58595B" d="M176.755,226.935c-5.299,33.511-33.253,56.913-62.436,52.3c-29.163-4.619-48.501-35.532-43.19-69.034
		c5.307-33.512,33.258-56.924,62.434-52.285C162.741,162.535,182.081,193.434,176.755,226.935z"/>
	<path fill="#58595B" d="M251.298,212.457c16.066,29.885,50.179,42.768,76.177,28.764c26.017-13.979,34.067-49.54,18.014-79.421
		c-16.08-29.866-50.182-42.759-76.199-28.738C243.257,147.034,235.204,182.609,251.298,212.457z"/>
	<g>
		<g>
			<path fill="#FFFFFF" d="M200.992,345.45c-1.192,0-2.254-0.853-2.452-2.069l-10.317-60.721c-0.219-1.361,0.696-2.647,2.048-2.873
				c1.369-0.242,2.663,0.658,2.891,2.035l10.3,60.727c0.221,1.342-0.685,2.639-2.056,2.882
				C201.28,345.442,201.116,345.45,200.992,345.45z"/>
		</g>
		<g>
			<path fill="#FFFFFF" d="M214.815,350.087c-1.198,0-2.247-0.855-2.459-2.065l-12.752-75.11c-0.23-1.364,0.692-2.663,2.041-2.896
				c1.374-0.224,2.655,0.688,2.88,2.048l12.75,75.123c0.238,1.356-0.677,2.638-2.043,2.876
				C215.093,350.087,214.954,350.087,214.815,350.087z"/>
		</g>
		<g>
			<path fill="#FFFFFF" d="M227.487,347.937c-1.194,0-2.252-0.861-2.462-2.065l-12.749-75.122c-0.241-1.364,0.679-2.647,2.045-2.874
				c1.363-0.244,2.65,0.682,2.874,2.033l12.751,75.131c0.239,1.344-0.681,2.644-2.05,2.866
				C227.765,347.908,227.621,347.937,227.487,347.937z"/>
		</g>
		<g>
			<path fill="#FFFFFF" d="M240.157,345.801c-1.197,0-2.268-0.876-2.456-2.076l-12.753-75.139c-0.24-1.357,0.67-2.643,2.046-2.872
				c1.352-0.227,2.646,0.684,2.882,2.05l12.742,75.129c0.236,1.355-0.681,2.661-2.039,2.865
				C240.439,345.779,240.297,345.801,240.157,345.801z"/>
		</g>
		<g>
			<path fill="#FFFFFF" d="M252.841,343.655c-1.206,0-2.284-0.865-2.456-2.088l-12.771-75.133c-0.229-1.351,0.682-2.653,2.046-2.866
				c1.364-0.238,2.631,0.689,2.869,2.033l12.755,75.141c0.239,1.352-0.679,2.646-2.044,2.863
				C253.117,343.626,252.971,343.655,252.841,343.655z"/>
		</g>
		<g>
			<path fill="#FFFFFF" d="M264.342,334.706c-1.196,0-2.263-0.869-2.464-2.087l-10.315-60.714c-0.215-1.354,0.7-2.661,2.059-2.882
				c1.358-0.243,2.647,0.668,2.878,2.043l10.303,60.72c0.238,1.369-0.687,2.638-2.058,2.883
				C264.617,334.687,264.469,334.706,264.342,334.706z"/>
		</g>
	</g>
	<g>
		<g>
			<path d="M204.29,345.031c-1.198,0-2.262-0.862-2.472-2.09l-10.302-60.721c-0.238-1.346,0.692-2.641,2.054-2.88
				c1.343-0.228,2.633,0.684,2.863,2.035l10.305,60.73c0.234,1.355-0.684,2.661-2.038,2.893
				C204.552,345.031,204.408,345.031,204.29,345.031z"/>
		</g>
		<g>
			<path d="M218.101,349.666c-1.193,0-2.245-0.863-2.462-2.083l-12.744-75.115c-0.236-1.361,0.672-2.651,2.033-2.872
				c1.374-0.234,2.641,0.68,2.884,2.03l12.756,75.116c0.23,1.361-0.68,2.655-2.056,2.894
				C218.372,349.646,218.231,349.666,218.101,349.666z"/>
		</g>
		<g>
			<path d="M230.774,347.521c-1.202,0-2.25-0.853-2.457-2.09l-12.764-75.11c-0.215-1.364,0.687-2.65,2.048-2.876
				c1.364-0.245,2.644,0.666,2.889,2.023l12.741,75.149c0.241,1.335-0.671,2.636-2.052,2.874
				C231.05,347.509,230.899,347.521,230.774,347.521z"/>
		</g>
		<g>
			<path d="M243.438,345.363c-1.198,0-2.236-0.848-2.46-2.08l-12.739-75.12c-0.245-1.352,0.677-2.653,2.036-2.878
				c1.35-0.227,2.646,0.684,2.887,2.041l12.739,75.122c0.23,1.368-0.685,2.657-2.059,2.883
				C243.716,345.361,243.572,345.363,243.438,345.363z"/>
		</g>
		<g>
			<path d="M256.103,343.217c-1.189,0-2.236-0.854-2.442-2.078l-12.759-75.131c-0.23-1.355,0.672-2.639,2.032-2.887
				c1.35-0.217,2.661,0.701,2.875,2.047l12.771,75.143c0.229,1.354-0.685,2.641-2.031,2.882
				C256.396,343.204,256.252,343.217,256.103,343.217z"/>
		</g>
		<g>
			<path d="M267.62,334.281c-1.213,0-2.251-0.869-2.452-2.089l-10.322-60.725c-0.232-1.354,0.702-2.646,2.052-2.882
				c1.348-0.213,2.63,0.693,2.871,2.047l10.321,60.723c0.232,1.355-0.704,2.647-2.048,2.891
				C267.905,334.271,267.747,334.281,267.62,334.281z"/>
		</g>
	</g>
	<path fill="#CCCCCC" d="M202.988,89.159c0.441,2.503-6.038,5.677-9.291,6.233l0,0c-3.254,0.552-10.402-0.315-10.823-2.803
		l-4.8-69.436c-0.422-2.479-0.749-4.514,2.484-5.062l0,0c3.268-0.55,3.625,1.458,4.045,3.966L202.988,89.159z"/>
	<path d="M88.144,220.401c1.627,23.391,20.746,41.108,42.711,39.566c21.973-1.542,38.477-21.765,36.878-45.146
		c-1.631-23.381-20.735-41.095-42.732-39.552C103.033,176.81,86.532,197.017,88.144,220.401z"/>
	<path d="M257.117,194.469c5.431,23.824,26.642,39.286,47.36,34.558c20.676-4.735,33.015-27.876,27.576-51.697
		c-5.464-23.805-26.64-39.259-47.34-34.548C264.018,147.517,251.661,170.658,257.117,194.469z"/>
	<path fill="#FFFFFF" d="M88.071,216.324c1.605,22.873,19.244,40.287,39.417,38.884c20.166-1.408,35.236-21.091,33.642-43.979
		c-1.599-22.873-19.233-40.291-39.412-38.878C101.558,173.752,86.49,193.434,88.071,216.324z"/>
	<path fill="#FFFFFF" d="M261.716,191.239c5.052,22.088,24.96,36.394,44.438,31.944c19.471-4.455,31.182-25.995,26.131-48.092
		c-5.05-22.095-24.967-36.392-44.446-31.929C268.35,147.608,256.652,169.128,261.716,191.239z"/>
	<path d="M169.143,23.341c-0.982-5.743,3.831-11.325,10.721-12.501c6.881-1.163,13.266,2.532,14.227,8.254
		c0.97,5.727-3.833,11.327-10.721,12.488C176.489,32.761,170.105,29.064,169.143,23.341z"/>
	<path fill="#F2F2F2" d="M168.101,20.207c-0.984-5.734,3.832-11.323,10.709-12.495c6.896-1.176,13.258,2.525,14.232,8.25
		c0.977,5.747-3.829,11.327-10.704,12.497C175.453,29.638,169.069,25.927,168.101,20.207z"/>
	<path fill="#CCCCCC" d="M366.018,212.557c-0.02-0.172-0.039-0.341-0.062-0.508h0.01c-1.646-15.597,0.3-31.341,7.938-34.406
		c13.213-5.256,29.558-7.416,38.232,0.779c2.939,2.779,11.425,14.529,12.937,27.261h0.003c0.037,0.159,0.043,0.35,0.052,0.521
		c0.035,0.168,0.058,0.339,0.082,0.493l-0.024,0.005c1.234,12.755-0.022,23.19-3.258,27.485
		c-8.324,11.026-26.758,13.126-40.761,10.788c-8.122-1.354-13.354-16.342-15.099-31.908l0,0
		C366.042,212.9,366.035,212.729,366.018,212.557z"/>
	<path fill="#808080" d="M421.404,203.352c3.491,16.246-0.144,30.791-8.094,32.496c-7.968,1.716-17.286-10.047-20.762-26.293
		c-3.47-16.247,0.153-30.794,8.116-32.503C408.633,175.344,417.921,187.112,421.404,203.352z"/>
	<path fill="#CCCCCC" d="M62.125,261.561c-0.03-0.13-0.047-0.296-0.083-0.442h-0.02c-2.76-13.978-8.641-27.095-16.111-27.7
		c-12.834-1.025-27.59,1.49-32.918,10.908c-1.807,3.207-6.027,15.662-3.92,27.102l-0.012,0.012c0.012,0.143,0.059,0.302,0.086,0.438
		c0.03,0.16,0.06,0.32,0.083,0.462h0.009c2.351,11.402,6.219,20.086,10.199,22.954c10.156,7.327,26.718,4.219,38.221-1.559
		c6.691-3.354,7.21-17.736,4.547-31.703l0.015-0.016C62.182,261.871,62.141,261.722,62.125,261.561z"/>
	<path fill="#808080" d="M11.622,268.424c1.319,15.02,8.349,26.485,15.733,26.019c5.121-0.359,8.088-13.358,6.768-28.37
		c-1.312-15.025-6.855-26.192-12.615-24.959C14.283,242.651,10.291,253.415,11.622,268.424z"/>
	<path d="M128.373,369.147"/>
</g>
<g id="glove">
	<g>
		<path d="M326.74,319.485c14.243-4.069,27.799-3.757,36.974-2.473c1.629,0.228,3.233,0.696,4.843,1.071
			c45.474,10.507,68.468,41.847,78.133,59.582c11.976,22.026,16.129,46.126,10.615,61.405
			c-17.19,47.426-37.751,71.443-61.143,71.443l0,0c-1.191,0-2.39-0.039-3.59-0.188c-2.873-0.299-5.789-0.541-8.883-0.812
			c-6.963-0.594-14.556-1.229-22.854-2.791c0,0-27.339-4.92-46.339-15.42s-17.5-8.25-31-17.75s-27.461-19.369-27.461-19.369"/>
	</g>
	<path d="M431.027,417.664c0,0-7.643,44.453-17.242,62.852c-9.581,18.414-13.236,25.219-49.677,20.639
		c-31.051-3.932-56.946-15.031-67.154-24.064c-10.171-9.039-53.388-28.521-56.951-41.652l21.756-18.166l111.96-49.3L431.027,417.664
		"/>
	<path fill="#F7323F" d="M431.027,415.664c0,0-7.643,44.457-17.242,62.855c-9.581,18.402-13.236,25.221-49.677,20.604
		c-31.051-3.883-56.946-15.006-67.154-24.041c-10.171-9.021-53.388-28.523-56.951-41.625l21.756-18.176l111.96-49.308
		L431.027,415.664"/>
	<path d="M284.552,390.711c-12.562-15.915-33.354-16.019-45.865-1.988c-12.464,14.059-13.959,38.844,2.938,55.977
		c14.192,14.439,30.555,14.227,43.029,0.188C297.148,430.844,297.101,406.582,284.552,390.711z"/>
	<path fill="#F7323F" d="M291.797,384.533c-9.731-17.933-36.857-13.864-49.356,0.168c-12.471,14.059-12.434,38.305,0.14,54.221
		c12.541,15.854,32.853,17.354,45.326,3.299C300.411,428.189,301.43,402.338,291.797,384.533z"/>
	<path d="M313.5,485.727c-7.164-4.295-14.194-11.945-21.676-19.684c-1.795-1.875-17.225-9.074-28.04-10.57
		c-2.77-0.387,9.337-1.012,11.409-2.945c3.747-3.504,2.062-8.205,1.667-8.912c-8.893-16.158-14.131-34.75-10.002-57.721
		c8.242-45.782,21.199-71.721,99.871-54.724c68.074,14.738,92.807,82.216,82.782,108.599
		c-10.037,26.406-30.102,68.467-58.343,65.754C370.604,503.539,345.27,504.811,313.5,485.727z"/>
	<path fill="#F7323F" d="M317.755,482.691c-24.526-15.23-53.904-47.145-48.771-94.576c5.112-47.424,19.035-81.956,98.138-63.702
		c68.426,15.795,93.88,85.387,84.071,112.448c-9.801,27.066-29.538,70.111-57.908,67.021
		C372.643,501.646,349.757,502.609,317.755,482.691z"/>
	<polygon points="279.747,451.857 266.747,451.857 268.394,454.467 279.747,455.473 	"/>
</g>
</svg>
