<?xml version="1.0" encoding="utf-8"?>
<svg version="1.1" xmlns="http://www.w3.org/2000/svg" xmlns:xlink="http://www.w3.org/1999/xlink" x="0px" y="0px" width="400px"
	 height="400px" viewBox="0 0 97 97" xml:space="preserve">
<g id="dial">
	<g>
		
			<linearGradient id="SVGID_1_" gradientUnits="userSpaceOnUse" x1="-1.1143" y1="791.5703" x2="-0.7974" y2="791.5703" gradientTransform="matrix(207.8894 207.8894 207.8894 -207.8894 -164312.5 164806.4688)">
			<stop  offset="0" style="stop-color:#E5E5E4"/>
			<stop  offset="0.0576" style="stop-color:#E2E2E1"/>
			<stop  offset="0.6154" style="stop-color:#CCCBCB"/>
			<stop  offset="0.6639" style="stop-color:#A19F9F"/>
			<stop  offset="0.7216" style="stop-color:#807D7D"/>
			<stop  offset="0.7822" style="stop-color:#686767"/>
			<stop  offset="0.846" style="stop-color:#595959"/>
			<stop  offset="0.9153" style="stop-color:#505151"/>
			<stop  offset="1" style="stop-color:#4E4F4F"/>
		</linearGradient>
		<path fill="url(#SVGID_1_)" d="M48.538,93.362c-24.755,0-44.823-20.069-44.823-44.824c0-24.756,20.068-44.823,44.823-44.823
			c24.756,0,44.824,20.067,44.824,44.823C93.362,73.293,73.294,93.362,48.538,93.362 M48.538,2C22.836,2,2,22.836,2,48.538
			s20.836,46.538,46.538,46.538c25.703,0,46.539-20.836,46.539-46.538S74.241,2,48.538,2"/>
		
			<linearGradient id="SVGID_2_" gradientUnits="userSpaceOnUse" x1="-0.103" y1="793.5312" x2="0.2139" y2="793.5312" gradientTransform="matrix(200.2312 -200.2312 -200.2312 -200.2312 158927.2344 158949.5)">
			<stop  offset="0" style="stop-color:#979797"/>
			<stop  offset="0.3535" style="stop-color:#B7B5B6"/>
			<stop  offset="0.6154" style="stop-color:#CCCBCB"/>
			<stop  offset="0.6557" style="stop-color:#D5D4D4"/>
			<stop  offset="0.7474" style="stop-color:#E5E5E5"/>
			<stop  offset="0.8469" style="stop-color:#EFEFEF"/>
			<stop  offset="0.967" style="stop-color:#F3F3F3"/>
			<stop  offset="1" style="stop-color:#F3F3F3"/>
		</linearGradient>
		<path fill="url(#SVGID_2_)" d="M48.538,90.668c-23.268,0-42.129-18.862-42.129-42.13S25.271,6.409,48.538,6.409
			s42.131,18.861,42.131,42.129S71.806,90.668,48.538,90.668 M48.538,3.715c-24.755,0-44.823,20.067-44.823,44.823
			c0,24.755,20.068,44.824,44.823,44.824c24.756,0,44.824-20.069,44.824-44.824C93.362,23.782,73.294,3.715,48.538,3.715"/>
		<path fill="#1A1A1A" d="M90.669,48.538c0,23.268-18.863,42.13-42.131,42.13S6.409,71.806,6.409,48.538S25.271,6.409,48.538,6.409
			S90.669,25.271,90.669,48.538"/>
		<path fill="#333333" d="M88.954,48.538c0,22.32-18.095,40.416-40.416,40.416c-22.319,0-40.414-18.096-40.414-40.416
			S26.219,8.123,48.538,8.123C70.859,8.123,88.954,26.218,88.954,48.538"/>
		<path fill="#BD232F" d="M48.958,14.085c0,0.169-0.187,0.306-0.42,0.306c-0.231,0-0.419-0.137-0.419-0.306V9.653
			c0-0.169,0.188-0.306,0.419-0.306c0.233,0,0.42,0.137,0.42,0.306V14.085"/>
		<path fill="#BD232F" d="M34.909,16.894c0.068,0.153-0.048,0.355-0.26,0.449c-0.211,0.095-0.439,0.047-0.508-0.108l-1.804-4.049
			c-0.068-0.154,0.049-0.355,0.26-0.449c0.212-0.095,0.44-0.047,0.509,0.107L34.909,16.894"/>
		<path fill="#BD232F" d="M23.217,25.172c0.125,0.113,0.102,0.345-0.056,0.518c-0.153,0.172-0.382,0.221-0.507,0.107l-3.295-2.966
			c-0.126-0.113-0.101-0.345,0.055-0.517s0.383-0.222,0.509-0.107L23.217,25.172z"/>
		<path fill="#BD232F" d="M15.902,37.492c0.159,0.052,0.231,0.273,0.159,0.493c-0.07,0.221-0.258,0.357-0.42,0.306l-4.215-1.369
			c-0.161-0.053-0.232-0.274-0.16-0.494c0.072-0.221,0.259-0.357,0.42-0.306L15.902,37.492z"/>
		<path fill="#BD232F" d="M14.23,51.722c0.168-0.019,0.324,0.155,0.348,0.386c0.024,0.23-0.092,0.432-0.26,0.45l-4.409,0.464
			c-0.167,0.017-0.322-0.157-0.347-0.388c-0.023-0.229,0.092-0.432,0.261-0.449L14.23,51.722z"/>
		<path fill="#BD232F" d="M18.492,65.4c0.146-0.084,0.357,0.011,0.474,0.211c0.116,0.201,0.093,0.433-0.054,0.517l-3.839,2.216
			c-0.147,0.086-0.359-0.009-0.475-0.21c-0.116-0.202-0.093-0.433,0.054-0.517L18.492,65.4z"/>
		<path fill="#BD232F" d="M78.166,66.128c-0.147-0.083-0.171-0.315-0.055-0.517c0.116-0.2,0.327-0.295,0.474-0.211l3.839,2.217
			c0.146,0.084,0.17,0.315,0.054,0.516c-0.116,0.201-0.327,0.296-0.475,0.211L78.166,66.128"/>
		<path fill="#BD232F" d="M82.759,52.557c-0.169-0.017-0.285-0.219-0.261-0.45c0.025-0.23,0.179-0.402,0.348-0.385l4.408,0.463
			c0.168,0.018,0.284,0.22,0.261,0.449c-0.026,0.23-0.182,0.404-0.35,0.386L82.759,52.557"/>
		<path fill="#BD232F" d="M81.436,38.291c-0.162,0.053-0.35-0.086-0.422-0.306c-0.07-0.221,0-0.44,0.16-0.493l4.216-1.37
			c0.161-0.053,0.349,0.085,0.42,0.305c0.07,0.221,0.001,0.442-0.16,0.494L81.436,38.291"/>
		<path fill="#BD232F" d="M74.422,25.797c-0.124,0.114-0.353,0.063-0.508-0.108c-0.155-0.173-0.179-0.402-0.054-0.517l3.293-2.966
			c0.127-0.113,0.354-0.063,0.51,0.108c0.153,0.173,0.179,0.403,0.053,0.517L74.422,25.797"/>
		<path fill="#BD232F" d="M62.935,17.234c-0.067,0.156-0.296,0.203-0.508,0.108c-0.211-0.096-0.329-0.296-0.26-0.449l1.804-4.05
			c0.068-0.155,0.296-0.202,0.508-0.108c0.212,0.096,0.328,0.296,0.259,0.45L62.935,17.234"/>
		<path fill="#CCCBCB" d="M45.309,11.936c0.036,0.338-0.209,0.64-0.547,0.675c-0.336,0.036-0.639-0.209-0.674-0.546
			c-0.036-0.337,0.208-0.64,0.546-0.675C44.972,11.354,45.273,11.599,45.309,11.936"/>
		<path fill="#CCCBCB" d="M37.77,13.407c0.104,0.322-0.071,0.668-0.396,0.773c-0.322,0.104-0.668-0.071-0.772-0.395
			c-0.105-0.321,0.071-0.668,0.395-0.773C37.318,12.908,37.665,13.084,37.77,13.407"/>
		<path fill="#CCCBCB" d="M30.7,16.414c0.17,0.293,0.069,0.669-0.225,0.839c-0.295,0.17-0.668,0.069-0.838-0.225
			c-0.171-0.294-0.069-0.67,0.224-0.839C30.155,16.02,30.531,16.12,30.7,16.414"/>
		<circle fill="#CCCBCB" cx="23.956" cy="21.235" r="0.614"/>
		<circle fill="#CCCBCB" cx="18.816" cy="26.943" r="0.614"/>
		<circle fill="#CCCBCB" cx="14.976" cy="33.594" r="0.614"/>
		<circle fill="#CCCBCB" cx="12.602" cy="40.899" r="0.614"/>
		<circle fill="#CCCBCB" cx="11.799" cy="48.539" r="0.615"/>
		<circle fill="#CCCBCB" cx="12.602" cy="56.177" r="0.614"/>
		<path fill="#CCCBCB" d="M14.725,62.921c0.311-0.138,0.675,0.002,0.812,0.312c0.138,0.31-0.001,0.671-0.312,0.809
			c-0.308,0.14-0.671-0.001-0.81-0.31C14.275,63.421,14.416,63.059,14.725,62.921z"/>
		<circle fill="#CCCBCB" cx="18.815" cy="70.133" r="0.614"/>
		<path fill="#CCCBCB" d="M77.9,70.631c-0.273-0.199-0.335-0.585-0.134-0.857c0.199-0.276,0.582-0.336,0.855-0.137
			c0.274,0.199,0.335,0.582,0.137,0.857C78.558,70.77,78.175,70.829,77.9,70.631"/>
		<path fill="#CCCBCB" d="M81.854,64.043c-0.31-0.139-0.45-0.503-0.311-0.81c0.139-0.313,0.499-0.45,0.808-0.312
			c0.311,0.138,0.45,0.499,0.312,0.812C82.524,64.042,82.162,64.182,81.854,64.043"/>
		<path fill="#CCCBCB" d="M84.349,56.778c-0.331-0.072-0.545-0.399-0.472-0.729c0.069-0.334,0.395-0.544,0.726-0.471
			c0.332,0.069,0.544,0.394,0.474,0.728C85.005,56.638,84.68,56.848,84.349,56.778"/>
		<path fill="#CCCBCB" d="M85.278,49.153c-0.338-0.001-0.615-0.276-0.612-0.615c0-0.342,0.273-0.614,0.612-0.613
			c0.339-0.001,0.613,0.272,0.613,0.613C85.893,48.879,85.617,49.153,85.278,49.153"/>
		<path fill="#CCCBCB" d="M84.604,41.5c-0.332,0.07-0.66-0.143-0.728-0.473c-0.071-0.335,0.14-0.657,0.472-0.728
			c0.331-0.07,0.656,0.14,0.728,0.472C85.146,41.104,84.936,41.43,84.604,41.5"/>
		<path fill="#CCCBCB" d="M82.353,34.156c-0.311,0.136-0.675-0.001-0.81-0.312c-0.14-0.312,0-0.672,0.311-0.809
			c0.308-0.14,0.671-0.002,0.809,0.31C82.801,33.656,82.661,34.02,82.353,34.156"/>
		<path fill="#CCCBCB" d="M78.624,27.439c-0.275,0.198-0.661,0.14-0.857-0.136c-0.203-0.278-0.141-0.658,0.136-0.856
			c0.272-0.199,0.655-0.14,0.856,0.136C78.959,26.858,78.897,27.241,78.624,27.439"/>
		<path fill="#CCCBCB" d="M73.58,21.646c-0.228,0.251-0.618,0.273-0.868,0.045c-0.254-0.229-0.273-0.613-0.045-0.864
			c0.226-0.253,0.612-0.274,0.866-0.047S73.806,21.395,73.58,21.646"/>
		<path fill="#CCCBCB" d="M67.441,17.027c-0.171,0.293-0.548,0.396-0.84,0.224c-0.296-0.171-0.395-0.544-0.224-0.836
			c0.168-0.294,0.542-0.396,0.838-0.226C67.511,16.36,67.611,16.734,67.441,17.027"/>
		<path fill="#CCCBCB" d="M60.478,13.785c-0.106,0.322-0.453,0.501-0.774,0.395c-0.326-0.106-0.5-0.45-0.394-0.771
			c0.103-0.323,0.446-0.5,0.772-0.396C60.405,13.118,60.582,13.464,60.478,13.785"/>
		<path fill="#CCCBCB" d="M52.99,12.062c-0.037,0.338-0.339,0.584-0.676,0.547c-0.34-0.036-0.583-0.336-0.544-0.673
			c0.033-0.337,0.333-0.583,0.672-0.547C52.782,11.426,53.025,11.726,52.99,12.062"/>
		<path fill="#676868" d="M42.111,15.389c0.043,0.204-0.148,0.417-0.43,0.477c-0.278,0.06-0.541-0.057-0.584-0.26l-1.136-5.345
			c-0.044-0.205,0.147-0.417,0.428-0.477s0.543,0.057,0.584,0.261L42.111,15.389"/>
		<path fill="#676868" d="M29.354,20.832c0.121,0.17,0.033,0.441-0.197,0.61c-0.231,0.168-0.518,0.168-0.641,0l-3.212-4.421
			c-0.122-0.169-0.034-0.44,0.198-0.609c0.231-0.168,0.519-0.169,0.641,0L29.354,20.832"/>
		<path fill="#676868" d="M19.916,30.994c0.18,0.104,0.209,0.389,0.067,0.638c-0.143,0.247-0.404,0.364-0.586,0.26l-4.731-2.731
			c-0.182-0.104-0.21-0.39-0.068-0.637c0.144-0.249,0.406-0.365,0.586-0.261L19.916,30.994z"/>
		<path fill="#676868" d="M15.425,44.116c0.207,0.023,0.351,0.27,0.321,0.555c-0.03,0.285-0.222,0.498-0.428,0.476l-5.436-0.57
			c-0.206-0.023-0.35-0.27-0.32-0.555c0.03-0.284,0.222-0.498,0.43-0.476L15.425,44.116z"/>
		<path fill="#676868" d="M16.66,57.931c0.199-0.062,0.43,0.104,0.519,0.376s0,0.546-0.197,0.608l-5.196,1.689
			c-0.198,0.063-0.43-0.104-0.52-0.376c-0.087-0.272,0-0.547,0.199-0.608L16.66,57.931z"/>
		<path fill="#676868" d="M23.407,70.048c0.157-0.138,0.435-0.08,0.627,0.133c0.191,0.212,0.223,0.498,0.066,0.636l-4.059,3.657
			c-0.156,0.139-0.435,0.08-0.628-0.132c-0.19-0.214-0.222-0.5-0.065-0.637L23.407,70.048z"/>
		<path fill="#676868" d="M72.977,70.818c-0.154-0.143-0.127-0.424,0.064-0.638c0.191-0.213,0.474-0.273,0.626-0.133l4.062,3.655
			c0.153,0.14,0.125,0.423-0.065,0.639c-0.192,0.211-0.475,0.272-0.628,0.131L72.977,70.818"/>
		<path fill="#676868" d="M80.095,58.916c-0.197-0.066-0.286-0.335-0.198-0.609c0.089-0.271,0.32-0.442,0.518-0.375l5.196,1.687
			c0.198,0.065,0.288,0.336,0.2,0.609c-0.089,0.272-0.321,0.442-0.52,0.375L80.095,58.916"/>
		<path fill="#676868" d="M81.761,45.146c-0.209,0.02-0.4-0.189-0.431-0.475c-0.031-0.285,0.112-0.535,0.32-0.554l5.435-0.574
			c0.205-0.02,0.396,0.189,0.43,0.477c0.027,0.284-0.115,0.535-0.322,0.554L81.761,45.146"/>
		<path fill="#676868" d="M77.68,31.891c-0.184,0.103-0.443-0.011-0.587-0.258c-0.144-0.248-0.115-0.536,0.067-0.638l4.731-2.734
			c0.18-0.101,0.44,0.012,0.586,0.261c0.143,0.249,0.113,0.536-0.068,0.638L77.68,31.891"/>
		<path fill="#676868" d="M68.56,21.44c-0.125,0.169-0.408,0.17-0.641,0.003c-0.231-0.168-0.322-0.443-0.196-0.608l3.209-4.424
			c0.124-0.165,0.408-0.168,0.642,0c0.231,0.17,0.321,0.443,0.197,0.61L68.56,21.44"/>
		<path fill="#676868" d="M55.979,15.603c-0.046,0.206-0.305,0.322-0.584,0.264c-0.281-0.059-0.476-0.272-0.427-0.475l1.132-5.348
			c0.045-0.2,0.304-0.319,0.585-0.262c0.281,0.062,0.475,0.276,0.428,0.479L55.979,15.603"/>
		<path fill="#E5E5E4" d="M27.368,68.392c0,1.299-0.481,2.017-1.327,2.017c-0.747,0-1.252-0.7-1.264-1.963
			c0-1.281,0.553-1.986,1.328-1.986C26.91,66.459,27.368,67.176,27.368,68.392z M25.294,68.451c0,0.993,0.306,1.557,0.777,1.557
			c0.527,0,0.78-0.617,0.78-1.593c0-0.94-0.241-1.557-0.775-1.557C25.624,66.858,25.294,67.41,25.294,68.451z"/>
		<path fill="#E5E5E4" d="M18.307,58.664v-0.317l0.406-0.394c0.975-0.929,1.416-1.422,1.421-1.997c0-0.388-0.188-0.746-0.757-0.746
			c-0.347,0-0.636,0.176-0.812,0.322l-0.164-0.363c0.265-0.224,0.641-0.389,1.081-0.389c0.821,0,1.169,0.564,1.169,1.11
			c0,0.706-0.511,1.275-1.316,2.051l-0.305,0.282v0.012h1.716v0.429H18.307z"/>
		<path fill="#E5E5E4" d="M23.86,56.714c0,1.299-0.481,2.016-1.327,2.016c-0.746,0-1.251-0.7-1.264-1.963
			c0-1.28,0.553-1.986,1.329-1.986C23.402,54.78,23.86,55.498,23.86,56.714z M21.787,56.772c0,0.993,0.306,1.557,0.775,1.557
			c0.528,0,0.781-0.616,0.781-1.592c0-0.94-0.24-1.557-0.775-1.557C22.115,55.181,21.787,55.732,21.787,56.772z"/>
		<path fill="#E5E5E4" d="M18.071,47.539v-1.04h-1.774v-0.341l1.704-2.438h0.558v2.374h0.535v0.405h-0.535v1.04H18.071z
			 M18.071,46.094v-1.274c0-0.2,0.006-0.4,0.018-0.601h-0.018c-0.118,0.225-0.211,0.389-0.317,0.564l-0.934,1.299v0.012H18.071z"/>
		<path fill="#E5E5E4" d="M22.026,45.588c0,1.3-0.481,2.016-1.327,2.016c-0.745,0-1.251-0.699-1.264-1.962
			c0-1.281,0.553-1.986,1.328-1.986C21.568,43.655,22.026,44.372,22.026,45.588z M19.954,45.647c0,0.993,0.305,1.557,0.774,1.557
			c0.529,0,0.781-0.617,0.781-1.592c0-0.94-0.24-1.558-0.775-1.558C20.281,44.055,19.954,44.607,19.954,45.647z"/>
		<path fill="#E5E5E4" d="M22.267,32.39c-0.106-0.005-0.241,0-0.388,0.022c-0.812,0.136-1.239,0.729-1.327,1.358h0.017
			c0.182-0.241,0.499-0.441,0.923-0.441c0.675,0,1.151,0.488,1.151,1.234c0,0.699-0.477,1.346-1.27,1.346
			c-0.815,0-1.351-0.635-1.351-1.628c0-0.752,0.27-1.345,0.646-1.722c0.316-0.312,0.739-0.505,1.222-0.563
			c0.152-0.023,0.281-0.029,0.376-0.029V32.39z M21.379,35.51c0.44,0,0.74-0.37,0.74-0.917c0-0.546-0.311-0.876-0.786-0.876
			c-0.312,0-0.6,0.194-0.74,0.471c-0.035,0.059-0.061,0.135-0.061,0.229c0.012,0.629,0.3,1.094,0.841,1.094H21.379z"/>
		<path fill="#E5E5E4" d="M25.64,33.894c0,1.299-0.481,2.016-1.327,2.016c-0.746,0-1.252-0.7-1.264-1.962
			c0-1.281,0.553-1.987,1.328-1.987C25.181,31.96,25.64,32.678,25.64,33.894z M23.566,33.952c0,0.993,0.306,1.558,0.775,1.558
			c0.528,0,0.782-0.617,0.782-1.593c0-0.94-0.241-1.558-0.776-1.558C23.895,32.359,23.566,32.912,23.566,33.952z"/>
		<path fill="#E5E5E4" d="M28.935,24.812c-0.422-0.199-0.604-0.528-0.604-0.857c0-0.605,0.512-1.017,1.181-1.017
			c0.74,0,1.111,0.465,1.111,0.939c0,0.324-0.158,0.671-0.629,0.894v0.018c0.476,0.188,0.769,0.522,0.769,0.987
			c0,0.663-0.568,1.11-1.298,1.11c-0.799,0-1.28-0.476-1.28-1.034c0-0.481,0.287-0.822,0.758-1.022L28.935,24.812z M30.239,25.83
			c0-0.465-0.323-0.688-0.84-0.835c-0.446,0.129-0.688,0.423-0.688,0.786c-0.017,0.389,0.277,0.729,0.764,0.729
			C29.939,26.511,30.239,26.217,30.239,25.83z M28.818,23.919c0,0.382,0.287,0.588,0.729,0.705c0.328-0.111,0.582-0.347,0.582-0.693
			c0-0.305-0.183-0.622-0.646-0.622C29.053,23.309,28.818,23.59,28.818,23.919z"/>
		<path fill="#E5E5E4" d="M33.784,24.871c0,1.299-0.482,2.016-1.328,2.016c-0.745,0-1.252-0.7-1.263-1.963
			c0-1.28,0.552-1.985,1.327-1.985C33.325,22.938,33.784,23.655,33.784,24.871z M31.711,24.931c0,0.993,0.304,1.557,0.775,1.557
			c0.529,0,0.78-0.617,0.78-1.593c0-0.939-0.239-1.557-0.774-1.557C32.039,23.338,31.711,23.89,31.711,24.931z"/>
		<polyline fill="#E5E5E4" points="38.748,18.19 38.736,18.19 38.072,18.55 37.972,18.154 38.806,17.708 39.247,17.708 
			39.247,21.527 38.748,21.527 38.748,18.19 		"/>
		<path fill="#E5E5E4" d="M43.179,19.577c0,1.298-0.482,2.015-1.328,2.015c-0.746,0-1.251-0.698-1.263-1.962
			c0-1.28,0.552-1.986,1.327-1.986C42.72,17.644,43.179,18.36,43.179,19.577 M41.104,19.636c0,0.993,0.306,1.557,0.775,1.557
			c0.528,0,0.782-0.617,0.782-1.592c0-0.94-0.242-1.558-0.776-1.558C41.434,18.043,41.104,18.596,41.104,19.636"/>
		<path fill="#E5E5E4" d="M46.194,19.577c0,1.298-0.481,2.015-1.328,2.015c-0.746,0-1.251-0.698-1.264-1.962
			c0-1.28,0.553-1.986,1.329-1.986C45.735,17.644,46.194,18.36,46.194,19.577 M44.12,19.636c0,0.993,0.306,1.557,0.775,1.557
			c0.529,0,0.781-0.617,0.781-1.592c0-0.94-0.24-1.558-0.775-1.558C44.449,18.043,44.12,18.596,44.12,19.636"/>
		<polyline fill="#E5E5E4" points="51.438,18.19 51.427,18.19 50.764,18.55 50.663,18.155 51.497,17.709 51.937,17.709 
			51.937,21.527 51.438,21.527 51.438,18.19 		"/>
		<path fill="#E5E5E4" d="M53.332,21.527v-0.316l0.405-0.394c0.975-0.929,1.416-1.422,1.422-1.998c0-0.388-0.188-0.746-0.758-0.746
			c-0.347,0-0.636,0.177-0.811,0.322l-0.165-0.363c0.265-0.224,0.64-0.389,1.082-0.389c0.822,0,1.168,0.564,1.168,1.111
			c0,0.705-0.511,1.275-1.315,2.051l-0.306,0.282v0.011h1.716v0.429H53.332"/>
		<path fill="#E5E5E4" d="M58.885,19.577c0,1.3-0.48,2.016-1.326,2.016c-0.747,0-1.252-0.699-1.265-1.963
			c0-1.28,0.553-1.986,1.328-1.986C58.427,17.644,58.885,18.36,58.885,19.577 M56.812,19.636c0,0.993,0.306,1.557,0.775,1.557
			c0.529,0,0.781-0.616,0.781-1.592c0-0.94-0.24-1.557-0.775-1.557C57.142,18.044,56.812,18.596,56.812,19.636"/>
		<polyline fill="#E5E5E4" points="62.914,23.485 62.903,23.485 62.239,23.843 62.139,23.45 62.974,23.003 63.414,23.003 
			63.414,26.822 62.914,26.822 62.914,23.485 		"/>
		<path fill="#E5E5E4" d="M66.406,26.822v-1.041h-1.773v-0.34l1.703-2.438h0.56v2.374h0.534v0.404h-0.534v1.041H66.406
			 M66.406,25.377v-1.275c0-0.2,0.006-0.398,0.019-0.6h-0.019c-0.117,0.224-0.212,0.388-0.317,0.564l-0.934,1.299v0.012H66.406"/>
		<path fill="#E5E5E4" d="M70.362,24.871c0,1.299-0.482,2.016-1.328,2.016c-0.746,0-1.251-0.7-1.264-1.963
			c0-1.28,0.553-1.985,1.329-1.985C69.903,22.938,70.362,23.655,70.362,24.871 M68.288,24.931c0,0.993,0.307,1.557,0.775,1.557
			c0.528,0,0.781-0.617,0.781-1.593c0-0.939-0.241-1.557-0.775-1.557C68.616,23.338,68.288,23.89,68.288,24.931"/>
		<polyline fill="#E5E5E4" points="68.793,32.508 68.782,32.508 68.117,32.865 68.018,32.472 68.853,32.025 69.293,32.025 
			69.293,35.844 68.793,35.844 68.793,32.508 		"/>
		<path fill="#E5E5E4" d="M72.866,32.39c-0.106-0.005-0.241,0-0.389,0.022c-0.809,0.136-1.238,0.729-1.327,1.358h0.019
			c0.182-0.241,0.5-0.441,0.922-0.441c0.676,0,1.15,0.488,1.15,1.234c0,0.699-0.475,1.346-1.269,1.346
			c-0.816,0-1.351-0.635-1.351-1.628c0-0.752,0.27-1.345,0.646-1.722c0.317-0.312,0.74-0.505,1.223-0.563
			c0.151-0.023,0.28-0.029,0.375-0.029V32.39 M71.979,35.51c0.439,0,0.74-0.37,0.74-0.917c0-0.546-0.312-0.876-0.788-0.876
			c-0.312,0-0.599,0.194-0.74,0.471c-0.035,0.059-0.059,0.135-0.059,0.229c0.013,0.629,0.3,1.094,0.84,1.094H71.979"/>
		<path fill="#E5E5E4" d="M76.24,33.894c0,1.299-0.481,2.016-1.328,2.016c-0.746,0-1.251-0.7-1.263-1.962
			c0-1.281,0.553-1.987,1.328-1.987C75.782,31.96,76.24,32.678,76.24,33.894 M74.166,33.952c0,0.993,0.307,1.558,0.775,1.558
			c0.529,0,0.781-0.617,0.781-1.593c0-0.94-0.24-1.558-0.775-1.558C74.495,32.359,74.166,32.912,74.166,33.952"/>
		<polyline fill="#E5E5E4" points="72.996,44.202 72.985,44.202 72.32,44.561 72.221,44.166 73.055,43.72 73.496,43.72 
			73.496,47.539 72.996,47.539 72.996,44.202 		"/>
		<path fill="#E5E5E4" d="M75.596,45.529c-0.424-0.199-0.606-0.528-0.606-0.857c0-0.604,0.512-1.017,1.182-1.017
			c0.74,0,1.11,0.464,1.11,0.94c0,0.322-0.157,0.669-0.629,0.894v0.017c0.477,0.188,0.77,0.523,0.77,0.987
			c0,0.664-0.569,1.11-1.298,1.11c-0.8,0-1.281-0.476-1.281-1.034c0-0.482,0.288-0.823,0.758-1.022L75.596,45.529 M76.899,46.546
			c0-0.464-0.323-0.687-0.841-0.835c-0.446,0.13-0.687,0.424-0.687,0.788c-0.018,0.389,0.276,0.729,0.764,0.729
			C76.6,47.228,76.899,46.934,76.899,46.546 M75.478,44.637c0,0.382,0.289,0.587,0.729,0.705c0.329-0.111,0.582-0.347,0.582-0.693
			c0-0.306-0.183-0.623-0.646-0.623C75.712,44.025,75.478,44.309,75.478,44.637"/>
		<path fill="#E5E5E4" d="M80.442,45.588c0,1.3-0.48,2.016-1.327,2.016c-0.745,0-1.251-0.699-1.263-1.962
			c0-1.281,0.552-1.986,1.328-1.986C79.985,43.655,80.442,44.372,80.442,45.588 M78.37,45.647c0,0.993,0.305,1.557,0.775,1.557
			c0.528,0,0.781-0.617,0.781-1.592c0-0.94-0.241-1.558-0.776-1.558C78.698,44.055,78.37,44.607,78.37,45.647"/>
		<path fill="#E5E5E4" d="M71.015,58.664v-0.317l0.403-0.394c0.977-0.929,1.417-1.422,1.423-1.997c0-0.388-0.188-0.746-0.758-0.746
			c-0.347,0-0.636,0.176-0.812,0.322l-0.164-0.363c0.265-0.224,0.641-0.389,1.081-0.389c0.822,0,1.17,0.564,1.17,1.11
			c0,0.706-0.512,1.275-1.316,2.051l-0.306,0.282v0.012h1.716v0.429H71.015"/>
		<path fill="#E5E5E4" d="M76.567,56.714c0,1.299-0.482,2.016-1.328,2.016c-0.745,0-1.252-0.7-1.263-1.963
			c0-1.28,0.552-1.986,1.328-1.986C76.108,54.78,76.567,55.498,76.567,56.714 M74.494,56.772c0,0.993,0.305,1.557,0.774,1.557
			c0.528,0,0.781-0.616,0.781-1.592c0-0.94-0.241-1.557-0.775-1.557C74.822,55.181,74.494,55.732,74.494,56.772"/>
		<path fill="#E5E5E4" d="M79.583,56.714c0,1.299-0.482,2.016-1.328,2.016c-0.746,0-1.251-0.7-1.263-1.963
			c0-1.28,0.553-1.986,1.328-1.986C79.124,54.78,79.583,55.498,79.583,56.714 M77.509,56.772c0,0.993,0.305,1.557,0.775,1.557
			c0.529,0,0.781-0.616,0.781-1.592c0-0.94-0.241-1.557-0.775-1.557C77.838,55.181,77.509,55.732,77.509,56.772"/>
		<path fill="#E5E5E4" d="M63.752,70.342v-0.315l0.405-0.395c0.976-0.929,1.417-1.422,1.422-1.997c0-0.389-0.188-0.746-0.758-0.746
			c-0.347,0-0.636,0.176-0.811,0.322l-0.165-0.364c0.265-0.223,0.641-0.388,1.081-0.388c0.823,0,1.17,0.564,1.17,1.111
			c0,0.704-0.512,1.274-1.316,2.05l-0.306,0.282v0.012h1.715v0.428H63.752z"/>
		<path fill="#E5E5E4" d="M66.768,70.342v-0.315l0.405-0.395c0.976-0.929,1.416-1.422,1.422-1.997c0-0.389-0.188-0.746-0.758-0.746
			c-0.347,0-0.635,0.176-0.812,0.322l-0.164-0.364c0.265-0.223,0.641-0.388,1.081-0.388c0.823,0,1.169,0.564,1.169,1.111
			c0,0.704-0.511,1.274-1.316,2.05l-0.305,0.282v0.012h1.715v0.428H66.768z"/>
		<path fill="#E5E5E4" d="M72.322,68.393c0,1.298-0.483,2.016-1.329,2.016c-0.745,0-1.251-0.7-1.263-1.963
			c0-1.281,0.552-1.986,1.328-1.986C71.862,66.459,72.322,67.176,72.322,68.393 M70.248,68.451c0,0.993,0.305,1.557,0.775,1.557
			c0.528,0,0.781-0.616,0.781-1.593c0-0.939-0.24-1.557-0.775-1.557C70.576,66.858,70.248,67.41,70.248,68.451"/>
		<path fill="#4E4F4F" d="M88.954,48.617L88.954,48.617L88.954,48.617 M88.954,48.576c0,0.001,0,0.002,0,0.003
			C88.954,48.578,88.954,48.577,88.954,48.576 M48.538,8.123c-2.156,0-4.274,0.169-6.339,0.494
			C44.265,8.292,46.382,8.123,48.538,8.123c22.321,0,40.416,18.095,40.416,40.415c0-0.001,0-0.001,0-0.001
			C88.954,26.217,70.858,8.123,48.538,8.123"/>
		<path fill="#4E4F4F" d="M41.886,18.043c-0.452,0-0.781,0.553-0.781,1.593c0,0.993,0.306,1.557,0.775,1.557
			c0.528,0,0.782-0.617,0.782-1.592C42.662,18.66,42.42,18.043,41.886,18.043 M44.901,18.043c-0.452,0-0.781,0.553-0.781,1.593
			c0,0.993,0.306,1.557,0.775,1.557c0.529,0,0.781-0.617,0.781-1.592C45.677,18.66,45.437,18.043,44.901,18.043 M77.245,74.549
			c-0.08,0-0.154-0.024-0.21-0.076l-4.059-3.654c-0.154-0.143-0.127-0.424,0.064-0.638c0.121-0.135,0.279-0.209,0.418-0.209
			c0.079,0,0.151,0.024,0.208,0.076l4.062,3.655c0.153,0.14,0.125,0.423-0.065,0.639C77.541,74.476,77.383,74.549,77.245,74.549
			 M78.261,70.748c-0.125,0-0.251-0.038-0.36-0.117c-0.273-0.199-0.335-0.585-0.134-0.857c0.12-0.167,0.306-0.255,0.495-0.255
			c0.125,0,0.251,0.039,0.36,0.118c0.274,0.199,0.335,0.582,0.137,0.857C78.638,70.66,78.45,70.748,78.261,70.748 M82.123,68.375
			c-0.043,0-0.084-0.01-0.12-0.031l-3.837-2.216c-0.147-0.083-0.171-0.315-0.055-0.517c0.087-0.15,0.229-0.242,0.355-0.242
			c0.042,0,0.082,0.01,0.118,0.031l3.839,2.217c0.146,0.084,0.17,0.315,0.054,0.516C82.391,68.283,82.249,68.375,82.123,68.375
			 M82.103,64.097c-0.083,0-0.168-0.018-0.249-0.054c-0.31-0.139-0.45-0.503-0.311-0.81c0.103-0.231,0.323-0.366,0.558-0.366
			c0.084,0,0.169,0.018,0.25,0.054c0.311,0.138,0.45,0.499,0.312,0.812C82.561,63.961,82.337,64.097,82.103,64.097 M85.38,60.617
			c-0.029,0-0.06-0.005-0.089-0.015l-5.196-1.687c-0.197-0.066-0.286-0.335-0.198-0.609c0.075-0.231,0.255-0.39,0.429-0.39
			c0.029,0,0.061,0.005,0.089,0.015l5.196,1.687c0.198,0.065,0.288,0.336,0.2,0.609C85.734,60.46,85.555,60.617,85.38,60.617
			 M84.476,56.792c-0.041,0-0.084-0.005-0.127-0.014c-0.331-0.072-0.545-0.399-0.472-0.729c0.061-0.289,0.312-0.485,0.595-0.485
			c0.043,0,0.087,0.005,0.131,0.015c0.332,0.069,0.544,0.394,0.474,0.728C85.015,56.595,84.759,56.792,84.476,56.792 M71.271,55.532
			l-0.164-0.363c0.265-0.224,0.641-0.389,1.081-0.389c0.822,0,1.17,0.564,1.17,1.11c0,0.706-0.512,1.275-1.316,2.051l-0.306,0.282
			v0.012h1.716v0.429h-2.438v-0.317l0.403-0.394c0.977-0.929,1.417-1.422,1.423-1.997c0-0.388-0.188-0.746-0.758-0.746
			C71.736,55.21,71.447,55.386,71.271,55.532 M75.239,58.729c-0.745,0-1.252-0.7-1.263-1.963c0-1.28,0.552-1.986,1.328-1.986
			c0.804,0,1.263,0.718,1.263,1.934C76.567,58.013,76.085,58.729,75.239,58.729 M78.255,58.729c-0.746,0-1.251-0.7-1.263-1.963
			c0-1.28,0.553-1.986,1.328-1.986c0.804,0,1.263,0.718,1.263,1.934C79.583,58.013,79.101,58.729,78.255,58.729 M87.189,53.021
			c-0.008,0-0.017-0.001-0.024-0.002l-4.406-0.463c-0.169-0.017-0.285-0.219-0.261-0.45c0.024-0.22,0.164-0.387,0.324-0.387
			c0.007,0,0.016,0.001,0.023,0.002l4.408,0.463c0.168,0.018,0.284,0.22,0.261,0.449C87.489,52.854,87.348,53.021,87.189,53.021
			 M85.278,47.925c0,0,0.001,0,0.002,0c0.339,0,0.611,0.273,0.611,0.613c0.001,0.341-0.274,0.615-0.613,0.615
			c-0.338-0.001-0.615-0.276-0.612-0.615c0-0.341,0.272-0.613,0.609-0.613C85.275,47.925,85.276,47.925,85.278,47.925 M72.32,44.561
			l-0.1-0.395l0.834-0.446h0.441v3.819h-0.5v-3.337h-0.011L72.32,44.561 M76.124,47.604c-0.8,0-1.281-0.476-1.281-1.034
			c0-0.482,0.288-0.823,0.758-1.022l-0.005-0.018c-0.424-0.199-0.606-0.528-0.606-0.857c0-0.604,0.512-1.017,1.182-1.017
			c0.74,0,1.11,0.464,1.11,0.94c0,0.322-0.157,0.669-0.629,0.894v0.017c0.477,0.188,0.77,0.523,0.77,0.987
			C77.422,47.157,76.853,47.604,76.124,47.604 M79.115,47.604c-0.745,0-1.251-0.699-1.263-1.962c0-1.281,0.552-1.986,1.328-1.986
			c0.805,0,1.262,0.717,1.262,1.933C80.442,46.888,79.962,47.604,79.115,47.604 M81.733,45.147c-0.199,0-0.374-0.203-0.403-0.476
			c-0.031-0.285,0.112-0.535,0.32-0.554l5.435-0.574c0.009-0.001,0.019-0.001,0.027-0.001c0.194,0,0.37,0.203,0.402,0.478
			c0.027,0.284-0.115,0.535-0.322,0.554l-5.432,0.572C81.752,45.147,81.742,45.147,81.733,45.147 M84.478,41.514
			c-0.285,0-0.542-0.198-0.601-0.486c-0.071-0.335,0.14-0.657,0.472-0.728c0.043-0.009,0.087-0.014,0.13-0.014
			c0.282,0,0.536,0.197,0.598,0.485c0.07,0.333-0.141,0.658-0.472,0.729C84.562,41.51,84.519,41.514,84.478,41.514 M81.364,38.303
			c-0.143,0-0.289-0.129-0.351-0.317c-0.07-0.221,0-0.44,0.16-0.493l4.216-1.37c0.023-0.008,0.047-0.011,0.071-0.011
			c0.142,0,0.288,0.128,0.349,0.315c0.07,0.221,0.001,0.442-0.16,0.494l-4.214,1.37C81.411,38.299,81.388,38.303,81.364,38.303
			 M82.104,34.209c-0.236,0-0.462-0.135-0.562-0.365c-0.14-0.312,0-0.672,0.311-0.809c0.082-0.037,0.167-0.055,0.251-0.055
			c0.233,0,0.456,0.136,0.558,0.364c0.139,0.312-0.001,0.675-0.31,0.812C82.271,34.191,82.187,34.209,82.104,34.209 M68.117,32.865
			l-0.1-0.394l0.835-0.446h0.44v3.818h-0.5v-3.336h-0.011L68.117,32.865 M71.973,35.909c-0.816,0-1.351-0.635-1.351-1.628
			c0-0.752,0.27-1.345,0.646-1.722c0.317-0.312,0.74-0.505,1.223-0.563c0.151-0.023,0.28-0.029,0.375-0.029v0.423
			c-0.024-0.001-0.051-0.002-0.08-0.002c-0.09,0-0.195,0.007-0.309,0.024c-0.809,0.136-1.238,0.729-1.327,1.358h0.019
			c0.182-0.241,0.5-0.441,0.922-0.441c0.676,0,1.15,0.488,1.15,1.234C73.241,35.263,72.767,35.909,71.973,35.909 M74.912,35.909
			c-0.746,0-1.251-0.7-1.263-1.962c0-1.281,0.553-1.987,1.328-1.987c0.805,0,1.263,0.718,1.263,1.934
			C76.24,35.192,75.759,35.909,74.912,35.909 M77.531,31.929c-0.157,0-0.33-0.11-0.438-0.296c-0.144-0.248-0.115-0.536,0.067-0.638
			l4.731-2.734c0.045-0.025,0.094-0.037,0.146-0.037c0.156,0,0.331,0.11,0.44,0.298c0.143,0.249,0.113,0.536-0.068,0.638
			l-4.729,2.731C77.634,31.916,77.583,31.929,77.531,31.929 M78.262,27.557c-0.189,0-0.377-0.088-0.495-0.253
			c-0.203-0.278-0.141-0.658,0.136-0.856c0.108-0.079,0.235-0.117,0.36-0.117c0.189,0,0.375,0.087,0.496,0.253
			c0.2,0.275,0.139,0.658-0.135,0.856C78.515,27.519,78.388,27.557,78.262,27.557 M62.239,23.843l-0.101-0.393l0.835-0.447h0.44
			v3.819h-0.5v-3.337h-0.011L62.239,23.843 M64.633,25.781v-0.34l1.703-2.438h0.56v2.374h0.534v0.404h-0.534v1.041h-0.489v-1.041
			H64.633 M69.034,26.887c-0.746,0-1.251-0.7-1.264-1.963c0-1.28,0.553-1.985,1.329-1.985c0.804,0,1.263,0.717,1.263,1.933
			C70.362,26.17,69.88,26.887,69.034,26.887 M74.253,25.858c-0.112,0-0.24-0.061-0.339-0.17c-0.155-0.173-0.179-0.402-0.054-0.517
			l3.293-2.966c0.047-0.041,0.105-0.061,0.17-0.061c0.112,0,0.24,0.06,0.34,0.169c0.153,0.173,0.179,0.403,0.053,0.517l-3.294,2.966
			C74.377,25.838,74.317,25.858,74.253,25.858 M73.121,21.849c-0.146,0-0.293-0.052-0.409-0.158
			c-0.254-0.229-0.273-0.613-0.045-0.864c0.12-0.136,0.288-0.204,0.455-0.204c0.146,0,0.293,0.052,0.411,0.157
			c0.254,0.228,0.272,0.615,0.047,0.866C73.458,21.78,73.29,21.849,73.121,21.849 M50.764,18.55l-0.101-0.395l0.834-0.446h0.439
			v3.818h-0.498V18.19h-0.012L50.764,18.55 M38.072,18.55l-0.101-0.396l0.834-0.446h0.441v3.819h-0.499V18.19h-0.012L38.072,18.55
			 M41.851,21.592c-0.746,0-1.251-0.698-1.263-1.962c0-1.28,0.552-1.986,1.327-1.986c0.805,0,1.264,0.717,1.264,1.934
			C43.179,20.875,42.696,21.592,41.851,21.592 M44.866,21.592c-0.746,0-1.251-0.698-1.264-1.962c0-1.28,0.553-1.986,1.329-1.986
			c0.804,0,1.263,0.717,1.263,1.934C46.194,20.875,45.713,21.592,44.866,21.592 M53.591,18.396l-0.165-0.363
			c0.265-0.224,0.64-0.389,1.082-0.389c0.822,0,1.168,0.564,1.168,1.111c0,0.705-0.511,1.275-1.315,2.051l-0.306,0.282v0.011h1.716
			v0.429h-2.438v-0.316l0.405-0.394c0.975-0.929,1.416-1.422,1.422-1.998c0-0.388-0.188-0.746-0.758-0.746
			C54.055,18.073,53.766,18.25,53.591,18.396 M57.559,21.593c-0.747,0-1.252-0.699-1.265-1.963c0-1.28,0.553-1.986,1.328-1.986
			c0.805,0,1.263,0.717,1.263,1.934C58.885,20.877,58.404,21.593,57.559,21.593 M68.277,21.567c-0.114,0-0.243-0.041-0.358-0.124
			c-0.231-0.168-0.322-0.443-0.196-0.608l3.209-4.424c0.062-0.083,0.165-0.125,0.28-0.125c0.116,0,0.245,0.041,0.361,0.125
			c0.231,0.17,0.321,0.443,0.197,0.61L68.56,21.44C68.497,21.525,68.394,21.567,68.277,21.567 M66.907,17.334
			c-0.104,0-0.209-0.026-0.306-0.083c-0.296-0.171-0.395-0.544-0.224-0.836c0.112-0.198,0.318-0.309,0.53-0.309
			c0.104,0,0.21,0.026,0.308,0.083c0.295,0.171,0.396,0.545,0.226,0.838C67.327,17.224,67.119,17.334,66.907,17.334 M30.169,17.336
			c-0.212,0-0.417-0.11-0.531-0.308c-0.171-0.294-0.069-0.67,0.224-0.839c0.097-0.057,0.202-0.083,0.308-0.083
			c0.212,0,0.418,0.11,0.531,0.308c0.17,0.293,0.069,0.669-0.225,0.839C30.378,17.309,30.272,17.336,30.169,17.336 M59.893,14.211
			c-0.063,0-0.127-0.01-0.189-0.031c-0.326-0.106-0.5-0.45-0.394-0.771c0.083-0.26,0.321-0.425,0.581-0.425
			c0.063,0,0.127,0.01,0.191,0.029c0.323,0.105,0.5,0.451,0.396,0.772C60.392,14.045,60.15,14.211,59.893,14.211 M37.185,14.211
			c-0.259,0-0.5-0.164-0.583-0.425c-0.105-0.321,0.071-0.668,0.395-0.773c0.063-0.021,0.127-0.03,0.189-0.03
			c0.259,0,0.499,0.165,0.584,0.425c0.104,0.322-0.071,0.668-0.396,0.773C37.312,14.201,37.248,14.211,37.185,14.211 M34.432,17.392
			c-0.132,0-0.245-0.056-0.29-0.157l-1.804-4.049c-0.068-0.154,0.049-0.355,0.26-0.449c0.073-0.033,0.149-0.049,0.22-0.049
			c0.132,0,0.244,0.056,0.289,0.156l1.803,4.05c0.068,0.153-0.048,0.355-0.26,0.449C34.577,17.376,34.501,17.392,34.432,17.392
			 M62.646,17.392c-0.07,0-0.146-0.016-0.22-0.049c-0.211-0.096-0.329-0.296-0.26-0.449l1.804-4.05
			c0.044-0.102,0.156-0.156,0.289-0.156c0.069,0,0.146,0.016,0.219,0.048c0.212,0.096,0.328,0.296,0.259,0.45l-1.803,4.049
			C62.891,17.336,62.778,17.392,62.646,17.392 M52.384,12.613c-0.022,0-0.046-0.002-0.069-0.004
			c-0.34-0.036-0.583-0.336-0.544-0.673c0.031-0.314,0.295-0.551,0.607-0.551c0.021,0,0.043,0.001,0.064,0.004
			c0.34,0.036,0.583,0.336,0.548,0.673C52.956,12.377,52.692,12.613,52.384,12.613 M44.697,12.614c-0.311,0-0.577-0.234-0.609-0.55
			c-0.036-0.337,0.208-0.64,0.546-0.675c0.022-0.003,0.043-0.004,0.064-0.004c0.311,0,0.577,0.235,0.61,0.55
			c0.036,0.338-0.209,0.64-0.547,0.675C44.74,12.613,44.718,12.614,44.697,12.614 M41.536,15.881c-0.219,0-0.403-0.108-0.438-0.275
			l-1.136-5.345c-0.044-0.205,0.147-0.417,0.428-0.477c0.049-0.011,0.099-0.016,0.146-0.016c0.221,0,0.404,0.108,0.438,0.276
			l1.138,5.344c0.043,0.204-0.148,0.417-0.43,0.477C41.633,15.876,41.584,15.881,41.536,15.881 M55.538,15.882
			c-0.047,0-0.095-0.005-0.144-0.016c-0.281-0.059-0.476-0.272-0.427-0.475l1.132-5.348c0.037-0.166,0.222-0.275,0.444-0.275
			c0.046,0,0.094,0.004,0.141,0.014c0.281,0.062,0.475,0.276,0.428,0.479l-1.134,5.341C55.94,15.772,55.758,15.882,55.538,15.882
			 M48.538,14.391c-0.231,0-0.419-0.137-0.419-0.306V9.653c0-0.169,0.188-0.306,0.419-0.306c0.233,0,0.42,0.137,0.42,0.306v4.432
			C48.958,14.254,48.771,14.391,48.538,14.391 M48.538,8.123c-2.156,0-4.273,0.169-6.339,0.494
			c-6.702,1.058-12.855,3.764-18.036,7.688c0.391,0.094,0.777,0.191,1.165,0.292c0.043-0.067,0.102-0.131,0.175-0.185
			c0.116-0.084,0.245-0.126,0.361-0.126c0.115,0,0.218,0.042,0.279,0.126l0.365,0.503c24.229,6.77,42.414,26.202,45.334,49.866
			c0.312,0.322,0.479,0.876,0.479,1.611c0,0.495-0.07,0.905-0.204,1.224c0.091,1.281,0.137,2.572,0.137,3.874
			c0,2.785-0.215,5.523-0.622,8.206c10.446-7.289,17.294-19.38,17.321-33.078v-0.001c0-0.013,0-0.025,0-0.038
			c0-0.001,0-0.002,0-0.003c0-0.014,0-0.025,0-0.039C88.954,26.218,70.859,8.123,48.538,8.123"/>
		<path fill="#BE504F" d="M48.538,9.348c-0.231,0-0.419,0.137-0.419,0.306v4.432c0,0.169,0.188,0.306,0.419,0.306
			c0.233,0,0.42-0.137,0.42-0.306V9.653C48.958,9.484,48.771,9.348,48.538,9.348"/>
		<path fill="#BE504F" d="M32.817,12.688c-0.07,0-0.146,0.016-0.22,0.049c-0.211,0.094-0.328,0.295-0.26,0.449l1.804,4.049
			c0.045,0.102,0.158,0.157,0.29,0.157c0.069,0,0.146-0.016,0.218-0.049c0.212-0.094,0.328-0.296,0.26-0.449l-1.803-4.05
			C33.062,12.743,32.949,12.688,32.817,12.688"/>
		<path fill="#BE504F" d="M78.467,65.369c-0.127,0-0.269,0.092-0.355,0.242c-0.116,0.201-0.093,0.434,0.055,0.517l3.837,2.216
			c0.036,0.021,0.077,0.031,0.12,0.031c0.126,0,0.268-0.092,0.354-0.242c0.116-0.2,0.093-0.432-0.054-0.516L78.585,65.4
			C78.549,65.379,78.509,65.369,78.467,65.369"/>
		<path fill="#BE504F" d="M82.822,51.72c-0.16,0-0.3,0.167-0.324,0.387c-0.024,0.231,0.092,0.434,0.261,0.45l4.406,0.463
			c0.008,0.001,0.017,0.002,0.024,0.002c0.158,0,0.3-0.168,0.325-0.388c0.023-0.229-0.093-0.432-0.261-0.449l-4.408-0.463
			C82.838,51.721,82.829,51.72,82.822,51.72"/>
		<path fill="#BE504F" d="M85.461,36.111c-0.024,0-0.048,0.003-0.071,0.011l-4.216,1.37c-0.16,0.053-0.23,0.272-0.16,0.493
			c0.062,0.188,0.208,0.317,0.351,0.317c0.023,0,0.047-0.004,0.071-0.012l4.214-1.37c0.161-0.052,0.23-0.273,0.16-0.494
			C85.749,36.239,85.603,36.111,85.461,36.111"/>
		<path fill="#BE504F" d="M77.323,22.146c-0.064,0-0.123,0.02-0.17,0.061l-3.293,2.966c-0.125,0.114-0.102,0.344,0.054,0.517
			c0.099,0.109,0.227,0.17,0.339,0.17c0.064,0,0.124-0.021,0.169-0.062l3.294-2.966c0.126-0.113,0.101-0.344-0.053-0.517
			C77.563,22.205,77.436,22.146,77.323,22.146"/>
		<path fill="#BE504F" d="M64.26,12.688c-0.133,0-0.245,0.055-0.289,0.156l-1.804,4.05c-0.069,0.153,0.049,0.354,0.26,0.449
			c0.074,0.033,0.149,0.049,0.22,0.049c0.132,0,0.244-0.056,0.288-0.157l1.803-4.049c0.069-0.154-0.047-0.354-0.259-0.45
			C64.405,12.703,64.329,12.688,64.26,12.688"/>
		<path fill="#CCCBCB" d="M44.698,11.386c-0.021,0-0.042,0.001-0.064,0.004c-0.338,0.035-0.582,0.338-0.546,0.675
			c0.032,0.315,0.299,0.55,0.609,0.55c0.021,0,0.043-0.001,0.064-0.004c0.338-0.035,0.583-0.337,0.547-0.675
			C45.275,11.621,45.009,11.386,44.698,11.386"/>
		<path fill="#CCCBCB" d="M37.186,12.982c-0.062,0-0.126,0.01-0.189,0.03c-0.323,0.105-0.5,0.452-0.395,0.773
			c0.083,0.261,0.324,0.425,0.583,0.425c0.063,0,0.127-0.01,0.189-0.03c0.324-0.105,0.5-0.451,0.396-0.773
			C37.685,13.147,37.444,12.982,37.186,12.982"/>
		<path fill="#CCCBCB" d="M30.169,16.106c-0.105,0-0.211,0.026-0.308,0.083c-0.293,0.169-0.395,0.545-0.224,0.839
			c0.114,0.197,0.319,0.308,0.531,0.308c0.104,0,0.209-0.027,0.307-0.083c0.294-0.17,0.395-0.546,0.225-0.839
			C30.587,16.217,30.381,16.106,30.169,16.106"/>
		<path fill="#CCCBCB" d="M78.262,69.519c-0.189,0-0.375,0.088-0.495,0.255c-0.201,0.272-0.14,0.658,0.134,0.857
			c0.109,0.079,0.235,0.117,0.36,0.117c0.189,0,0.377-0.088,0.498-0.254c0.198-0.275,0.138-0.658-0.137-0.857
			C78.513,69.558,78.387,69.519,78.262,69.519"/>
		<path fill="#CCCBCB" d="M82.101,62.867c-0.234,0-0.455,0.135-0.558,0.366c-0.14,0.307,0.001,0.671,0.311,0.81
			c0.081,0.036,0.166,0.054,0.249,0.054c0.234,0,0.458-0.136,0.56-0.364c0.139-0.312-0.001-0.674-0.312-0.812
			C82.27,62.885,82.185,62.867,82.101,62.867"/>
		<path fill="#CCCBCB" d="M84.472,55.563c-0.282,0-0.534,0.196-0.595,0.485c-0.073,0.33,0.141,0.657,0.472,0.729
			c0.043,0.009,0.086,0.014,0.127,0.014c0.283,0,0.539-0.197,0.601-0.486c0.07-0.334-0.142-0.658-0.474-0.728
			C84.559,55.568,84.515,55.563,84.472,55.563"/>
		<path fill="#CCCBCB" d="M85.28,47.925c-0.001,0-0.002,0-0.002,0c-0.002,0-0.003,0-0.003,0c-0.337,0-0.609,0.272-0.609,0.613
			c-0.003,0.339,0.274,0.614,0.612,0.615c0.339,0,0.614-0.274,0.613-0.615C85.892,48.198,85.619,47.925,85.28,47.925"/>
		<path fill="#CCCBCB" d="M84.479,40.286c-0.043,0-0.087,0.005-0.13,0.014c-0.332,0.07-0.543,0.393-0.472,0.728
			c0.059,0.288,0.315,0.486,0.601,0.486c0.041,0,0.084-0.004,0.127-0.014c0.331-0.07,0.542-0.396,0.472-0.729
			C85.015,40.483,84.761,40.286,84.479,40.286"/>
		<path fill="#CCCBCB" d="M82.104,32.98c-0.084,0-0.169,0.018-0.251,0.055c-0.311,0.137-0.45,0.496-0.311,0.809
			c0.1,0.23,0.325,0.365,0.562,0.365c0.082,0,0.167-0.018,0.248-0.053c0.309-0.137,0.448-0.5,0.31-0.812
			C82.561,33.116,82.338,32.98,82.104,32.98"/>
		<path fill="#CCCBCB" d="M78.263,26.33c-0.125,0-0.252,0.038-0.36,0.117c-0.276,0.198-0.339,0.578-0.136,0.856
			c0.118,0.165,0.306,0.253,0.495,0.253c0.126,0,0.253-0.038,0.362-0.117c0.273-0.198,0.335-0.581,0.135-0.856
			C78.638,26.417,78.452,26.33,78.263,26.33"/>
		<path fill="#CCCBCB" d="M73.122,20.622c-0.167,0-0.335,0.068-0.455,0.204c-0.229,0.251-0.209,0.635,0.045,0.864
			c0.116,0.106,0.264,0.158,0.409,0.158c0.169,0,0.337-0.068,0.459-0.203c0.226-0.251,0.207-0.639-0.047-0.866
			C73.415,20.674,73.269,20.622,73.122,20.622"/>
		<path fill="#CCCBCB" d="M66.908,16.106c-0.212,0-0.418,0.11-0.53,0.309c-0.171,0.292-0.072,0.665,0.224,0.836
			c0.097,0.057,0.202,0.083,0.306,0.083c0.212,0,0.42-0.11,0.534-0.307c0.17-0.293,0.069-0.667-0.226-0.838
			C67.118,16.133,67.013,16.106,66.908,16.106"/>
		<path fill="#CCCBCB" d="M59.891,12.983c-0.26,0-0.498,0.165-0.581,0.425c-0.106,0.321,0.067,0.665,0.394,0.771
			c0.062,0.021,0.126,0.031,0.189,0.031c0.258,0,0.499-0.166,0.585-0.426c0.104-0.321-0.072-0.667-0.396-0.772
			C60.018,12.993,59.954,12.983,59.891,12.983"/>
		<path fill="#CCCBCB" d="M52.378,11.386c-0.312,0-0.576,0.236-0.607,0.551c-0.039,0.337,0.204,0.637,0.544,0.673
			c0.023,0.002,0.047,0.004,0.069,0.004c0.309,0,0.572-0.236,0.606-0.551c0.035-0.337-0.208-0.637-0.548-0.673
			C52.421,11.387,52.399,11.386,52.378,11.386"/>
		<path fill="#676868" d="M40.535,9.769c-0.047,0-0.097,0.005-0.146,0.016c-0.28,0.06-0.472,0.271-0.428,0.477l1.136,5.345
			c0.035,0.167,0.22,0.275,0.438,0.275c0.048,0,0.097-0.005,0.146-0.016c0.281-0.06,0.473-0.272,0.43-0.477l-1.138-5.344
			C40.939,9.877,40.756,9.769,40.535,9.769"/>
		<path fill="#676868" d="M25.864,16.286c-0.116,0-0.245,0.042-0.361,0.126c-0.073,0.054-0.132,0.117-0.175,0.185
			c0.394,0.103,0.789,0.209,1.181,0.318l-0.365-0.503C26.082,16.328,25.979,16.286,25.864,16.286"/>
		<path fill="#676868" d="M73.459,69.972c-0.139,0-0.297,0.074-0.418,0.209c-0.191,0.214-0.219,0.495-0.064,0.638l4.059,3.654
			c0.056,0.052,0.13,0.076,0.21,0.076c0.138,0,0.296-0.073,0.418-0.207c0.19-0.216,0.219-0.499,0.065-0.639l-4.062-3.655
			C73.61,69.996,73.538,69.972,73.459,69.972"/>
		<path fill="#676868" d="M80.325,57.917c-0.174,0-0.354,0.158-0.429,0.39c-0.088,0.274,0.001,0.543,0.198,0.609l5.196,1.687
			c0.029,0.01,0.06,0.015,0.089,0.015c0.175,0,0.354-0.157,0.431-0.39c0.088-0.273-0.002-0.544-0.2-0.609l-5.196-1.687
			C80.386,57.922,80.354,57.917,80.325,57.917"/>
		<path fill="#676868" d="M87.112,43.543c-0.009,0-0.019,0-0.027,0.001l-5.435,0.574c-0.208,0.019-0.352,0.269-0.32,0.554
			c0.029,0.272,0.204,0.476,0.403,0.476c0.009,0,0.019,0,0.027-0.001l5.432-0.572c0.207-0.019,0.35-0.27,0.322-0.554
			C87.482,43.746,87.307,43.543,87.112,43.543"/>
		<path fill="#676868" d="M82.037,28.224c-0.052,0-0.101,0.012-0.146,0.037l-4.731,2.734c-0.183,0.102-0.211,0.39-0.067,0.638
			c0.108,0.186,0.281,0.296,0.438,0.296c0.052,0,0.103-0.013,0.148-0.038l4.729-2.731c0.182-0.102,0.211-0.389,0.068-0.638
			C82.368,28.334,82.193,28.224,82.037,28.224"/>
		<path fill="#676868" d="M71.212,16.286c-0.115,0-0.219,0.042-0.28,0.125l-3.209,4.424c-0.126,0.165-0.035,0.44,0.196,0.608
			c0.115,0.083,0.244,0.124,0.358,0.124c0.116,0,0.22-0.042,0.282-0.127l3.211-4.419c0.124-0.167,0.034-0.44-0.197-0.61
			C71.457,16.327,71.328,16.286,71.212,16.286"/>
		<path fill="#676868" d="M56.544,9.769c-0.223,0-0.407,0.109-0.444,0.275l-1.132,5.348c-0.049,0.202,0.146,0.416,0.427,0.475
			c0.049,0.011,0.097,0.016,0.144,0.016c0.22,0,0.402-0.109,0.44-0.279l1.134-5.341c0.047-0.203-0.146-0.418-0.428-0.479
			C56.638,9.772,56.59,9.769,56.544,9.769"/>
		<polyline fill="#E5E5E4" points="39.247,17.708 38.806,17.708 37.972,18.154 38.072,18.55 38.736,18.19 38.748,18.19 
			38.748,21.527 39.247,21.527 39.247,17.708 		"/>
		<path fill="#E5E5E4" d="M41.88,21.192c-0.47,0-0.775-0.563-0.775-1.557c0-1.04,0.329-1.593,0.781-1.593
			c0.534,0,0.776,0.617,0.776,1.558C42.662,20.575,42.408,21.192,41.88,21.192 M41.915,17.644c-0.775,0-1.327,0.706-1.327,1.986
			c0.012,1.264,0.517,1.962,1.263,1.962c0.846,0,1.328-0.717,1.328-2.015C43.179,18.36,42.72,17.644,41.915,17.644"/>
		<path fill="#E5E5E4" d="M44.896,21.192c-0.47,0-0.775-0.563-0.775-1.557c0-1.04,0.329-1.593,0.781-1.593
			c0.535,0,0.775,0.617,0.775,1.558C45.677,20.575,45.425,21.192,44.896,21.192 M44.932,17.644c-0.776,0-1.329,0.706-1.329,1.986
			c0.013,1.264,0.518,1.962,1.264,1.962c0.847,0,1.328-0.717,1.328-2.015C46.194,18.36,45.735,17.644,44.932,17.644"/>
		<polyline fill="#E5E5E4" points="51.937,17.709 51.497,17.709 50.663,18.155 50.764,18.55 51.427,18.19 51.438,18.19 
			51.438,21.527 51.937,21.527 51.937,17.709 		"/>
		<path fill="#E5E5E4" d="M54.508,17.644c-0.442,0-0.817,0.165-1.082,0.389l0.165,0.363c0.175-0.146,0.464-0.322,0.811-0.322
			c0.57,0,0.758,0.358,0.758,0.746c-0.006,0.576-0.447,1.069-1.422,1.998l-0.405,0.394v0.316h2.438v-0.429h-1.716v-0.011
			l0.306-0.282c0.805-0.775,1.315-1.346,1.315-2.051C55.676,18.208,55.33,17.644,54.508,17.644"/>
		<path fill="#4E4F4F" d="M76.059,45.711c-0.446,0.13-0.687,0.424-0.687,0.788c-0.018,0.389,0.276,0.729,0.764,0.729
			c0.464,0,0.764-0.294,0.764-0.682C76.899,46.082,76.576,45.859,76.059,45.711 M79.15,44.055c-0.452,0-0.78,0.553-0.78,1.593
			c0,0.993,0.305,1.557,0.775,1.557c0.528,0,0.781-0.617,0.781-1.592C79.927,44.672,79.686,44.055,79.15,44.055 M76.142,44.025
			c-0.43,0-0.664,0.283-0.664,0.611c0,0.382,0.289,0.587,0.729,0.705c0.329-0.111,0.582-0.347,0.582-0.693
			C76.788,44.343,76.605,44.025,76.142,44.025 M71.932,33.717c-0.312,0-0.599,0.194-0.74,0.471
			c-0.035,0.059-0.059,0.135-0.059,0.229c0.013,0.629,0.3,1.094,0.84,1.094h0.007c0.439,0,0.74-0.37,0.74-0.917
			C72.72,34.047,72.408,33.717,71.932,33.717 M74.947,32.359c-0.452,0-0.781,0.553-0.781,1.593c0,0.993,0.307,1.558,0.775,1.558
			c0.529,0,0.781-0.617,0.781-1.593C75.723,32.977,75.482,32.359,74.947,32.359 M66.425,23.502h-0.019
			c-0.117,0.224-0.212,0.388-0.317,0.564l-0.934,1.299v0.012h1.251v-1.275C66.406,23.901,66.412,23.703,66.425,23.502
			 M69.069,23.338c-0.453,0-0.781,0.552-0.781,1.593c0,0.993,0.307,1.557,0.775,1.557c0.528,0,0.781-0.617,0.781-1.593
			C69.845,23.955,69.604,23.338,69.069,23.338 M57.593,18.044c-0.451,0-0.781,0.552-0.781,1.592c0,0.993,0.306,1.557,0.775,1.557
			c0.529,0,0.781-0.616,0.781-1.592C58.368,18.66,58.128,18.044,57.593,18.044"/>
		<path fill="#E5E5E4" d="M57.587,21.192c-0.47,0-0.775-0.563-0.775-1.557c0-1.04,0.33-1.592,0.781-1.592
			c0.535,0,0.775,0.616,0.775,1.557C58.368,20.576,58.116,21.192,57.587,21.192 M57.622,17.644c-0.775,0-1.328,0.706-1.328,1.986
			c0.013,1.264,0.518,1.963,1.265,1.963c0.846,0,1.326-0.716,1.326-2.016C58.885,18.36,58.427,17.644,57.622,17.644"/>
		<polyline fill="#E5E5E4" points="63.414,23.003 62.974,23.003 62.139,23.45 62.239,23.843 62.903,23.485 62.914,23.485 
			62.914,26.822 63.414,26.822 63.414,23.003 		"/>
		<path fill="#E5E5E4" d="M65.155,25.377v-0.012l0.934-1.299c0.105-0.177,0.2-0.341,0.317-0.564h0.019
			c-0.013,0.201-0.019,0.399-0.019,0.6v1.275H65.155 M66.896,23.003h-0.56l-1.703,2.438v0.34h1.773v1.041h0.489v-1.041h0.534v-0.404
			h-0.534V23.003"/>
		<path fill="#E5E5E4" d="M69.063,26.487c-0.469,0-0.775-0.563-0.775-1.557c0-1.041,0.328-1.593,0.781-1.593
			c0.534,0,0.775,0.617,0.775,1.557C69.845,25.87,69.592,26.487,69.063,26.487 M69.1,22.938c-0.776,0-1.329,0.705-1.329,1.985
			c0.013,1.263,0.518,1.963,1.264,1.963c0.846,0,1.328-0.717,1.328-2.016C70.362,23.655,69.903,22.938,69.1,22.938"/>
		<polyline fill="#E5E5E4" points="69.293,32.025 68.853,32.025 68.018,32.472 68.117,32.865 68.782,32.508 68.793,32.508 
			68.793,35.844 69.293,35.844 69.293,32.025 		"/>
		<path fill="#E5E5E4" d="M71.973,35.51c-0.54,0-0.827-0.465-0.84-1.094c0-0.094,0.023-0.17,0.059-0.229
			c0.142-0.276,0.429-0.471,0.74-0.471c0.477,0,0.788,0.33,0.788,0.876c0,0.547-0.301,0.917-0.74,0.917H71.973 M72.866,31.967
			c-0.095,0-0.224,0.006-0.375,0.029c-0.482,0.059-0.905,0.252-1.223,0.563c-0.377,0.377-0.646,0.97-0.646,1.722
			c0,0.993,0.534,1.628,1.351,1.628c0.794,0,1.269-0.646,1.269-1.346c0-0.746-0.475-1.234-1.15-1.234c-0.422,0-0.74,0.2-0.922,0.441
			H71.15c0.089-0.629,0.519-1.223,1.327-1.358c0.113-0.018,0.219-0.024,0.309-0.024c0.029,0,0.056,0.001,0.08,0.002V31.967"/>
		<path fill="#E5E5E4" d="M74.941,35.51c-0.469,0-0.775-0.564-0.775-1.558c0-1.04,0.329-1.593,0.781-1.593
			c0.535,0,0.775,0.617,0.775,1.558C75.723,34.893,75.471,35.51,74.941,35.51 M74.978,31.96c-0.775,0-1.328,0.706-1.328,1.987
			c0.012,1.262,0.517,1.962,1.263,1.962c0.847,0,1.328-0.717,1.328-2.016C76.24,32.678,75.782,31.96,74.978,31.96"/>
		<polyline fill="#E5E5E4" points="73.496,43.72 73.055,43.72 72.221,44.166 72.32,44.561 72.985,44.202 72.996,44.202 
			72.996,47.539 73.496,47.539 73.496,43.72 		"/>
		<path fill="#E5E5E4" d="M76.136,47.228c-0.487,0-0.781-0.34-0.764-0.729c0-0.364,0.24-0.658,0.687-0.788
			c0.518,0.148,0.841,0.371,0.841,0.835C76.899,46.934,76.6,47.228,76.136,47.228 M76.206,45.342
			c-0.439-0.118-0.729-0.323-0.729-0.705c0-0.328,0.234-0.611,0.664-0.611c0.464,0,0.646,0.317,0.646,0.623
			C76.788,44.995,76.535,45.23,76.206,45.342 M76.171,43.655c-0.67,0-1.182,0.412-1.182,1.017c0,0.329,0.183,0.658,0.606,0.857
			l0.005,0.018c-0.47,0.199-0.758,0.54-0.758,1.022c0,0.559,0.481,1.034,1.281,1.034c0.729,0,1.298-0.446,1.298-1.11
			c0-0.464-0.293-0.799-0.77-0.987v-0.017c0.472-0.225,0.629-0.571,0.629-0.894C77.281,44.119,76.911,43.655,76.171,43.655"/>
		<path fill="#E5E5E4" d="M79.146,47.204c-0.471,0-0.775-0.563-0.775-1.557c0-1.04,0.328-1.593,0.78-1.593
			c0.535,0,0.776,0.617,0.776,1.558C79.927,46.587,79.674,47.204,79.146,47.204 M79.181,43.655c-0.776,0-1.328,0.705-1.328,1.986
			c0.012,1.263,0.518,1.962,1.263,1.962c0.847,0,1.327-0.716,1.327-2.016C80.442,44.372,79.985,43.655,79.181,43.655"/>
		<path fill="#E5E5E4" d="M72.188,54.78c-0.44,0-0.816,0.165-1.081,0.389l0.164,0.363c0.176-0.146,0.465-0.322,0.812-0.322
			c0.57,0,0.758,0.358,0.758,0.746c-0.006,0.575-0.446,1.068-1.423,1.997l-0.403,0.394v0.317h2.438v-0.429h-1.716v-0.012
			l0.306-0.282c0.805-0.775,1.316-1.345,1.316-2.051C73.358,55.345,73.011,54.78,72.188,54.78"/>
		<path fill="#4E4F4F" d="M75.274,55.181c-0.452,0-0.78,0.552-0.78,1.592c0,0.993,0.305,1.557,0.774,1.557
			c0.528,0,0.781-0.616,0.781-1.592C76.05,55.797,75.809,55.181,75.274,55.181 M78.29,55.181c-0.452,0-0.781,0.552-0.781,1.592
			c0,0.993,0.305,1.557,0.775,1.557c0.529,0,0.781-0.616,0.781-1.592C79.065,55.797,78.824,55.181,78.29,55.181"/>
		<path fill="#E5E5E4" d="M75.269,58.329c-0.47,0-0.774-0.563-0.774-1.557c0-1.04,0.328-1.592,0.78-1.592
			c0.534,0,0.775,0.616,0.775,1.557C76.05,57.713,75.797,58.329,75.269,58.329 M75.305,54.78c-0.776,0-1.328,0.706-1.328,1.986
			c0.011,1.263,0.518,1.963,1.263,1.963c0.846,0,1.328-0.717,1.328-2.016C76.567,55.498,76.108,54.78,75.305,54.78"/>
		<path fill="#E5E5E4" d="M78.284,58.329c-0.471,0-0.775-0.563-0.775-1.557c0-1.04,0.329-1.592,0.781-1.592
			c0.534,0,0.775,0.616,0.775,1.557C79.065,57.713,78.813,58.329,78.284,58.329 M78.32,54.78c-0.775,0-1.328,0.706-1.328,1.986
			c0.012,1.263,0.517,1.963,1.263,1.963c0.846,0,1.328-0.717,1.328-2.016C79.583,55.498,79.124,54.78,78.32,54.78"/>
		<path fill="#E5E5E4" d="M71.843,66.781c0.116,0.938,0.209,1.885,0.275,2.835c0.134-0.318,0.204-0.729,0.204-1.224
			C72.322,67.657,72.154,67.104,71.843,66.781"/>
	</g>
</g>
<g id="needle">
	
		<linearGradient id="SVGID_3_" gradientUnits="userSpaceOnUse" x1="11.9028" y1="793.3662" x2="12.2197" y2="793.3662" gradientTransform="matrix(-31.6901 -22.1897 -22.1897 31.6901 18035.2812 -24826.0781)">
		<stop  offset="0" style="stop-color:#010101"/>
		<stop  offset="0.3876" style="stop-color:#030303"/>
		<stop  offset="0.5284" style="stop-color:#090A0A"/>
		<stop  offset="0.6289" style="stop-color:#131414"/>
		<stop  offset="0.7103" style="stop-color:#1E1F1E"/>
		<stop  offset="0.7792" style="stop-color:#292A29"/>
		<stop  offset="0.8297" style="stop-color:#333333"/>
		<stop  offset="0.8614" style="stop-color:#393939"/>
		<stop  offset="0.9186" style="stop-color:#4A4A49"/>
		<stop  offset="0.9942" style="stop-color:#656565"/>
		<stop  offset="1" style="stop-color:#676868"/>
	</linearGradient>
	<circle fill="url(#SVGID_3_)" cx="48.491" cy="48.155" r="6.124"/>
	<circle fill="#BD232F" cx="48.491" cy="48.155" r="3.062"/>
	<polygon fill="#BD232F" points="47.543,47.403 84.428,33.744 48.244,49.158 	"/>
</g>
</svg>
