<svg version="1.1" xmlns="http://www.w3.org/2000/svg" xmlns:xlink="http://www.w3.org/1999/xlink" x="0px"
	 y="0px" width="480px" height="800px" viewBox="0 0 480 800">
<symbol  id="DNA" viewBox="0 -39.7 1000.4 39.7">
	<path fill-rule="evenodd" clip-rule="evenodd" fill="#FFFFFF" d="M999.4-16.1c0.167-0.1,0.367-0.066,0.6,0.1
		c0.133,0.1,0.267,0.217,0.4,0.35V-24c-0.1,0.067-0.2,0.133-0.3,0.2c-0.267,0.2-0.5,0.283-0.7,0.25
		c-0.066-0.034-0.117-0.067-0.15-0.1c-6.633-5.434-11.434-9.05-14.4-10.85c-5.8-3.433-11.483-5.167-17.05-5.2
		c-2.6,0-5.233,0.4-7.9,1.2c-3,0.833-6.033,2.167-9.1,4c-3,1.8-7.8,5.4-14.4,10.8v0.1c-0.066,0-0.117-0.033-0.15-0.1
		c-6.566-5.4-11.4-9.017-14.5-10.85c-5.733-3.4-11.383-5.117-16.95-5.15c-2.6,0-5.233,0.383-7.9,1.15c-3,0.867-6.033,2.216-9.1,4.05
		c-2.838,1.677-7.421,5.102-13.75,10.275c-6.273-5.114-10.839-8.54-13.7-10.275c-5.8-3.433-11.483-5.167-17.05-5.2
		c-2.6,0-5.233,0.4-7.9,1.2c-3,0.833-6.033,2.167-9.1,4c-3,1.8-7.8,5.4-14.4,10.8v0.1c-0.066,0-0.117-0.033-0.15-0.1
		c-6.566-5.4-11.4-9.017-14.5-10.85c-5.733-3.4-11.383-5.117-16.95-5.15c-2.6,0-5.233,0.383-7.9,1.15c-3,0.867-6.033,2.216-9.1,4.05
		c-2.908,1.719-7.65,5.269-14.225,10.65c-6.518-5.321-11.243-8.871-14.175-10.65c-5.8-3.433-11.483-5.167-17.05-5.2
		c-2.6,0-5.233,0.4-7.9,1.2c-3,0.833-6.034,2.167-9.1,4c-3,1.8-7.8,5.4-14.4,10.8v0.1c-0.067,0-0.117-0.033-0.15-0.1
		c-6.566-5.4-11.4-9.017-14.5-10.85c-5.733-3.4-11.383-5.117-16.95-5.15c-2.6,0-5.233,0.383-7.9,1.15c-3,0.867-6.034,2.216-9.1,4.05
		c-2.838,1.677-7.421,5.102-13.75,10.275c-6.273-5.114-10.84-8.54-13.7-10.275c-5.8-3.433-11.483-5.167-17.05-5.2
		c-2.6,0-5.233,0.4-7.9,1.2c-3,0.833-6.034,2.167-9.1,4c-3,1.8-7.8,5.4-14.4,10.8v0.1c-0.067,0-0.117-0.033-0.15-0.1
		c-6.566-5.4-11.4-9.017-14.5-10.85c-5.733-3.4-11.383-5.117-16.95-5.15c-2.6,0-5.233,0.383-7.9,1.15c-3,0.867-6.034,2.216-9.1,4.05
		c-2.838,1.677-7.421,5.102-13.75,10.275c-6.273-5.114-10.84-8.54-13.7-10.275c-5.8-3.433-11.483-5.167-17.05-5.2
		c-2.6,0-5.233,0.4-7.9,1.2c-3,0.833-6.034,2.167-9.1,4c-3,1.8-7.8,5.4-14.4,10.8v0.1c-0.067,0-0.117-0.033-0.15-0.1
		c-6.566-5.4-11.4-9.017-14.5-10.85c-5.733-3.4-11.383-5.117-16.95-5.15c-2.6,0-5.233,0.383-7.9,1.15c-3,0.867-6.034,2.216-9.1,4.05
		c-2.838,1.677-7.421,5.102-13.75,10.275c-6.273-5.114-10.84-8.54-13.7-10.275c-5.8-3.433-11.483-5.167-17.05-5.2
		c-2.6,0-5.233,0.4-7.9,1.2c-3,0.833-6.034,2.167-9.1,4c-3,1.8-7.8,5.4-14.4,10.8v0.1c-0.067,0-0.117-0.033-0.15-0.1
		c-6.566-5.4-11.4-9.017-14.5-10.85c-5.733-3.4-11.383-5.117-16.95-5.15c-2.6,0-5.233,0.383-7.9,1.15c-3,0.867-6.034,2.216-9.1,4.05
		c-2.909,1.719-7.65,5.269-14.225,10.65c-6.518-5.321-11.243-8.871-14.175-10.65c-5.8-3.433-11.483-5.167-17.05-5.2
		c-2.6,0-5.233,0.4-7.9,1.2c-3,0.833-6.033,2.167-9.1,4c-3,1.8-7.8,5.4-14.4,10.8v0.1c-0.067,0-0.117-0.033-0.15-0.1
		c-6.567-5.4-11.4-9.017-14.5-10.85c-5.733-3.4-11.383-5.117-16.95-5.15c-2.6,0-5.233,0.383-7.9,1.15c-3,0.867-6.033,2.216-9.1,4.05
		c-2.838,1.677-7.421,5.102-13.75,10.275c-6.273-5.114-10.84-8.54-13.7-10.275c-5.8-3.433-11.483-5.167-17.05-5.2
		c-2.6,0-5.233,0.4-7.9,1.2c-3,0.833-6.033,2.167-9.1,4c-3,1.8-7.8,5.4-14.4,10.8v0.1c-0.067,0-0.117-0.033-0.15-0.1
		c-6.567-5.4-11.4-9.017-14.5-10.85c-5.733-3.4-11.383-5.117-16.95-5.15c-2.6,0-5.233,0.383-7.9,1.15c-3,0.867-6.033,2.216-9.1,4.05
		C11.467-32.767,6.667-29.167,0-23.7v7.7c6.6,5.4,11.4,9,14.4,10.8c3.067,1.833,6.1,3.167,9.1,4C26.167-0.4,28.8,0,31.4,0
		c5.567-0.033,11.25-1.767,17.05-5.2c2.966-1.8,7.767-5.417,14.4-10.85c0.033-0.034,0.083-0.067,0.15-0.1V-16
		c6.667,5.467,11.467,9.067,14.4,10.8c3.067,1.833,6.1,3.184,9.1,4.05C89.167-0.383,91.8,0,94.4,0
		c5.567-0.033,11.217-1.75,16.95-5.15c2.993-1.77,7.602-5.204,13.825-10.3c6.254,5.096,10.829,8.512,13.725,10.25
		c3.067,1.833,6.1,3.167,9.1,4c2.667,0.8,5.3,1.2,7.9,1.2c5.567-0.033,11.25-1.767,17.05-5.2c2.966-1.8,7.767-5.417,14.4-10.85
		c0.033-0.034,0.083-0.067,0.15-0.1V-16c6.667,5.467,11.467,9.067,14.4,10.8c3.067,1.833,6.1,3.184,9.1,4.05
		c2.667,0.767,5.3,1.15,7.9,1.15c5.567-0.033,11.217-1.75,16.95-5.15c3.068-1.815,7.835-5.373,14.3-10.675
		c6.497,5.302,11.23,8.843,14.2,10.625c3.066,1.833,6.1,3.167,9.1,4c2.667,0.8,5.3,1.2,7.9,1.2c5.566-0.033,11.25-1.767,17.05-5.2
		c2.967-1.8,7.767-5.417,14.4-10.85c0.034-0.034,0.083-0.067,0.15-0.1V-16c6.667,5.467,11.466,9.067,14.4,10.8
		c3.066,1.833,6.1,3.184,9.1,4.05c2.667,0.767,5.3,1.15,7.9,1.15c5.566-0.033,11.217-1.75,16.95-5.15
		c2.993-1.77,7.602-5.204,13.825-10.3c6.253,5.096,10.829,8.512,13.725,10.25c3.066,1.833,6.1,3.167,9.1,4
		c2.667,0.8,5.3,1.2,7.9,1.2c5.566-0.033,11.25-1.767,17.05-5.2c2.967-1.8,7.767-5.417,14.4-10.85c0.034-0.034,0.083-0.067,0.15-0.1
		V-16c6.667,5.467,11.466,9.067,14.4,10.8c3.066,1.833,6.1,3.184,9.1,4.05c2.667,0.767,5.3,1.15,7.9,1.15
		c5.566-0.033,11.217-1.75,16.95-5.15c2.993-1.77,7.602-5.204,13.825-10.3c6.253,5.096,10.829,8.512,13.725,10.25
		c3.066,1.833,6.1,3.167,9.1,4c2.667,0.8,5.3,1.2,7.9,1.2c5.566-0.033,11.25-1.767,17.05-5.2c2.967-1.8,7.767-5.417,14.4-10.85
		c0.034-0.034,0.083-0.067,0.15-0.1V-16c6.667,5.467,11.466,9.067,14.4,10.8c3.066,1.833,6.1,3.184,9.1,4.05
		c2.667,0.767,5.3,1.15,7.9,1.15c5.566-0.033,11.216-1.75,16.95-5.15c2.993-1.77,7.602-5.204,13.825-10.3
		c6.253,5.096,10.829,8.512,13.725,10.25c3.066,1.833,6.1,3.167,9.1,4c2.667,0.8,5.3,1.2,7.9,1.2c5.566-0.033,11.25-1.767,17.05-5.2
		c2.967-1.8,7.767-5.417,14.4-10.85c0.034-0.034,0.083-0.067,0.15-0.1V-16c6.667,5.467,11.466,9.067,14.4,10.8
		c3.066,1.833,6.1,3.184,9.1,4.05c2.667,0.767,5.3,1.15,7.9,1.15c5.566-0.033,11.216-1.75,16.95-5.15
		c3.069-1.815,7.835-5.373,14.3-10.675c6.497,5.302,11.23,8.843,14.2,10.625c3.067,1.833,6.1,3.167,9.1,4c2.667,0.8,5.3,1.2,7.9,1.2
		c5.567-0.033,11.25-1.767,17.05-5.2c2.966-1.8,7.767-5.417,14.4-10.85c0.033-0.034,0.083-0.067,0.15-0.1V-16
		c6.667,5.467,11.467,9.067,14.4,10.8c3.067,1.833,6.1,3.184,9.1,4.05c2.667,0.767,5.3,1.15,7.9,1.15
		c5.567-0.033,11.217-1.75,16.95-5.15c2.993-1.77,7.602-5.204,13.825-10.3c6.253,5.096,10.828,8.512,13.725,10.25
		c3.067,1.833,6.1,3.167,9.1,4c2.667,0.8,5.3,1.2,7.9,1.2c5.567-0.033,11.25-1.767,17.05-5.2c2.966-1.8,7.767-5.417,14.4-10.85
		c0.033-0.034,0.083-0.067,0.15-0.1V-16c6.667,5.467,11.467,9.067,14.4,10.8c3.067,1.833,6.1,3.184,9.1,4.05
		c2.667,0.767,5.3,1.15,7.9,1.15c5.567-0.033,11.217-1.75,16.95-5.15c3.1-1.833,7.934-5.45,14.5-10.85
		C999.283-16.067,999.333-16.1,999.4-16.1z M992.6-18.1l-3.65-2.95c-0.367-0.233-0.55-0.15-0.55,0.25v6c0,0.267-0.167,0.566-0.5,0.9
		c-1.7,1.233-3.3,2.333-4.8,3.3c-0.333,0.2-0.5,0.133-0.5-0.2l-0.05-14.05c0-0.467-0.167-0.8-0.5-1
		c-1.533-0.933-3.017-1.717-4.45-2.35c-0.4-0.1-0.6,0.034-0.6,0.4v19.9c0,0.267-0.184,0.517-0.55,0.75c-1.6,0.6-3.167,1.033-4.7,1.3
		c-0.4,0.067-0.566-0.017-0.5-0.25l-0.05-23.3c0.033-0.4-0.134-0.633-0.5-0.7c-0.733-0.133-1.7-0.2-2.9-0.2l-1.65,0.05
		c-0.333,0-0.5,0.167-0.5,0.5v23.7c0,0.133-0.066,0.233-0.2,0.3c-0.1,0.1-0.184,0.15-0.25,0.15c-1.833-0.233-3.467-0.633-4.9-1.2
		c-0.2-0.034-0.333-0.1-0.4-0.2c-0.066-0.133-0.1-0.267-0.1-0.4v-20.8c0-0.466-0.183-0.617-0.55-0.45
		c-1.5,0.566-3.017,1.283-4.55,2.15c-0.3,0.167-0.45,0.45-0.45,0.85v15.5c0,0.133-0.066,0.233-0.2,0.3c-0.1,0.033-0.2,0.033-0.3,0
		c-1.733-1.066-3.316-2.117-4.75-3.15c-0.367-0.233-0.55-0.583-0.55-1.05l-0.05-7.65c0.067-0.2,0.034-0.316-0.1-0.35
		c-0.1-0.067-0.216-0.067-0.35,0l-4.8,3.8c-0.066,0.067-0.183,0.117-0.35,0.15c-0.233-0.033-0.417-0.083-0.55-0.15l-1.45-1.25
		c-0.3-0.233-0.316-0.45-0.05-0.65c5.633-4.7,10.083-7.983,13.35-9.85c1.966-1.167,3.9-2.1,5.8-2.8c2.7-0.967,5.333-1.434,7.9-1.4
		c4.3-0.033,8.9,1.367,13.8,4.2c3.233,1.9,7.65,5.183,13.25,9.85c0.267,0.2,0.3,0.4,0.1,0.6l-1.75,1.35
		C993.066-18.067,992.867-18.033,992.6-18.1z M931.95-20.15c0.2,0.2,0.167,0.4-0.1,0.6c-5.6,4.667-10.017,7.95-13.25,9.85
		c-4.9,2.833-9.5,4.233-13.8,4.2c-2.566,0.033-5.2-0.433-7.9-1.4c-1.9-0.7-3.833-1.633-5.8-2.8c-3.267-1.867-7.717-5.15-13.35-9.85
		c-0.267-0.2-0.25-0.417,0.05-0.65l1.45-1.25c0.133-0.066,0.316-0.117,0.55-0.15c0.167,0.033,0.284,0.083,0.35,0.15l4.8,3.8
		c0.133,0.066,0.25,0.066,0.35,0c0.134-0.033,0.167-0.15,0.1-0.35l0.05-7.65c0-0.467,0.183-0.817,0.55-1.05
		c1.434-1.033,3.017-2.083,4.75-3.15c0.1-0.033,0.2-0.033,0.3,0c0.134,0.067,0.2,0.167,0.2,0.3v15.5c0,0.4,0.15,0.683,0.45,0.85
		c1.533,0.867,3.05,1.583,4.55,2.15c0.367,0.167,0.55,0.017,0.55-0.45v-20.8c0-0.133,0.034-0.267,0.1-0.4
		c0.067-0.1,0.2-0.167,0.4-0.2c1.434-0.567,3.067-0.967,4.9-1.2c0.066,0,0.15,0.05,0.25,0.15c0.133,0.067,0.2,0.167,0.2,0.3v23.7
		c0,0.333,0.167,0.5,0.5,0.5l1.65,0.05c1.2,0,2.167-0.067,2.9-0.2c0.366-0.066,0.533-0.3,0.5-0.7l0.05-23.3
		c-0.066-0.233,0.1-0.316,0.5-0.25c1.533,0.267,3.1,0.7,4.7,1.3c0.366,0.233,0.55,0.483,0.55,0.75v19.9c0,0.367,0.2,0.5,0.6,0.4
		c1.433-0.633,2.917-1.417,4.45-2.35c0.333-0.2,0.5-0.533,0.5-1l0.05-14.05c0-0.333,0.167-0.4,0.5-0.2c1.5,0.967,3.1,2.067,4.8,3.3
		c0.333,0.333,0.5,0.633,0.5,0.9v6c0,0.4,0.184,0.483,0.55,0.25l3.65-2.95c0.267-0.066,0.466-0.033,0.6,0.1L931.95-20.15z
		 M858.1-10.8l-0.05-14.05c0-0.467-0.167-0.8-0.5-1c-1.533-0.933-3.017-1.717-4.45-2.35c-0.4-0.1-0.6,0.034-0.6,0.4v19.9
		c0,0.267-0.184,0.517-0.55,0.75c-1.6,0.6-3.167,1.033-4.7,1.3c-0.4,0.067-0.566-0.017-0.5-0.25l-0.05-23.3
		c0.033-0.4-0.134-0.633-0.5-0.7c-0.733-0.133-1.7-0.2-2.9-0.2l-1.65,0.05c-0.333,0-0.5,0.167-0.5,0.5v23.7
		c0,0.133-0.066,0.233-0.2,0.3c-0.1,0.1-0.184,0.15-0.25,0.15c-1.833-0.233-3.467-0.633-4.9-1.2c-0.2-0.034-0.333-0.1-0.4-0.2
		c-0.066-0.133-0.1-0.267-0.1-0.4v-20.8c0-0.466-0.183-0.617-0.55-0.45c-1.5,0.566-3.017,1.283-4.55,2.15
		c-0.3,0.167-0.45,0.45-0.45,0.85v15.5c0,0.133-0.066,0.233-0.2,0.3c-0.1,0.033-0.2,0.033-0.3,0c-1.733-1.066-3.316-2.117-4.75-3.15
		c-0.367-0.233-0.55-0.583-0.55-1.05l-0.05-7.65c0.067-0.2,0.034-0.316-0.1-0.35c-0.1-0.067-0.216-0.067-0.35,0l-4.8,3.8
		c-0.066,0.067-0.183,0.117-0.35,0.15c-0.233-0.033-0.417-0.083-0.55-0.15l-1.45-1.25c-0.3-0.233-0.316-0.45-0.05-0.65
		c5.633-4.7,10.083-7.983,13.35-9.85c1.966-1.167,3.9-2.1,5.8-2.8c2.7-0.967,5.333-1.434,7.9-1.4c4.3-0.033,8.9,1.367,13.8,4.2
		c3.233,1.9,7.65,5.183,13.25,9.85c0.267,0.2,0.3,0.4,0.1,0.6l-1.75,1.35c-0.134,0.133-0.333,0.167-0.6,0.1l-3.65-2.95
		c-0.367-0.233-0.55-0.15-0.55,0.25v6c0,0.267-0.167,0.566-0.5,0.9c-1.7,1.233-3.3,2.333-4.8,3.3
		C858.267-10.4,858.1-10.467,858.1-10.8z M805.1-21.6c0.267-0.066,0.466-0.033,0.6,0.1l1.75,1.35c0.2,0.2,0.167,0.4-0.1,0.6
		c-5.6,4.667-10.017,7.95-13.25,9.85c-4.9,2.833-9.5,4.233-13.8,4.2c-2.566,0.033-5.2-0.433-7.9-1.4c-1.9-0.7-3.833-1.633-5.8-2.8
		c-3.267-1.867-7.717-5.15-13.35-9.85c-0.267-0.2-0.25-0.417,0.05-0.65l1.45-1.25c0.133-0.066,0.316-0.117,0.55-0.15
		c0.167,0.033,0.284,0.083,0.35,0.15l4.8,3.8c0.133,0.066,0.25,0.066,0.35,0c0.134-0.033,0.167-0.15,0.1-0.35l0.05-7.65
		c0-0.467,0.183-0.817,0.55-1.05c1.434-1.033,3.017-2.083,4.75-3.15c0.1-0.033,0.2-0.033,0.3,0c0.134,0.067,0.2,0.167,0.2,0.3v15.5
		c0,0.4,0.15,0.683,0.45,0.85c1.533,0.867,3.05,1.583,4.55,2.15c0.367,0.167,0.55,0.017,0.55-0.45v-20.8
		c0-0.133,0.034-0.267,0.1-0.4c0.067-0.1,0.2-0.167,0.4-0.2c1.434-0.567,3.067-0.967,4.9-1.2c0.066,0,0.15,0.05,0.25,0.15
		c0.133,0.067,0.2,0.167,0.2,0.3v23.7c0,0.333,0.167,0.5,0.5,0.5l1.65,0.05c1.2,0,2.167-0.067,2.9-0.2
		c0.366-0.066,0.533-0.3,0.5-0.7l0.05-23.3c-0.066-0.233,0.1-0.316,0.5-0.25c1.533,0.267,3.1,0.7,4.7,1.3
		c0.366,0.233,0.55,0.483,0.55,0.75v19.9c0,0.367,0.2,0.5,0.6,0.4c1.433-0.633,2.917-1.417,4.45-2.35c0.333-0.2,0.5-0.533,0.5-1
		l0.05-14.05c0-0.333,0.167-0.4,0.5-0.2c1.5,0.967,3.1,2.067,4.8,3.3c0.333,0.333,0.5,0.633,0.5,0.9v6c0,0.4,0.184,0.483,0.55,0.25
		L805.1-21.6z M732.65-10.8l-0.05-14.05c0-0.467-0.167-0.8-0.5-1c-1.534-0.933-3.017-1.717-4.45-2.35c-0.4-0.1-0.6,0.034-0.6,0.4
		v19.9c0,0.267-0.183,0.517-0.55,0.75c-1.6,0.6-3.167,1.033-4.7,1.3c-0.4,0.067-0.566-0.017-0.5-0.25l-0.05-23.3
		c0.033-0.4-0.133-0.633-0.5-0.7c-0.733-0.133-1.7-0.2-2.9-0.2l-1.65,0.05c-0.333,0-0.5,0.167-0.5,0.5v23.7
		c0,0.133-0.067,0.233-0.2,0.3c-0.1,0.1-0.184,0.15-0.25,0.15c-1.833-0.233-3.467-0.633-4.9-1.2c-0.2-0.034-0.333-0.1-0.4-0.2
		c-0.067-0.133-0.1-0.267-0.1-0.4v-20.8c0-0.466-0.184-0.617-0.55-0.45c-1.5,0.566-3.017,1.283-4.55,2.15
		c-0.3,0.167-0.45,0.45-0.45,0.85v15.5c0,0.133-0.066,0.233-0.2,0.3c-0.1,0.033-0.2,0.033-0.3,0c-1.733-1.066-3.316-2.117-4.75-3.15
		c-0.366-0.233-0.55-0.583-0.55-1.05l-0.05-7.65c0.066-0.2,0.033-0.316-0.1-0.35c-0.1-0.067-0.217-0.067-0.35,0l-4.8,3.8
		c-0.067,0.067-0.184,0.117-0.35,0.15c-0.233-0.033-0.417-0.083-0.55-0.15l-1.45-1.25c-0.3-0.233-0.317-0.45-0.05-0.65
		c5.634-4.7,10.083-7.983,13.35-9.85c1.967-1.167,3.9-2.1,5.8-2.8c2.7-0.967,5.333-1.434,7.9-1.4c4.3-0.033,8.9,1.367,13.8,4.2
		c3.233,1.9,7.65,5.183,13.25,9.85c0.267,0.2,0.3,0.4,0.1,0.6l-1.75,1.35c-0.133,0.133-0.333,0.167-0.6,0.1L739-21.05
		c-0.367-0.233-0.55-0.15-0.55,0.25v6c0,0.267-0.167,0.566-0.5,0.9c-1.7,1.233-3.3,2.333-4.8,3.3
		C732.816-10.4,732.65-10.467,732.65-10.8z M675.45-18.9c0,0.4,0.183,0.483,0.55,0.25l3.65-2.95c0.267-0.066,0.467-0.033,0.6,0.1
		l1.75,1.35c0.2,0.2,0.167,0.4-0.1,0.6c-5.6,4.667-10.017,7.95-13.25,9.85c-4.9,2.833-9.5,4.233-13.8,4.2
		c-2.567,0.033-5.2-0.433-7.9-1.4c-1.9-0.7-3.833-1.633-5.8-2.8c-3.267-1.867-7.716-5.15-13.35-9.85
		c-0.267-0.2-0.25-0.417,0.05-0.65l1.45-1.25c0.134-0.066,0.317-0.117,0.55-0.15c0.167,0.033,0.283,0.083,0.35,0.15l4.8,3.8
		c0.133,0.066,0.25,0.066,0.35,0c0.133-0.033,0.167-0.15,0.1-0.35l0.05-7.65c0-0.467,0.184-0.817,0.55-1.05
		c1.434-1.033,3.017-2.083,4.75-3.15c0.1-0.033,0.2-0.033,0.3,0c0.133,0.067,0.2,0.167,0.2,0.3v15.5c0,0.4,0.15,0.683,0.45,0.85
		c1.533,0.867,3.05,1.583,4.55,2.15c0.367,0.167,0.55,0.017,0.55-0.45v-20.8c0-0.133,0.033-0.267,0.1-0.4
		c0.066-0.1,0.2-0.167,0.4-0.2c1.433-0.567,3.066-0.967,4.9-1.2c0.066,0,0.15,0.05,0.25,0.15c0.133,0.067,0.2,0.167,0.2,0.3v23.7
		c0,0.333,0.167,0.5,0.5,0.5l1.65,0.05c1.2,0,2.167-0.067,2.9-0.2c0.367-0.066,0.533-0.3,0.5-0.7l0.05-23.3
		c-0.066-0.233,0.1-0.316,0.5-0.25c1.534,0.267,3.1,0.7,4.7,1.3c0.367,0.233,0.55,0.483,0.55,0.75v19.9c0,0.367,0.2,0.5,0.6,0.4
		c1.434-0.633,2.917-1.417,4.45-2.35c0.333-0.2,0.5-0.533,0.5-1l0.05-14.05c0-0.333,0.167-0.4,0.5-0.2c1.5,0.967,3.1,2.067,4.8,3.3
		c0.333,0.333,0.5,0.633,0.5,0.9V-18.9z M608.15-10.8l-0.05-14.05c0-0.467-0.167-0.8-0.5-1c-1.534-0.933-3.017-1.717-4.45-2.35
		c-0.4-0.1-0.6,0.034-0.6,0.4v19.9c0,0.267-0.183,0.517-0.55,0.75c-1.6,0.6-3.167,1.033-4.7,1.3c-0.4,0.067-0.566-0.017-0.5-0.25
		l-0.05-23.3c0.033-0.4-0.133-0.633-0.5-0.7c-0.733-0.133-1.7-0.2-2.9-0.2l-1.65,0.05c-0.333,0-0.5,0.167-0.5,0.5v23.7
		c0,0.133-0.067,0.233-0.2,0.3c-0.1,0.1-0.184,0.15-0.25,0.15c-1.833-0.233-3.467-0.633-4.9-1.2c-0.2-0.034-0.333-0.1-0.4-0.2
		c-0.067-0.133-0.1-0.267-0.1-0.4v-20.8c0-0.466-0.184-0.617-0.55-0.45c-1.5,0.566-3.017,1.283-4.55,2.15
		c-0.3,0.167-0.45,0.45-0.45,0.85v15.5c0,0.133-0.066,0.233-0.2,0.3c-0.1,0.033-0.2,0.033-0.3,0c-1.733-1.066-3.316-2.117-4.75-3.15
		c-0.366-0.233-0.55-0.583-0.55-1.05l-0.05-7.65c0.066-0.2,0.033-0.316-0.1-0.35c-0.1-0.067-0.217-0.067-0.35,0l-4.8,3.8
		c-0.067,0.067-0.184,0.117-0.35,0.15c-0.233-0.033-0.417-0.083-0.55-0.15l-1.45-1.25c-0.3-0.233-0.317-0.45-0.05-0.65
		c5.634-4.7,10.083-7.983,13.35-9.85c1.967-1.167,3.9-2.1,5.8-2.8c2.7-0.967,5.333-1.434,7.9-1.4c4.3-0.033,8.9,1.367,13.8,4.2
		c3.233,1.9,7.65,5.183,13.25,9.85c0.267,0.2,0.3,0.4,0.1,0.6l-1.75,1.35c-0.133,0.133-0.333,0.167-0.6,0.1l-3.65-2.95
		c-0.367-0.233-0.55-0.15-0.55,0.25v6c0,0.267-0.167,0.566-0.5,0.9c-1.7,1.233-3.3,2.333-4.8,3.3
		C608.316-10.4,608.15-10.467,608.15-10.8z M555.15-21.6c0.267-0.066,0.467-0.033,0.6,0.1l1.75,1.35c0.2,0.2,0.167,0.4-0.1,0.6
		c-5.6,4.667-10.017,7.95-13.25,9.85c-4.9,2.833-9.5,4.233-13.8,4.2c-2.567,0.033-5.2-0.433-7.9-1.4c-1.9-0.7-3.833-1.633-5.8-2.8
		c-3.267-1.867-7.717-5.15-13.35-9.85c-0.267-0.2-0.25-0.417,0.05-0.65l1.45-1.25c0.133-0.066,0.317-0.117,0.55-0.15
		c0.167,0.033,0.283,0.083,0.35,0.15l4.8,3.8c0.133,0.066,0.25,0.066,0.35,0c0.133-0.033,0.167-0.15,0.1-0.35l0.05-7.65
		c0-0.467,0.183-0.817,0.55-1.05c1.434-1.033,3.017-2.083,4.75-3.15c0.1-0.033,0.2-0.033,0.3,0c0.133,0.067,0.2,0.167,0.2,0.3v15.5
		c0,0.4,0.15,0.683,0.45,0.85c1.533,0.867,3.05,1.583,4.55,2.15c0.367,0.167,0.55,0.017,0.55-0.45v-20.8
		c0-0.133,0.033-0.267,0.1-0.4c0.066-0.1,0.2-0.167,0.4-0.2c1.433-0.567,3.066-0.967,4.9-1.2c0.066,0,0.15,0.05,0.25,0.15
		c0.133,0.067,0.2,0.167,0.2,0.3v23.7c0,0.333,0.167,0.5,0.5,0.5l1.65,0.05c1.2,0,2.167-0.067,2.9-0.2
		c0.367-0.066,0.533-0.3,0.5-0.7l0.05-23.3c-0.066-0.233,0.1-0.316,0.5-0.25c1.534,0.267,3.1,0.7,4.7,1.3
		c0.367,0.233,0.55,0.483,0.55,0.75v19.9c0,0.367,0.2,0.5,0.6,0.4c1.434-0.633,2.917-1.417,4.45-2.35c0.333-0.2,0.5-0.533,0.5-1
		l0.05-14.05c0-0.333,0.167-0.4,0.5-0.2c1.5,0.967,3.1,2.067,4.8,3.3c0.333,0.333,0.5,0.633,0.5,0.9v6c0,0.4,0.183,0.483,0.55,0.25
		L555.15-21.6z M490-21.05c-0.367-0.233-0.55-0.15-0.55,0.25v6c0,0.267-0.167,0.566-0.5,0.9c-1.7,1.233-3.3,2.333-4.8,3.3
		c-0.333,0.2-0.5,0.133-0.5-0.2l-0.05-14.05c0-0.467-0.167-0.8-0.5-1c-1.533-0.933-3.017-1.717-4.45-2.35
		c-0.4-0.1-0.6,0.034-0.6,0.4v19.9c0,0.267-0.183,0.517-0.55,0.75c-1.6,0.6-3.167,1.033-4.7,1.3c-0.4,0.067-0.566-0.017-0.5-0.25
		l-0.05-23.3c0.033-0.4-0.133-0.633-0.5-0.7c-0.733-0.133-1.7-0.2-2.9-0.2l-1.65,0.05c-0.333,0-0.5,0.167-0.5,0.5v23.7
		c0,0.133-0.067,0.233-0.2,0.3c-0.1,0.1-0.183,0.15-0.25,0.15c-1.833-0.233-3.467-0.633-4.9-1.2c-0.2-0.034-0.333-0.1-0.4-0.2
		c-0.067-0.133-0.1-0.267-0.1-0.4v-20.8c0-0.466-0.184-0.617-0.55-0.45c-1.5,0.566-3.017,1.283-4.55,2.15
		c-0.3,0.167-0.45,0.45-0.45,0.85v15.5c0,0.133-0.066,0.233-0.2,0.3c-0.1,0.033-0.2,0.033-0.3,0c-1.733-1.066-3.316-2.117-4.75-3.15
		c-0.367-0.233-0.55-0.583-0.55-1.05l-0.05-7.65c0.066-0.2,0.033-0.316-0.1-0.35c-0.1-0.067-0.217-0.067-0.35,0l-4.8,3.8
		c-0.067,0.067-0.184,0.117-0.35,0.15c-0.233-0.033-0.417-0.083-0.55-0.15l-1.45-1.25c-0.3-0.233-0.317-0.45-0.05-0.65
		c5.633-4.7,10.083-7.983,13.35-9.85c1.967-1.167,3.9-2.1,5.8-2.8c2.7-0.967,5.333-1.434,7.9-1.4c4.3-0.033,8.9,1.367,13.8,4.2
		c3.233,1.9,7.65,5.183,13.25,9.85c0.267,0.2,0.3,0.4,0.1,0.6l-1.75,1.35c-0.133,0.133-0.333,0.167-0.6,0.1L490-21.05z M427-18.65
		l3.65-2.95c0.267-0.066,0.467-0.033,0.6,0.1l1.75,1.35c0.2,0.2,0.167,0.4-0.1,0.6c-5.6,4.667-10.017,7.95-13.25,9.85
		c-4.9,2.833-9.5,4.233-13.8,4.2c-2.567,0.033-5.2-0.433-7.9-1.4c-1.9-0.7-3.833-1.633-5.8-2.8c-3.267-1.867-7.717-5.15-13.35-9.85
		c-0.267-0.2-0.25-0.417,0.05-0.65l1.45-1.25c0.133-0.066,0.317-0.117,0.55-0.15c0.167,0.033,0.283,0.083,0.35,0.15l4.8,3.8
		c0.133,0.066,0.25,0.066,0.35,0c0.133-0.033,0.167-0.15,0.1-0.35l0.05-7.65c0-0.467,0.183-0.817,0.55-1.05
		c1.434-1.033,3.017-2.083,4.75-3.15c0.1-0.033,0.2-0.033,0.3,0c0.133,0.067,0.2,0.167,0.2,0.3v15.5c0,0.4,0.15,0.683,0.45,0.85
		c1.533,0.867,3.05,1.583,4.55,2.15c0.367,0.167,0.55,0.017,0.55-0.45v-20.8c0-0.133,0.033-0.267,0.1-0.4
		c0.066-0.1,0.2-0.167,0.4-0.2c1.433-0.567,3.066-0.967,4.9-1.2c0.067,0,0.15,0.05,0.25,0.15c0.133,0.067,0.2,0.167,0.2,0.3v23.7
		c0,0.333,0.167,0.5,0.5,0.5l1.65,0.05c1.2,0,2.167-0.067,2.9-0.2c0.367-0.066,0.533-0.3,0.5-0.7l0.05-23.3
		c-0.066-0.233,0.1-0.316,0.5-0.25c1.534,0.267,3.1,0.7,4.7,1.3c0.367,0.233,0.55,0.483,0.55,0.75v19.9c0,0.367,0.2,0.5,0.6,0.4
		c1.434-0.633,2.917-1.417,4.45-2.35c0.333-0.2,0.5-0.533,0.5-1l0.05-14.05c0-0.333,0.167-0.4,0.5-0.2c1.5,0.967,3.1,2.067,4.8,3.3
		c0.333,0.333,0.5,0.633,0.5,0.9v6C426.45-18.5,426.633-18.417,427-18.65z M364.95-20.8v6c0,0.267-0.167,0.566-0.5,0.9
		c-1.7,1.233-3.3,2.333-4.8,3.3c-0.333,0.2-0.5,0.133-0.5-0.2l-0.05-14.05c0-0.467-0.167-0.8-0.5-1
		c-1.533-0.933-3.017-1.717-4.45-2.35c-0.4-0.1-0.6,0.034-0.6,0.4v19.9c0,0.267-0.183,0.517-0.55,0.75c-1.6,0.6-3.167,1.033-4.7,1.3
		c-0.4,0.067-0.566-0.017-0.5-0.25l-0.05-23.3c0.033-0.4-0.133-0.633-0.5-0.7c-0.733-0.133-1.7-0.2-2.9-0.2l-1.65,0.05
		c-0.333,0-0.5,0.167-0.5,0.5v23.7c0,0.133-0.067,0.233-0.2,0.3c-0.1,0.1-0.183,0.15-0.25,0.15c-1.833-0.233-3.467-0.633-4.9-1.2
		c-0.2-0.034-0.333-0.1-0.4-0.2c-0.067-0.133-0.1-0.267-0.1-0.4v-20.8c0-0.466-0.184-0.617-0.55-0.45
		c-1.5,0.566-3.017,1.283-4.55,2.15c-0.3,0.167-0.45,0.45-0.45,0.85v15.5c0,0.133-0.066,0.233-0.2,0.3c-0.1,0.033-0.2,0.033-0.3,0
		c-1.733-1.066-3.316-2.117-4.75-3.15c-0.367-0.233-0.55-0.583-0.55-1.05l-0.05-7.65c0.066-0.2,0.033-0.316-0.1-0.35
		c-0.1-0.067-0.217-0.067-0.35,0l-4.8,3.8c-0.067,0.067-0.184,0.117-0.35,0.15c-0.233-0.033-0.417-0.083-0.55-0.15l-1.45-1.25
		c-0.3-0.233-0.317-0.45-0.05-0.65c5.633-4.7,10.083-7.983,13.35-9.85c1.967-1.167,3.9-2.1,5.8-2.8c2.7-0.967,5.333-1.434,7.9-1.4
		c4.3-0.033,8.9,1.367,13.8,4.2c3.233,1.9,7.65,5.183,13.25,9.85c0.267,0.2,0.3,0.4,0.1,0.6l-1.75,1.35
		c-0.133,0.133-0.333,0.167-0.6,0.1l-3.65-2.95C365.133-21.283,364.95-21.2,364.95-20.8z M306.15-21.6
		c0.267-0.066,0.467-0.033,0.6,0.1l1.75,1.35c0.2,0.2,0.167,0.4-0.1,0.6c-5.6,4.667-10.017,7.95-13.25,9.85
		c-4.9,2.833-9.5,4.233-13.8,4.2c-2.567,0.033-5.2-0.433-7.9-1.4c-1.9-0.7-3.833-1.633-5.8-2.8c-3.267-1.867-7.717-5.15-13.35-9.85
		c-0.267-0.2-0.25-0.417,0.05-0.65l1.45-1.25c0.133-0.066,0.317-0.117,0.55-0.15c0.167,0.033,0.283,0.083,0.35,0.15l4.8,3.8
		c0.133,0.066,0.25,0.066,0.35,0c0.133-0.033,0.167-0.15,0.1-0.35l0.05-7.65c0-0.467,0.183-0.817,0.55-1.05
		c1.434-1.033,3.017-2.083,4.75-3.15c0.1-0.033,0.2-0.033,0.3,0c0.133,0.067,0.2,0.167,0.2,0.3v15.5c0,0.4,0.15,0.683,0.45,0.85
		c1.533,0.867,3.05,1.583,4.55,2.15c0.367,0.167,0.55,0.017,0.55-0.45v-20.8c0-0.133,0.033-0.267,0.1-0.4
		c0.066-0.1,0.2-0.167,0.4-0.2c1.433-0.567,3.066-0.967,4.9-1.2c0.067,0,0.15,0.05,0.25,0.15c0.133,0.067,0.2,0.167,0.2,0.3v23.7
		c0,0.333,0.167,0.5,0.5,0.5l1.65,0.05c1.2,0,2.167-0.067,2.9-0.2c0.367-0.066,0.533-0.3,0.5-0.7l0.05-23.3
		c-0.066-0.233,0.1-0.316,0.5-0.25c1.534,0.267,3.1,0.7,4.7,1.3c0.367,0.233,0.55,0.483,0.55,0.75v19.9c0,0.367,0.2,0.5,0.6,0.4
		c1.434-0.633,2.917-1.417,4.45-2.35c0.333-0.2,0.5-0.533,0.5-1l0.05-14.05c0-0.333,0.167-0.4,0.5-0.2c1.5,0.967,3.1,2.067,4.8,3.3
		c0.333,0.333,0.5,0.633,0.5,0.9v6c0,0.4,0.183,0.483,0.55,0.25L306.15-21.6z M243.7-18.1l-3.65-2.95
		c-0.367-0.233-0.55-0.15-0.55,0.25v6c0,0.267-0.167,0.566-0.5,0.9c-1.7,1.233-3.3,2.333-4.8,3.3c-0.333,0.2-0.5,0.133-0.5-0.2
		l-0.05-14.05c0-0.467-0.167-0.8-0.5-1c-1.533-0.933-3.017-1.717-4.45-2.35c-0.4-0.1-0.6,0.034-0.6,0.4v19.9
		c0,0.267-0.184,0.517-0.55,0.75c-1.6,0.6-3.167,1.033-4.7,1.3c-0.4,0.067-0.567-0.017-0.5-0.25l-0.05-23.3
		c0.034-0.4-0.133-0.633-0.5-0.7c-0.733-0.133-1.7-0.2-2.9-0.2l-1.65,0.05c-0.333,0-0.5,0.167-0.5,0.5v23.7
		c0,0.133-0.067,0.233-0.2,0.3c-0.1,0.1-0.183,0.15-0.25,0.15c-1.833-0.233-3.466-0.633-4.9-1.2c-0.2-0.034-0.333-0.1-0.4-0.2
		c-0.067-0.133-0.1-0.267-0.1-0.4v-20.8c0-0.466-0.183-0.617-0.55-0.45c-1.5,0.566-3.017,1.283-4.55,2.15
		c-0.3,0.167-0.45,0.45-0.45,0.85v15.5c0,0.133-0.067,0.233-0.2,0.3c-0.1,0.033-0.2,0.033-0.3,0c-1.733-1.066-3.317-2.117-4.75-3.15
		c-0.367-0.233-0.55-0.583-0.55-1.05l-0.05-7.65c0.067-0.2,0.033-0.316-0.1-0.35c-0.1-0.067-0.217-0.067-0.35,0l-4.8,3.8
		c-0.067,0.067-0.183,0.117-0.35,0.15c-0.233-0.033-0.417-0.083-0.55-0.15l-1.45-1.25c-0.3-0.233-0.316-0.45-0.05-0.65
		c5.633-4.7,10.083-7.983,13.35-9.85c1.966-1.167,3.9-2.1,5.8-2.8c2.7-0.967,5.333-1.434,7.9-1.4c4.3-0.033,8.9,1.367,13.8,4.2
		c3.233,1.9,7.65,5.183,13.25,9.85c0.267,0.2,0.3,0.4,0.1,0.6l-1.75,1.35C244.167-18.067,243.967-18.033,243.7-18.1z M183.05-20.15
		c0.2,0.2,0.167,0.4-0.1,0.6c-5.6,4.667-10.017,7.95-13.25,9.85c-4.9,2.833-9.5,4.233-13.8,4.2c-2.566,0.033-5.2-0.433-7.9-1.4
		c-1.9-0.7-3.833-1.633-5.8-2.8c-3.267-1.867-7.717-5.15-13.35-9.85c-0.267-0.2-0.25-0.417,0.05-0.65l1.45-1.25
		c0.133-0.066,0.316-0.117,0.55-0.15c0.167,0.033,0.283,0.083,0.35,0.15l4.8,3.8c0.133,0.066,0.25,0.066,0.35,0
		c0.133-0.033,0.167-0.15,0.1-0.35l0.05-7.65c0-0.467,0.184-0.817,0.55-1.05c1.433-1.033,3.017-2.083,4.75-3.15
		c0.1-0.033,0.2-0.033,0.3,0c0.133,0.067,0.2,0.167,0.2,0.3v15.5c0,0.4,0.15,0.683,0.45,0.85c1.534,0.867,3.05,1.583,4.55,2.15
		c0.367,0.167,0.55,0.017,0.55-0.45v-20.8c0-0.133,0.033-0.267,0.1-0.4c0.067-0.1,0.2-0.167,0.4-0.2
		c1.434-0.567,3.067-0.967,4.9-1.2c0.067,0,0.15,0.05,0.25,0.15c0.133,0.067,0.2,0.167,0.2,0.3v23.7c0,0.333,0.167,0.5,0.5,0.5
		l1.65,0.05c1.2,0,2.167-0.067,2.9-0.2c0.367-0.066,0.534-0.3,0.5-0.7l0.05-23.3c-0.067-0.233,0.1-0.316,0.5-0.25
		c1.533,0.267,3.1,0.7,4.7,1.3c0.367,0.233,0.55,0.483,0.55,0.75v19.9c0,0.367,0.2,0.5,0.6,0.4c1.433-0.633,2.917-1.417,4.45-2.35
		c0.333-0.2,0.5-0.533,0.5-1l0.05-14.05c0-0.333,0.167-0.4,0.5-0.2c1.5,0.967,3.1,2.067,4.8,3.3c0.333,0.333,0.5,0.633,0.5,0.9v6
		c0,0.4,0.183,0.483,0.55,0.25l3.65-2.95c0.267-0.066,0.466-0.033,0.6,0.1L183.05-20.15z M103.05-7.15c-1.6,0.6-3.167,1.033-4.7,1.3
		c-0.4,0.067-0.567-0.017-0.5-0.25L97.8-29.4c0.034-0.4-0.133-0.633-0.5-0.7c-0.733-0.133-1.7-0.2-2.9-0.2l-1.65,0.05
		c-0.333,0-0.5,0.167-0.5,0.5v23.7c0,0.133-0.067,0.233-0.2,0.3c-0.1,0.1-0.183,0.15-0.25,0.15c-1.833-0.233-3.466-0.633-4.9-1.2
		c-0.2-0.034-0.333-0.1-0.4-0.2c-0.067-0.133-0.1-0.267-0.1-0.4v-20.8c0-0.466-0.183-0.617-0.55-0.45
		c-1.5,0.566-3.017,1.283-4.55,2.15c-0.3,0.167-0.45,0.45-0.45,0.85v15.5c0,0.133-0.067,0.233-0.2,0.3c-0.1,0.033-0.2,0.033-0.3,0
		c-1.733-1.066-3.317-2.117-4.75-3.15c-0.367-0.233-0.55-0.583-0.55-1.05L75-21.7c0.067-0.2,0.033-0.316-0.1-0.35
		c-0.1-0.067-0.217-0.067-0.35,0l-4.8,3.8c-0.067,0.067-0.183,0.117-0.35,0.15c-0.233-0.033-0.417-0.083-0.55-0.15L67.4-19.5
		c-0.3-0.233-0.316-0.45-0.05-0.65c5.633-4.7,10.083-7.983,13.35-9.85c1.966-1.167,3.9-2.1,5.8-2.8c2.7-0.967,5.333-1.434,7.9-1.4
		c4.3-0.033,8.9,1.367,13.8,4.2c3.233,1.9,7.65,5.183,13.25,9.85c0.267,0.2,0.3,0.4,0.1,0.6l-1.75,1.35
		c-0.133,0.133-0.333,0.167-0.6,0.1l-3.65-2.95c-0.367-0.233-0.55-0.15-0.55,0.25v6c0,0.267-0.167,0.566-0.5,0.9
		c-1.7,1.233-3.3,2.333-4.8,3.3c-0.333,0.2-0.5,0.133-0.5-0.2l-0.05-14.05c0-0.467-0.167-0.8-0.5-1
		c-1.533-0.933-3.017-1.717-4.45-2.35c-0.4-0.1-0.6,0.034-0.6,0.4v19.9C103.6-7.633,103.417-7.383,103.05-7.15z M40.6-11.9
		c0,0.367,0.2,0.5,0.6,0.4c1.433-0.633,2.917-1.417,4.45-2.35c0.333-0.2,0.5-0.533,0.5-1L46.2-28.9c0-0.333,0.167-0.4,0.5-0.2
		c1.5,0.967,3.1,2.067,4.8,3.3c0.333,0.333,0.5,0.633,0.5,0.9v6c0,0.4,0.183,0.483,0.55,0.25l3.65-2.95
		c0.267-0.066,0.466-0.033,0.6,0.1l1.75,1.35c0.2,0.2,0.167,0.4-0.1,0.6c-5.6,4.667-10.017,7.95-13.25,9.85
		c-4.9,2.833-9.5,4.233-13.8,4.2c-2.566,0.033-5.2-0.433-7.9-1.4c-1.9-0.7-3.833-1.633-5.8-2.8c-3.267-1.867-7.717-5.15-13.35-9.85
		c-0.267-0.2-0.25-0.417,0.05-0.65l1.45-1.25c0.133-0.066,0.316-0.117,0.55-0.15c0.167,0.033,0.283,0.083,0.35,0.15l4.8,3.8
		c0.133,0.066,0.25,0.066,0.35,0c0.133-0.033,0.167-0.15,0.1-0.35l0.05-7.65c0-0.467,0.184-0.817,0.55-1.05
		c1.433-1.033,3.017-2.083,4.75-3.15c0.1-0.033,0.2-0.033,0.3,0c0.133,0.067,0.2,0.167,0.2,0.3v15.5c0,0.4,0.15,0.683,0.45,0.85
		c1.534,0.867,3.05,1.583,4.55,2.15c0.367,0.167,0.55,0.017,0.55-0.45v-20.8c0-0.133,0.033-0.267,0.1-0.4
		c0.067-0.1,0.2-0.167,0.4-0.2c1.434-0.567,3.067-0.967,4.9-1.2c0.067,0,0.15,0.05,0.25,0.15c0.133,0.067,0.2,0.167,0.2,0.3v23.7
		c0,0.333,0.167,0.5,0.5,0.5L31.4-9.4c1.2,0,2.167-0.067,2.9-0.2c0.367-0.066,0.534-0.3,0.5-0.7l0.05-23.3
		c-0.067-0.233,0.1-0.316,0.5-0.25c1.533,0.267,3.1,0.7,4.7,1.3c0.367,0.233,0.55,0.483,0.55,0.75V-11.9z"/>
</symbol>
<text transform="matrix(1 0 0 1 2 50.2583)" fill="#FFFFFF" font-family="'Arial-Black'" font-size="37.9393">CONNECTING</text>
<use xlink:href="#DNA"  width="1000.4" height="39.7" y="-39.7" transform="matrix(0.8248 0 0 -0.8248 5.2993 58)" overflow="visible"/>
</svg>
