<?xml version="1.0" encoding="utf-8"?>
<!-- Generator: Adobe Illustrator 16.0.0, SVG Export Plug-In . SVG Version: 6.00 Build 0)  -->
<!DOCTYPE svg PUBLIC "-//W3C//DTD SVG 1.1//EN" "http://www.w3.org/Graphics/SVG/1.1/DTD/svg11.dtd">
<svg id="punchy" xmlns="http://www.w3.org/2000/svg" xmlns:xlink="http://www.w3.org/1999/xlink" x="0px" y="0px"
	 width="474px" height="580px" viewBox="0 0 474 580" xml:space="preserve">
<g>
	<g>
		<path d="M288.56,571.859c-41.214,0-64.672-16.807-65.662-17.516c-1.179-0.871-2.044-2.117-2.418-3.525l-4.45-16.258
			c-3.124,1.76-6.382,3.018-9.319,4.051c-24.695,8.656-51.072,9.717-75.976,10.012l-0.62,0.01c-5.948,0-12.103-1.053-17.531-2.021
			l-0.473-0.055c-8.098-1.412-16.443-3.697-27.11-7.43l-0.407-0.109c-1.119-0.406-3.721-1.236-6.095-2.088
			c-3.903-1.438-9.242-3.412-8.329-9.111c0.141-0.955,3.63-21.432,22.957-56.205c-3.498,0.477-7.51,0.818-12.045,1.035
			c-6.253,2.764-12.416,4.684-17.911,5.588c-2.439,0.379-4.877,0.596-7.25,0.596c-16.458,0-38.722-9.545-51.396-55.076
			c-6.408-23.01,0.745-39.055,7.882-48.438c10.712-14.092,29.332-23.513,48.248-24.611c-0.609-10.25,4.178-20.344,13.096-26.391
			c2.37-1.577,4.895-2.81,7.565-3.668c-5.376-5.642-10.607-11.693-15.666-18.11c-6.382,2.284-12.977,3.52-18.975,3.52
			c-7.284,0-13.513-1.754-18.509-5.203c-2.728-1.537-5.131-4.591-7.488-9.543c-2.264-4.607-4.233-10.679-5.654-17.507
			c-0.067-0.249-0.088-0.494-0.144-0.731c-0.051-0.149-0.082-0.293-0.095-0.444c-2.409-13.129,2.193-27.12,4.675-31.484
			c6.856-12.164,22.842-14.289,32.35-14.406l0.083-0.5c9.84-66.462,19.134-129.306,135.24-153.064l-2.716-39.393
			c-5.61-2.188-9.638-6.779-10.6-12.497c-0.796-4.634,0.614-9.47,3.888-13.259c3-3.509,7.309-5.898,12.136-6.717
			C191.032,1.12,192.254,1,193.467,1c9.11,0,16.712,5.841,18.088,13.872c0.966,5.721-1.322,11.384-5.878,15.305l10.434,38.126
			c13.71-1.824,26.577-2.74,38.293-2.74c86.58,0,111.238,48.721,137.329,100.312c0.453,0.88,0.889,1.763,1.327,2.66
			c5.175-1.341,10.212-2.035,14.797-2.035c8.76,0,15.776,2.413,20.833,7.206c3.962,3.745,13.156,16.732,14.929,31.068
			c0.039,0.257,0.074,0.506,0.082,0.721c0.01,0.055,0.01,0.109,0.012,0.188c0.035,0.203,0.048,0.392,0.077,0.598
			c0.03,0.407,0.057,0.801,0.087,1.172l0.057,0.618c0.486,6.472,0.402,12.529-0.298,17.511c-1.056,7.97-3.108,11.266-4.768,12.959
			c-6.89,8.76-19.669,13.773-35.159,13.773c-0.522,0-1.031-0.009-1.549-0.009c-8.086,21.534-18.53,40.609-31.16,56.904
			c1.609,0.34,3.233,0.696,4.843,1.071c45.474,10.507,68.468,41.847,78.133,59.582c11.976,22.027,16.129,46.127,10.615,61.406
			c-17.19,47.426-37.751,71.443-61.143,71.443l0,0c-1.191,0-2.39-0.039-3.59-0.188c-2.873-0.299-5.789-0.541-8.883-0.812
			c-6.963-0.594-14.556-1.229-22.854-2.791c0.02,0.33,0.018,0.646-0.016,0.957l5.604,33.373c0.257,1.502-0.011,3.004-0.757,4.311
			c-0.78,1.332-19.514,32.92-81.144,34.264C290.709,571.844,289.643,571.859,288.56,571.859z M193.467,13.982
			c-0.486,0-0.972,0.044-1.456,0.125c-1.816,0.309-3.438,1.166-4.47,2.372c-0.442,0.5-1.123,1.513-0.935,2.641
			c0.256,1.538,2.165,2.826,4.562,3.03c0.816,0.078,1.612,0.309,2.319,0.667c0.561-0.567,1.215-1.049,1.984-1.393
			c2.155-0.99,3.56-2.832,3.294-4.38C198.458,15.338,196.139,13.982,193.467,13.982z M121.423,364.322
			c-2.511,0-4.882-1.457-5.929-3.866c-3.632-8.26-6.607-13.916-8.859-16.874c-0.342-0.419-0.619-0.896-0.822-1.411
			c-0.055-0.105-0.094-0.202-0.14-0.319c-1.301-2.694-0.589-5.936,1.717-7.832c2.32-1.896,5.633-1.986,8.027-0.156
			c8.263,6.208,16.943,11.633,25.77,16.111c2.655,1.364,4.061,4.334,3.377,7.262c-0.672,2.905-3.248,4.981-6.235,5.021
			c-4.516,0.057-9.85,0.299-15.113,1.824C122.631,364.27,122.023,364.322,121.423,364.322z"/>
	</g>
	<path fill="#808080" d="M152.099,355.787c-16.288,0.345-32.63-2.643-48.615,12.613c-15.985,15.254,19.816,72.752,26.63,56.701
		c6.825-16.01,22.561-42.855,22.561-42.855L152.099,355.787z"/>
	<path d="M119.353,353.34c0,0,20.93,9.361,15.165,28.859c-6.638,22.387-11.187,48.189-19.761,60.607
		c-36.993,53.627-42.181,86.023-42.181,86.023s29.662,14.051,61.942,13.371c32.277-0.703,66.483-6.633,78.026-15.703
		c11.55-9.043,0.621-12.42,0.621-12.42l9.575,35.004c0,0,23.434,17.115,64.912,16.221c58.685-1.242,75.676-30.979,75.676-30.979
		l-23.576-140.389c0,0-12.36-29.098-18.597-46.579c-6.28-17.486-12.636-40.834-12.636-40.834L119.353,353.34z"/>
	<path fill="#E6E6E6" d="M141.251,348.914c0,0,3.481,13.766,0.287,29.242c-4.715,22.879-14.206,52.232-22.781,64.65
		c-37.001,53.627-42.19,86.023-42.19,86.023s29.665,14.051,61.95,13.371c32.26-0.703,66.467-6.633,78.008-15.703
		c11.547-9.043,0.638-12.42,0.638-12.42l9.57,35.004c0,0,23.428,17.115,64.927,16.221c58.689-1.242,75.664-30.979,75.664-30.979
		l-23.57-140.389c0,0-12.365-29.098-18.636-46.579c-6.233-17.486-12.593-40.834-12.593-40.834L141.251,348.914z"/>
	<polygon fill="#EF4135" points="94.796,482.223 217.195,516.207 361.647,499.287 354.477,464.125 229.886,463.742 144.768,436.16 
		119.504,437.002 	"/>
	<path d="M128.522,424.102c0,0,110.653,23.543,161.068,13.938c47.547-9.076,48.395,29.768,48.395,29.768
		s-76.028,13.486-132.04,2.998c-56.016-10.453-88.757-30.27-88.757-30.27L128.522,424.102z"/>
	<path fill="#FFFFFF" d="M130.183,427.379c0,0,115.057,24.324,161.739,12.486c46.708-11.842,41.268,25.92,41.268,25.92
		s-68.946,11.684-124.94,2.199c-56-9.5-85.125-26.213-85.125-26.213L130.183,427.379z"/>
	<g>
		<path d="M222.238,532.678c-1.837-6.297-4.991,7.428-6.546-1.863c-2.995-17.973-4.574-15.945-24.497-21.697
			c-30.466-8.787-40.527-13.883-57.202-25.799c-13.088-9.326-16.081-14.77-16.081-14.77c0.099,0.074,6.961,7.412,26.926,17.383
			c22.435,11.219,30.326,13.885,54.911,19.943c9.343,2.318,16.454,4.984,17.245,8.287L222.238,532.678z"/>
	</g>
	<path d="M63.418,465.387c0,0,27.255,0.869,39.496-2.938c12.249-3.803,26.176-11.711,30.143-32.176
		c3.985-20.459,3.866-42.609,0.083-50.412c-3.796-7.814-15.21-40.111-22.372-44.16L88.382,355.24l-45.627,66.293L63.418,465.387"/>
	<path fill="#EF4135" d="M61.418,466.375c0,0,27.26,0.883,39.496-2.938c12.25-3.789,26.175-11.695,30.152-32.17
		c3.968-20.455,3.856-42.602,0.075-50.416c-3.8-7.799-15.206-40.097-22.385-44.148l-22.37,19.527l-45.632,66.314L61.418,466.375"/>
	<path d="M113.11,403.129c-5.292-17.959-13.184-42.293-41.817-45.197c-28.633-2.915-69.016,19.195-56.517,64.09
		c12.494,44.893,33.791,50.516,51.351,49.809c38.914-1.561,41.111-15.295,46.854-26.559
		C117.982,435.424,120.047,426.582,113.11,403.129z"/>
	<path fill="#EF4135" d="M109.116,403.129c-5.299-17.959-11.131-42.893-39.756-45.788c-28.62-2.915-71.099,19.786-58.587,64.681
		c12.503,44.893,34.001,52.625,51.356,49.809c17.357-2.811,40.453-16.906,46.175-28.18
		C113.315,433.799,116.048,426.582,109.116,403.129z"/>
	<path d="M71.099,366.098c-7.221-10.697-4.383-25.197,6.289-32.383c10.699-7.213,25.197-4.405,32.396,6.285
		c7.208,10.683,4.374,25.184-6.3,32.404C92.805,379.605,78.293,376.779,71.099,366.098z"/>
	<path fill="#EF4135" d="M71.099,362.098c-7.221-10.688-4.383-25.182,6.289-32.398c10.699-7.203,25.197-4.37,32.396,6.302
		c7.208,10.7,4.374,25.185-6.3,32.399C92.805,375.605,78.293,372.793,71.099,362.098z"/>
	<path d="M408.035,210.905l-0.342,0.057c-45.235-73.521-51.37-158.153-204.812-132.109l-0.006-0.035
		c-0.371,0.055-0.691,0.138-1.032,0.21c-0.369,0.043-0.699,0.097-1.061,0.151v0.042C52.312,104.424,69.493,187.178,51.037,271.513
		l-0.337,0.055c0.093,0.141,0.158,0.255,0.232,0.391c-0.015,0.129-0.057,0.284-0.083,0.427l0.331-0.052
		c27.884,39.382,56.598,66.241,85.075,83.169c3.93,2.306,2.748,13.07,4.225,13.646c150.132,58.383,254.853-72.534,267.361-157.367
		l0.32-0.052c-0.061-0.146-0.149-0.262-0.214-0.401C407.963,211.204,408.007,211.056,408.035,210.905z"/>
	<path fill="#E6E6E6" d="M408.035,208.899l-0.342,0.062c-45.235-73.517-51.37-158.15-204.812-132.102l-0.006-0.041
		c-0.371,0.063-0.691,0.143-1.032,0.199c-0.369,0.057-0.699,0.103-1.061,0.149v0.057C52.312,102.427,69.493,185.181,51.037,269.521
		l-0.337,0.048c0.093,0.122,0.158,0.265,0.232,0.385c-0.015,0.146-0.057,0.294-0.083,0.434l0.331-0.063
		c45.25,73.519,109.904,115.134,199.557,101.128l0.007,0.045c0.358-0.049,0.705-0.139,1.062-0.209
		c0.329-0.053,0.683-0.09,1.056-0.146l-0.022-0.041c89.222-16.373,136.538-76.993,155.002-161.315l0.32-0.052
		c-0.061-0.141-0.149-0.258-0.214-0.392C407.963,209.199,408.007,209.057,408.035,208.899z"/>
	<path fill="#FFFFFF" d="M185.188,229.387c-5.301,33.509-33.25,56.918-62.426,52.284c-29.158-4.622-48.503-35.519-43.195-69.023
		c5.301-33.508,33.262-56.919,62.426-52.296C171.166,164.975,190.501,195.891,185.188,229.387z"/>
	<path fill="#FFFFFF" d="M259.73,214.899c16.074,29.887,50.188,42.771,76.189,28.784c26.002-13.997,34.065-49.567,17.991-79.433
		c-16.079-29.879-50.18-42.757-76.199-28.767C251.714,149.478,243.653,185.034,259.73,214.899z"/>
	<path d="M191.927,226.935c-5.313,33.51-33.27,56.914-62.443,52.299c-29.159-4.619-48.498-35.532-43.184-69.034
		c5.305-33.512,33.259-56.924,62.422-52.285C177.889,162.535,197.236,193.434,191.927,226.935z"/>
	<path d="M266.47,212.457c16.045,29.885,50.167,42.768,76.167,28.764c26.02-13.979,34.087-49.54,18.003-79.421
		c-16.068-29.866-50.177-42.759-76.194-28.738C258.441,147.034,250.396,182.609,266.47,212.457z"/>
	<path fill="#58595B" d="M188.863,226.935c-5.299,33.51-33.253,56.914-62.436,52.299c-29.163-4.619-48.501-35.532-43.19-69.034
		c5.307-33.512,33.258-56.924,62.434-52.285C174.849,162.535,194.188,193.434,188.863,226.935z"/>
	<path fill="#58595B" d="M263.405,212.457c16.066,29.885,50.179,42.768,76.177,28.764c26.017-13.979,34.067-49.54,18.014-79.421
		c-16.08-29.866-50.182-42.759-76.199-28.738C255.364,147.034,247.312,182.609,263.405,212.457z"/>
	<g>
		<g>
			<path fill="#FFFFFF" d="M213.099,345.45c-1.192,0-2.254-0.853-2.452-2.069l-10.317-60.721c-0.219-1.361,0.696-2.647,2.048-2.873
				c1.369-0.243,2.663,0.658,2.891,2.035l10.3,60.727c0.221,1.342-0.685,2.639-2.056,2.882
				C213.387,345.442,213.224,345.45,213.099,345.45z"/>
		</g>
		<g>
			<path fill="#FFFFFF" d="M226.922,350.087c-1.198,0-2.247-0.855-2.459-2.065l-12.752-75.11c-0.23-1.364,0.692-2.663,2.041-2.896
				c1.374-0.224,2.655,0.688,2.88,2.048l12.75,75.123c0.238,1.356-0.677,2.638-2.043,2.876
				C227.2,350.087,227.061,350.087,226.922,350.087z"/>
		</g>
		<g>
			<path fill="#FFFFFF" d="M239.595,347.937c-1.194,0-2.252-0.861-2.462-2.065l-12.749-75.122c-0.241-1.364,0.679-2.648,2.045-2.874
				c1.363-0.245,2.65,0.682,2.874,2.033l12.751,75.131c0.239,1.344-0.681,2.644-2.05,2.866
				C239.872,347.908,239.729,347.937,239.595,347.937z"/>
		</g>
		<g>
			<path fill="#FFFFFF" d="M252.265,345.801c-1.197,0-2.268-0.876-2.456-2.076l-12.753-75.139c-0.24-1.358,0.67-2.642,2.046-2.872
				c1.352-0.227,2.646,0.684,2.882,2.05l12.742,75.128c0.236,1.355-0.681,2.661-2.039,2.865
				C252.547,345.779,252.404,345.801,252.265,345.801z"/>
		</g>
		<g>
			<path fill="#FFFFFF" d="M264.948,343.655c-1.206,0-2.284-0.865-2.456-2.088l-12.771-75.133c-0.229-1.351,0.682-2.653,2.046-2.866
				c1.364-0.238,2.631,0.689,2.869,2.034l12.755,75.14c0.239,1.352-0.679,2.646-2.044,2.863
				C265.225,343.626,265.078,343.655,264.948,343.655z"/>
		</g>
		<g>
			<path fill="#FFFFFF" d="M276.449,334.706c-1.196,0-2.263-0.869-2.464-2.087l-10.315-60.714c-0.215-1.355,0.7-2.661,2.059-2.882
				c1.358-0.243,2.647,0.667,2.878,2.043l10.303,60.72c0.238,1.369-0.687,2.638-2.058,2.883
				C276.725,334.687,276.576,334.706,276.449,334.706z"/>
		</g>
	</g>
	<g>
		<g>
			<path d="M216.397,345.031c-1.198,0-2.262-0.862-2.472-2.09l-10.302-60.72c-0.238-1.347,0.692-2.641,2.054-2.88
				c1.343-0.228,2.633,0.684,2.863,2.035l10.305,60.73c0.234,1.355-0.684,2.661-2.038,2.893
				C216.66,345.031,216.516,345.031,216.397,345.031z"/>
		</g>
		<g>
			<path d="M230.208,349.666c-1.193,0-2.244-0.863-2.462-2.083l-12.744-75.115c-0.236-1.361,0.672-2.651,2.033-2.872
				c1.374-0.235,2.641,0.68,2.884,2.03l12.756,75.116c0.231,1.361-0.679,2.655-2.055,2.894
				C230.48,349.646,230.339,349.666,230.208,349.666z"/>
		</g>
		<g>
			<path d="M242.882,347.521c-1.202,0-2.25-0.853-2.457-2.09l-12.764-75.11c-0.215-1.364,0.687-2.65,2.048-2.876
				c1.364-0.246,2.643,0.666,2.889,2.023l12.741,75.149c0.241,1.335-0.671,2.636-2.052,2.874
				C243.157,347.509,243.007,347.521,242.882,347.521z"/>
		</g>
		<g>
			<path d="M255.545,345.363c-1.198,0-2.236-0.848-2.46-2.08l-12.739-75.12c-0.245-1.352,0.677-2.654,2.036-2.878
				c1.35-0.227,2.646,0.684,2.887,2.042l12.739,75.122c0.23,1.368-0.685,2.657-2.059,2.883
				C255.823,345.361,255.68,345.363,255.545,345.363z"/>
		</g>
		<g>
			<path d="M268.21,343.217c-1.189,0-2.236-0.854-2.442-2.078l-12.759-75.131c-0.23-1.355,0.672-2.638,2.032-2.886
				c1.35-0.217,2.661,0.7,2.875,2.046l12.771,75.143c0.229,1.354-0.685,2.641-2.031,2.882
				C268.503,343.204,268.359,343.217,268.21,343.217z"/>
		</g>
		<g>
			<path d="M279.728,334.281c-1.213,0-2.251-0.869-2.452-2.089l-10.322-60.725c-0.232-1.354,0.702-2.646,2.052-2.882
				c1.348-0.212,2.63,0.693,2.871,2.047l10.321,60.723c0.232,1.355-0.704,2.647-2.048,2.891
				C280.013,334.271,279.854,334.281,279.728,334.281z"/>
		</g>
	</g>
	<path fill="#CCCCCC" d="M215.096,89.159c0.441,2.503-6.038,5.677-9.291,6.233l0,0c-3.254,0.552-10.402-0.315-10.823-2.803
		l-4.8-69.436c-0.422-2.479-0.749-4.514,2.484-5.062l0,0c3.268-0.55,3.625,1.458,4.045,3.966L215.096,89.159z"/>
	<path d="M100.251,220.401c1.627,23.391,20.746,41.108,42.711,39.566c21.973-1.542,38.477-21.765,36.878-45.146
		c-1.631-23.381-20.735-41.095-42.732-39.552C115.141,176.81,98.639,197.017,100.251,220.401z"/>
	<path d="M269.225,194.469c5.431,23.824,26.642,39.286,47.36,34.558c20.676-4.735,33.015-27.876,27.576-51.697
		c-5.464-23.805-26.64-39.259-47.34-34.548C276.125,147.517,263.769,170.658,269.225,194.469z"/>
	<path fill="#FFFFFF" d="M100.179,216.324c1.605,22.873,19.244,40.287,39.417,38.884c20.166-1.408,35.236-21.09,33.642-43.979
		c-1.599-22.873-19.233-40.291-39.412-38.878C113.665,173.752,98.597,193.434,100.179,216.324z"/>
	<path fill="#FFFFFF" d="M273.823,191.239c5.052,22.088,24.96,36.394,44.438,31.944c19.471-4.455,31.182-25.995,26.131-48.092
		c-5.05-22.095-24.967-36.392-44.446-31.929C280.457,147.608,268.76,169.128,273.823,191.239z"/>
	<path d="M181.25,23.341c-0.982-5.743,3.831-11.325,10.721-12.501c6.881-1.163,13.266,2.532,14.227,8.254
		c0.97,5.727-3.833,11.327-10.721,12.488C188.597,32.761,182.212,29.064,181.25,23.341z"/>
	<path fill="#F2F2F2" d="M180.208,20.207c-0.984-5.734,3.832-11.323,10.709-12.495c6.896-1.176,13.258,2.525,14.232,8.25
		c0.977,5.747-3.829,11.327-10.704,12.497C187.561,29.638,181.176,25.927,180.208,20.207z"/>
	<path d="M438.312,409.861c0,0-7.643,44.453-17.242,62.852c-9.581,18.414-13.236,25.219-49.677,20.639
		c-31.051-3.932-56.946-15.031-67.154-24.064c-10.171-9.039-53.388-28.521-56.951-41.652l21.756-18.166l111.96-49.301
		L438.312,409.861"/>
	<path fill="#EF4135" d="M438.312,407.861c0,0-7.643,44.457-17.242,62.855c-9.581,18.402-13.236,25.221-49.677,20.604
		c-31.051-3.883-56.946-15.006-67.154-24.041c-10.171-9.021-53.388-28.523-56.951-41.625l21.756-18.176l111.96-49.309
		L438.312,407.861"/>
	<path d="M300.094,385.234c-12.583-15.902-32.872-17.369-45.368-3.357c-12.478,14.076-12.424,38.322,0.138,54.213
		c12.547,15.869,32.854,17.373,45.325,3.346C312.686,425.379,312.648,401.127,300.094,385.234z"/>
	<path d="M291.837,382.908c-12.562-15.916-33.354-16.02-45.865-1.988c-12.464,14.059-13.959,38.844,2.938,55.977
		c14.192,14.439,30.555,14.227,43.029,0.188C304.434,423.041,304.386,398.779,291.837,382.908z"/>
	<path fill="#EF4135" d="M299.082,376.73c-9.731-17.934-36.857-13.865-49.356,0.168c-12.471,14.059-12.434,38.305,0.14,54.221
		c12.541,15.854,32.853,17.354,45.326,3.299C307.696,420.387,308.715,394.535,299.082,376.73z"/>
	<path d="M320.785,477.924c-7.164-4.295-14.194-11.945-21.676-19.684c-1.795-1.875-8.125-8.166-18.94-9.662
		c-2.77-0.389,2.906-2.605,4.979-4.539c3.747-3.504-0.606-7.52-1.002-8.227c-8.893-16.158-14.131-34.75-10.002-57.721
		c8.242-45.783,21.199-71.723,99.871-54.726c68.074,14.738,92.807,82.218,82.782,108.601
		c-10.037,26.406-30.102,68.467-58.343,65.754C377.89,495.736,352.555,497.008,320.785,477.924z"/>
	<path fill="#EF4135" d="M325.04,474.889c-24.526-15.23-53.904-47.145-48.771-94.576c5.112-47.426,19.035-81.957,98.138-63.703
		c68.426,15.795,93.88,85.389,84.071,112.449c-9.801,27.066-29.538,70.111-57.908,67.021
		C379.928,493.844,357.042,494.807,325.04,474.889z"/>
	<path d="M79.552,466.229c0,0,10.121-0.43,15.567-1.475c5.469-1.029,20.294-6.229,26.793-15.594
		c6.499-9.352,9.72-16.195,11.012-30.01c1.304-13.752,1.521-18.088,1.277-22.52c-0.264-4.408-1.9-11.984-1.9-11.984
		s2.144,2.775,3.939,17.885c0.982,8.258-0.565,17.533-0.981,21.502c-0.696,6.58-3.131,15.57-6.931,21.143
		c-3.431,4.98-10.145,13.869-18.719,19.051c-8.583,5.203-15.606,19.77-13.697,7.037c0.353-2.385-17.161-0.531-17.161-0.531
		L79.552,466.229z"/>
	<path d="M368.676,493.676c-4.379-0.928-10.798-2.525-16.986-4.359c-6.203-1.826-18.355-5.979-24.101-8.266
		c-5.726-2.295-17.885-8.256-21.79-11.914c-3.905-3.688-19.263-11.939-26.617-16.992c-7.345-5.039-19.748-9.537-22.748-11.828
		c-2.966-2.277,13.805,11.174,17.935,14.139c4.13,2.977,16.259,10.959,20.409,13.715c4.129,2.77,22.619,13.729,30.749,17.244
		c11.634,5.041,35.567,10.336,37.633,14.908c2.066,4.586,3.661-1.375,3.661-1.375L368.676,493.676z"/>
	<path fill="#CCCCCC" d="M378.125,212.557c-0.02-0.172-0.039-0.341-0.062-0.508h0.01c-1.646-15.597,0.3-31.341,7.938-34.406
		c13.213-5.256,29.558-7.416,38.232,0.779c2.939,2.779,11.425,14.529,12.937,27.261h0.003c0.037,0.159,0.043,0.35,0.052,0.521
		c0.035,0.168,0.058,0.339,0.082,0.493l-0.024,0.005c1.234,12.755-0.022,23.19-3.258,27.485
		c-8.324,11.026-26.758,13.126-40.761,10.788c-8.122-1.354-13.354-16.342-15.099-31.908l0,0
		C378.149,212.9,378.143,212.729,378.125,212.557z"/>
	<path fill="#808080" d="M433.512,203.352c3.491,16.246-0.144,30.79-8.094,32.496c-7.968,1.715-17.286-10.047-20.762-26.293
		c-3.47-16.247,0.153-30.794,8.116-32.503C420.74,175.344,430.028,187.112,433.512,203.352z"/>
	<path fill="#CCCCCC" d="M74.232,261.56c-0.03-0.129-0.047-0.295-0.083-0.442h-0.02c-2.76-13.978-8.641-27.095-16.111-27.701
		c-12.834-1.025-27.59,1.491-32.918,10.908c-1.807,3.208-6.027,15.662-3.92,27.103l-0.012,0.011
		c0.012,0.143,0.059,0.302,0.086,0.438c0.03,0.161,0.06,0.32,0.083,0.462h0.009c2.351,11.402,6.219,20.086,10.199,22.954
		c10.156,7.327,26.718,4.219,38.221-1.559c6.691-3.354,7.21-17.736,4.547-31.704l0.015-0.015
		C74.289,261.871,74.249,261.722,74.232,261.56z"/>
	<path fill="#808080" d="M23.729,268.423c1.319,15.02,8.349,26.486,15.733,26.019c5.121-0.359,8.088-13.358,6.768-28.371
		c-1.312-15.024-6.855-26.192-12.615-24.958C26.39,242.651,22.398,253.415,23.729,268.423z"/>
</g>
</svg>
